<?xml version="1.0" encoding="utf-8"?>
<!-- Generator: Adobe Illustrator 24.1.2, SVG Export Plug-In . SVG Version: 6.00 Build 0)  -->
<svg version="1.1" id="레이어_1" xmlns="http://www.w3.org/2000/svg" xmlns:xlink="http://www.w3.org/1999/xlink" x="0px"
	 y="0px" viewBox="0 0 140.9 147.3" style="enable-background:new 0 0 140.9 147.3;" xml:space="preserve">
<style type="text/css">
	.st0{fill:#EFAD39;stroke:#01476C;stroke-width:1.436;stroke-linecap:round;stroke-linejoin:round;stroke-miterlimit:10;}
	.st1{fill:#E0E4E8;stroke:#01476C;stroke-width:1.436;stroke-linecap:round;stroke-linejoin:round;stroke-miterlimit:10;}
	.st2{fill:#FFFFFF;stroke:#01476C;stroke-width:1.436;stroke-linecap:round;stroke-linejoin:round;stroke-miterlimit:10;}
	.st3{fill:#CADAE9;stroke:#01476C;stroke-width:1.436;stroke-linecap:round;stroke-linejoin:round;stroke-miterlimit:10;}
</style>
<g>
	<path class="st0" d="M122.9,21.1H11.5v0c0-5.5,4.4-9.9,9.9-9.9H113C118.5,11.2,122.9,15.6,122.9,21.1L122.9,21.1z"/>
	<rect x="13.3" y="21.3" class="st1" width="107.8" height="56.4"/>
	<g>
		<g>
			<rect x="20" y="31.4" class="st2" width="11.5" height="22"/>
			<rect x="40.7" y="31.4" class="st2" width="11.5" height="22"/>
			<rect x="61.5" y="31.4" class="st2" width="11.5" height="22"/>
			<rect x="82.2" y="31.4" class="st2" width="11.5" height="22"/>
			<rect x="102.9" y="31.4" class="st2" width="11.5" height="22"/>
		</g>
	</g>
	<g>
		<g>
			<rect x="20" y="57.2" class="st2" width="11.5" height="11"/>
			<rect x="40.7" y="57.2" class="st2" width="11.5" height="11"/>
			<rect x="61.5" y="57.2" class="st2" width="11.5" height="11"/>
			<rect x="82.2" y="57.2" class="st2" width="11.5" height="11"/>
			<rect x="102.9" y="57.2" class="st2" width="11.5" height="11"/>
		</g>
	</g>
	
		<rect x="13.3" y="77.7" transform="matrix(-1 -1.224647e-16 1.224647e-16 -1 134.4351 211.8925)" class="st1" width="107.8" height="56.4"/>
	
		<rect x="11.9" y="134.1" transform="matrix(-1 -1.224647e-16 1.224647e-16 -1 134.7941 274.9509)" class="st3" width="111" height="6.7"/>
	<g>
		<g>
			<rect x="102.9" y="102.2" class="st2" width="11.5" height="22"/>
			<rect x="82.2" y="102.2" class="st2" width="11.5" height="22"/>
			<rect x="61.5" y="102.2" class="st2" width="11.5" height="22"/>
			<rect x="40.7" y="102.2" class="st2" width="11.5" height="22"/>
			<rect x="20" y="102.2" class="st2" width="11.5" height="22"/>
		</g>
	</g>
	<g>
		<g>
			<rect x="102.9" y="87.3" class="st2" width="11.5" height="11"/>
			<rect x="82.2" y="87.3" class="st2" width="11.5" height="11"/>
			<rect x="61.5" y="87.3" class="st2" width="11.5" height="11"/>
			<rect x="40.7" y="87.3" class="st2" width="11.5" height="11"/>
			<rect x="20" y="87.3" class="st2" width="11.5" height="11"/>
		</g>
	</g>
	<g>
		<g>
			<rect x="124.4" y="31.5" class="st2" width="10.6" height="36.7"/>
			<line class="st2" x1="124.4" y1="38" x2="121.1" y2="38"/>
			<line class="st2" x1="124.4" y1="63.5" x2="121.1" y2="63.5"/>
		</g>
	</g>
</g>
</svg>
