<svg id="레이어_1" data-name="레이어 1" xmlns="http://www.w3.org/2000/svg" viewBox="0 0 346.85 139.86"><defs><style>.cls-1{fill:#1e9143;}.cls-2{fill:#231815;}</style></defs><path class="cls-1" d="M129.17,36.34a29.88,29.88,0,0,0,9-6.85,17.56,17.56,0,0,0,3.8-8.49H132V14.8h10.6V9.53h7V14.8h10.18V21h-10c0,2.35,1.05,4.8,3.22,7.26s5.33,4.86,9.6,6.91c-.82.82-1.58,1.58-2.34,2.29s-1.64,1.58-2.4,2.34a26.33,26.33,0,0,1-7.32-4.63A16.27,16.27,0,0,1,146,29.38a21.37,21.37,0,0,1-4.74,6.44A33.38,33.38,0,0,1,133.85,41c-.81-.76-1.58-1.52-2.34-2.34A29.65,29.65,0,0,1,129.17,36.34Zm45.37,27.23H140.47V44.77h7V57.3h27ZM158.62,23.7h8.43V10h7V45.71h-7V30h-8.43Z" transform="translate(-2.59 -3.62)"/><path class="cls-1" d="M195.15,33.3a174.92,174.92,0,0,0,21-1.41l.58,5.68c-3.92.53-8.25.88-12.93,1.11s-10,.36-15.63.36V12.16h7Zm34.37,30.27H194.86V44.25h7V57.36h27.64ZM210.14,23.93h12V20.3h-12V15h12V10h7V45.71h-7V29.14h-12Z" transform="translate(-2.59 -3.62)"/><path class="cls-1" d="M248.42,31.42c3.46,0,7-.11,10.77-.46s7.62-.76,11.71-1.41l.59,6.21a199.82,199.82,0,0,1-30.09,1.93V12.16h26.28v6.21H248.42Zm-.93,32.44V42.49h34V63.86Zm27-15.16H254.45v8.95h20.08Zm7-21V38.8h-7V10h7V21.47h8.2v6.27Z" transform="translate(-2.59 -3.62)"/><path class="cls-1" d="M323.06,24.34A12.88,12.88,0,0,1,322,29.61a13.7,13.7,0,0,1-3,4.22,13.51,13.51,0,0,1-4.4,2.8,14.26,14.26,0,0,1-5.44,1,13.52,13.52,0,0,1-5.44-1,12.93,12.93,0,0,1-4.39-2.75,11.94,11.94,0,0,1-3-4.21,12.08,12.08,0,0,1-1.11-5.33A12.64,12.64,0,0,1,296.37,19a12.27,12.27,0,0,1,3-4.15,13.92,13.92,0,0,1,4.39-2.75,14.63,14.63,0,0,1,5.44-1A14,14,0,0,1,319,14.92a14.13,14.13,0,0,1,3,4.15A13.29,13.29,0,0,1,323.06,24.34Zm-7,0a7.55,7.55,0,0,0-.53-2.81,10,10,0,0,0-1.52-2.22,7.91,7.91,0,0,0-2.17-1.47,6.57,6.57,0,0,0-2.63-.52,7,7,0,0,0-2.75.52,6.82,6.82,0,0,0-2.23,1.47,7,7,0,0,0-1.46,2.22,7.55,7.55,0,0,0-.53,2.81,7.38,7.38,0,0,0,.53,2.87,6.6,6.6,0,0,0,3.69,3.69,6.81,6.81,0,0,0,2.75.52,6.67,6.67,0,0,0,4.8-2,7.83,7.83,0,0,0,1.52-2.22A7.38,7.38,0,0,0,316.1,24.34ZM340.84,52a9,9,0,0,1-1.36,4.85,15,15,0,0,1-3.66,3.76,23.16,23.16,0,0,1-5.57,2.4,28,28,0,0,1-6.79.82A26.07,26.07,0,0,1,316.8,63a18.06,18.06,0,0,1-5.5-2.34,12.61,12.61,0,0,1-3.74-3.76A8.56,8.56,0,0,1,306.21,52a9.16,9.16,0,0,1,1.35-5,12.5,12.5,0,0,1,3.74-3.76,17.81,17.81,0,0,1,5.5-2.34,25.64,25.64,0,0,1,6.66-.82,27.51,27.51,0,0,1,6.79.82,23.28,23.28,0,0,1,5.5,2.4,14.16,14.16,0,0,1,3.73,3.76A9.6,9.6,0,0,1,340.84,52Zm-8.15,0a5.35,5.35,0,0,0-.68-2.5,8.15,8.15,0,0,0-2-1.91,11.85,11.85,0,0,0-2.92-1.25,15.3,15.3,0,0,0-3.6-.44,14,14,0,0,0-3.53.44,12,12,0,0,0-2.92,1.19,5.74,5.74,0,0,0-2,1.91,4.32,4.32,0,0,0-.75,2.56,4,4,0,0,0,.75,2.51,4.91,4.91,0,0,0,2,1.91A10,10,0,0,0,320,57.63a17.49,17.49,0,0,0,3.53.39,15.84,15.84,0,0,0,3.6-.44,11.77,11.77,0,0,0,2.92-1.2,6.41,6.41,0,0,0,2-1.91A4.8,4.8,0,0,0,332.69,52Zm3.84-19.77V39h-7V10h7v5.56h8.2V21.3h-8.2v5.21h8.2v5.74Z" transform="translate(-2.59 -3.62)"/><path class="cls-1" d="M56,143.48h-.11c-23.49-4.16-36.73-15.84-43.7-24.91-7.56-9.85-9.52-18.58-9.6-19a.59.59,0,0,1,0-.14V12.18a.66.66,0,0,1,.66-.65H108.79a.66.66,0,0,1,.66.65V99.47a.59.59,0,0,1,0,.14c-.08.37-2,9.1-9.6,19-7,9.07-20.21,20.75-43.7,24.91ZM3.9,99.4a52.89,52.89,0,0,0,9.39,18.41c6.82,8.85,19.76,20.26,42.73,24.36,23-4.11,35.95-15.54,42.77-24.41a52.66,52.66,0,0,0,9.35-18.36V12.84H3.9Z" transform="translate(-2.59 -3.62)"/><path class="cls-1" d="M79.37,39.13a1.68,1.68,0,0,0-1.84,1.49c-.21,2.09,1.77,3.51,2.68,4.26C81,43.62,81.55,39.29,79.37,39.13Z" transform="translate(-2.59 -3.62)"/><path class="cls-1" d="M81.26,46.41c2.07-.25,5.58-3.1,3.56-4.53S80.58,44.26,81.26,46.41Z" transform="translate(-2.59 -3.62)"/><path class="cls-1" d="M74.54,44.66c0,2.18,3,2.42,5.21,2.14-.5-1.3-1.86-3.19-3.19-3.39S74.53,43.79,74.54,44.66Z" transform="translate(-2.59 -3.62)"/><path class="cls-1" d="M33.16,128.07a1.51,1.51,0,0,0-.37-.22,1.85,1.85,0,0,0-.42-.11,1,1,0,0,1-.25-.07.67.67,0,0,1-.2-.12.44.44,0,0,1-.12-.18.55.55,0,0,1-.05-.25.37.37,0,0,1,.06-.21.52.52,0,0,1,.14-.16.54.54,0,0,1,.2-.1.57.57,0,0,1,.22,0,.76.76,0,0,1,.21,0l.21.07.18.12a.67.67,0,0,1,.14.15l0,0,.24-.2v0a.91.91,0,0,0-.18-.21,1.2,1.2,0,0,0-.24-.15,1.43,1.43,0,0,0-.27-.09l-.28,0a1.24,1.24,0,0,0-.37.06,1.12,1.12,0,0,0-.31.15.8.8,0,0,0-.23.26.74.74,0,0,0-.08.34,1,1,0,0,0,.07.41.71.71,0,0,0,.21.27.87.87,0,0,0,.3.17,1.77,1.77,0,0,0,.38.09,1.61,1.61,0,0,1,.29.09,1.28,1.28,0,0,1,.25.15.92.92,0,0,1,.18.22.5.5,0,0,1,0,.51.66.66,0,0,1-.19.18.8.8,0,0,1-.25.11,1,1,0,0,1-.51,0,.68.68,0,0,1-.24-.08,1,1,0,0,1-.21-.14.56.56,0,0,1-.16-.18v0l-.25.21v0a.93.93,0,0,0,.21.23,1.23,1.23,0,0,0,.28.17,1.32,1.32,0,0,0,.3.1,1.55,1.55,0,0,0,.31,0,1.51,1.51,0,0,0,.41-.06,1.26,1.26,0,0,0,.35-.17,1,1,0,0,0,.27-.28.73.73,0,0,0,.12-.35.93.93,0,0,0-.07-.42A1.18,1.18,0,0,0,33.16,128.07Z" transform="translate(-2.59 -3.62)"/><rect class="cls-1" x="31.81" y="122.7" width="0.34" height="3.3"/><path class="cls-1" d="M37.83,129,37,127.67,36,126.33h-.28v3.3h.34V127c.25.37.51.74.76,1.09l.26.38.79,1.14h.28v-3.3h-.34Z" transform="translate(-2.59 -3.62)"/><path class="cls-1" d="M39.75,127a1.17,1.17,0,0,1,.39-.29,1.09,1.09,0,0,1,.48-.1,1.06,1.06,0,0,1,.46.1,1.3,1.3,0,0,1,.4.28l0,0,.23-.25h0a1.81,1.81,0,0,0-.5-.33,1.52,1.52,0,0,0-.59-.12,1.39,1.39,0,0,0-.66.14,1.48,1.48,0,0,0-.49.37,1.62,1.62,0,0,0-.3.53,1.91,1.91,0,0,0-.1.64,1.61,1.61,0,0,0,.11.63,1.44,1.44,0,0,0,.31.54,1.33,1.33,0,0,0,.49.36,1.31,1.31,0,0,0,.64.14,1.39,1.39,0,0,0,.61-.13,1.58,1.58,0,0,0,.48-.33h0L41.5,129h0a1.21,1.21,0,0,1-.4.28,1,1,0,0,1-.46.1,1.07,1.07,0,0,1-.49-.1,1,1,0,0,1-.39-.3,1.31,1.31,0,0,1-.25-.43,1.51,1.51,0,0,1-.09-.53,1.33,1.33,0,0,1,.1-.54A1.29,1.29,0,0,1,39.75,127Z" transform="translate(-2.59 -3.62)"/><polygon class="cls-1" points="40.02 126 42.21 126 42.21 125.69 40.36 125.69 40.36 124.49 42.08 124.49 42.08 124.19 40.36 124.19 40.36 123 42.21 123 42.21 122.7 40.02 122.7 40.02 126"/><polygon class="cls-1" points="44.34 123.13 44.66 123.13 44.66 126.04 45.19 126.04 45.19 122.69 44.34 122.69 44.34 123.13"/><path class="cls-1" d="M50.91,126.77a1.12,1.12,0,0,0-.4-.35,1.14,1.14,0,0,0-.52-.12,1.05,1.05,0,0,0-.52.12,1.12,1.12,0,0,0-.4.35,1.77,1.77,0,0,0-.24.54,2.69,2.69,0,0,0,0,1.38,1.67,1.67,0,0,0,.24.54,1.12,1.12,0,0,0,.4.35,1.05,1.05,0,0,0,.52.13,1.14,1.14,0,0,0,.52-.13,1.12,1.12,0,0,0,.4-.35,1.67,1.67,0,0,0,.24-.54,2.69,2.69,0,0,0,0-1.38A1.77,1.77,0,0,0,50.91,126.77Zm-.24,1.75a1.24,1.24,0,0,1-.17.4.89.89,0,0,1-.25.26.45.45,0,0,1-.26.09.48.48,0,0,1-.27-.09.76.76,0,0,1-.24-.26,1.24,1.24,0,0,1-.17-.4,1.68,1.68,0,0,1-.07-.52,1.72,1.72,0,0,1,.07-.52,1.34,1.34,0,0,1,.17-.4.87.87,0,0,1,.24-.26.48.48,0,0,1,.27-.09.45.45,0,0,1,.26.09,1,1,0,0,1,.25.26,1.34,1.34,0,0,1,.17.4,2.11,2.11,0,0,1,.07.52A2,2,0,0,1,50.67,128.52Z" transform="translate(-2.59 -3.62)"/><polygon class="cls-1" points="49.4 123.13 49.72 123.13 49.72 126.04 50.26 126.04 50.26 122.69 49.4 122.69 49.4 123.13"/><path class="cls-1" d="M56,128.25l-.14-.2a1.29,1.29,0,0,0-.17-.16.83.83,0,0,0,.24-.31.8.8,0,0,0,.09-.36.89.89,0,0,0-.08-.35,1.06,1.06,0,0,0-.22-.29,1.73,1.73,0,0,0-.34-.21,1.14,1.14,0,0,0-.41-.07,1.07,1.07,0,0,0-.41.07,1.3,1.3,0,0,0-.34.21.77.77,0,0,0-.22.29.76.76,0,0,0-.09.35.7.7,0,0,0,.1.36.67.67,0,0,0,.24.31.93.93,0,0,0-.18.16,1.05,1.05,0,0,0-.14.2.85.85,0,0,0-.09.22.82.82,0,0,0,0,.21.76.76,0,0,0,.1.39.81.81,0,0,0,.25.33,1.09,1.09,0,0,0,.36.22,1.13,1.13,0,0,0,.45.09,1.08,1.08,0,0,0,.44-.09,1.25,1.25,0,0,0,.37-.22,1.2,1.2,0,0,0,.25-.33.86.86,0,0,0,.09-.39.82.82,0,0,0,0-.21A1.45,1.45,0,0,0,56,128.25ZM54.5,127a.72.72,0,0,1,.11-.15.91.91,0,0,1,.16-.11.64.64,0,0,1,.2,0,.63.63,0,0,1,.19,0,.91.91,0,0,1,.16.11.72.72,0,0,1,.11.15.39.39,0,0,1,0,.18.33.33,0,0,1,0,.17.49.49,0,0,1-.11.14l-.15.1a.46.46,0,0,1-.19,0,.41.41,0,0,1-.19,0,.62.62,0,0,1-.16-.1.39.39,0,0,1-.12-.14.26.26,0,0,1,0-.17A.39.39,0,0,1,54.5,127Zm1,1.86a.59.59,0,0,1-.13.18.59.59,0,0,1-.19.13.64.64,0,0,1-.23,0,.56.56,0,0,1-.23,0,.53.53,0,0,1-.2-.13.59.59,0,0,1-.13-.18.54.54,0,0,1,0-.22.53.53,0,0,1,0-.2.62.62,0,0,1,.14-.18.69.69,0,0,1,.2-.13.48.48,0,0,1,.23,0,.44.44,0,0,1,.22,0,.64.64,0,0,1,.19.13.59.59,0,0,1,.13.18.39.39,0,0,1,0,.2A.42.42,0,0,1,55.52,128.9Z" transform="translate(-2.59 -3.62)"/><path class="cls-1" d="M46.14,73.31a.52.52,0,0,0,.52.52v0a.53.53,0,0,0,.52-.52l0-6.72a3.47,3.47,0,1,0-6.93,0v6.74a.52.52,0,0,0,.52.52.52.52,0,0,0,.52-.52V66.56a2.43,2.43,0,1,1,4.85,0v0Z" transform="translate(-2.59 -3.62)"/><path class="cls-1" d="M53.14,80.28V58.51a.52.52,0,0,0-.52-.52.52.52,0,0,0-.52.52V80.28a.53.53,0,0,0,.52.52A.52.52,0,0,0,53.14,80.28Z" transform="translate(-2.59 -3.62)"/><path class="cls-1" d="M43.22,66.51v6.8a.52.52,0,1,0,1,0v-6.8a.52.52,0,1,0-1,0Z" transform="translate(-2.59 -3.62)"/><path class="cls-1" d="M31.4,52.62V73.31a.52.52,0,0,0,1,0V52.62a.52.52,0,0,0-1,0Z" transform="translate(-2.59 -3.62)"/><path class="cls-1" d="M34.33,73.31a.51.51,0,0,0,.51.52v0a.52.52,0,0,0,.52-.52l0-20.61a3.47,3.47,0,1,0-6.92,0V73.31a.52.52,0,1,0,1,0V52.68a2.44,2.44,0,1,1,4.86,0v0Z" transform="translate(-2.59 -3.62)"/><path class="cls-1" d="M54.27,135.51a.58.58,0,0,0-.58-.58H35.48a.58.58,0,0,0,0,1.16H53.69A.58.58,0,0,0,54.27,135.51Z" transform="translate(-2.59 -3.62)"/><path class="cls-1" d="M57,142.39H53.37c.86.18,1.72.35,2.6.51h0l1.51-.29A.57.57,0,0,0,57,142.39Z" transform="translate(-2.59 -3.62)"/><path class="cls-1" d="M82.55,77.76a.58.58,0,0,0-.58-.59H64.91a.59.59,0,0,0,0,1.17H82A.58.58,0,0,0,82.55,77.76Z" transform="translate(-2.59 -3.62)"/><path class="cls-1" d="M85.31,69.71H68.25a.58.58,0,0,0,0,1.16H85.31a.58.58,0,1,0,0-1.16Z" transform="translate(-2.59 -3.62)"/><path class="cls-1" d="M64.91,63.41H82a.58.58,0,0,0,0-1.16H64.91a.58.58,0,0,0,0,1.16Z" transform="translate(-2.59 -3.62)"/><path class="cls-1" d="M58.5,53a.52.52,0,0,0,.52-.52V45a.52.52,0,0,0-1,0v7.5A.51.51,0,0,0,58.5,53Z" transform="translate(-2.59 -3.62)"/><path class="cls-1" d="M39.94,37.25h0V37.1a11.59,11.59,0,0,0-22.35-4.32l0,0h-.05a1.83,1.83,0,0,0-.78,3.33l.05,0v.06c0,.31,0,.59,0,.84a11.66,11.66,0,0,0,9,11.29l.06-.09a7.13,7.13,0,0,1,.73-1A10.43,10.43,0,0,1,18,37.1c0-.19,0-.38,0-.55v-.07l.08,0a1.81,1.81,0,0,0,1.52-1.8,1.84,1.84,0,0,0-.76-1.49l-.06,0,0-.07a10.35,10.35,0,0,1,19.89,4c0,.14,0,.29,0,.43A7.41,7.41,0,0,1,39.94,37.25ZM17.78,35.46a.81.81,0,1,1,.8-.8A.8.8,0,0,1,17.78,35.46Z" transform="translate(-2.59 -3.62)"/><path class="cls-1" d="M23.25,37.1A5.1,5.1,0,1,0,28.35,32,5.1,5.1,0,0,0,23.25,37.1Zm9,0a3.86,3.86,0,1,1-3.85-3.85A3.85,3.85,0,0,1,32.2,37.1Z" transform="translate(-2.59 -3.62)"/><path class="cls-1" d="M9.57,51A23.06,23.06,0,0,1,5,37.1a23.36,23.36,0,0,1,45.51-7.44A6,6,0,0,1,51.9,30,24.61,24.61,0,0,0,3.74,37.1,24.32,24.32,0,0,0,8.61,51.76Z" transform="translate(-2.59 -3.62)"/><path class="cls-1" d="M5.75,83c2.43-1.62,5.59-1,7.48-4.28a10.18,10.18,0,0,1,.65,3l.12-.06.77-.64h0c-.37-1.46-.56-3-1-4.46-.34.48-1,.37-1.53.46a6.82,6.82,0,0,1,.62,1C9.94,77.9,7.3,80,5.75,83Z" transform="translate(-2.59 -3.62)"/><path class="cls-1" d="M79.78,31c-3-.09-2.26,5.65-.57,7.3C79,35.66,80,34,80.2,31.7A.61.61,0,0,0,79.78,31Z" transform="translate(-2.59 -3.62)"/><path class="cls-1" d="M74,31.92c-.83,0-1.5.46-1.38,1.3s1.61,1.69,2.3,2.55a32.08,32.08,0,0,0,2.11,3C77.23,35.89,76,31.93,74,31.92Z" transform="translate(-2.59 -3.62)"/><path class="cls-1" d="M83.74,32.42a.8.8,0,0,0-.31-.93c-2.35-.93-3.51,5.66-1.71,7.41C81.94,36.42,83.28,34.74,83.74,32.42Z" transform="translate(-2.59 -3.62)"/><path class="cls-1" d="M68.78,35.87c.2,1.51,2.82,1.5,4,2.14,1.32.73,1.48,1.63,2.54,2.38-.2-3.13-2.76-5.86-4.74-5.88C69.31,34.49,68.67,35.09,68.78,35.87Z" transform="translate(-2.59 -3.62)"/><path class="cls-1" d="M86.69,32.44c-.87-.29-1.45.47-1.76,1-.8,1.33-1.47,4.56-.67,6.26.5-2.5,2.36-4,2.63-6.71C86.86,32.62,86.76,32.49,86.69,32.44Z" transform="translate(-2.59 -3.62)"/><path class="cls-1" d="M87.84,34.79a6.23,6.23,0,0,0-1.42,5.85c.57-2.5,2.8-3.82,4-5.86.22-.43.07-.64,0-.69C89.57,33.44,88.42,34.21,87.84,34.79Z" transform="translate(-2.59 -3.62)"/><path class="cls-1" d="M93.09,37c-2.87-.89-5.33,2.86-5.8,4.86,1-.59,2-1.59,3.22-2.28.95-.52,2.41-.74,2.9-1.68A.65.65,0,0,0,93.09,37Z" transform="translate(-2.59 -3.62)"/><path class="cls-1" d="M87.9,43.06c2.31-.85,4.12-.41,6.12-.37,0,0,1,0,1.12-.67C95.57,39.28,88.3,41,87.9,43.06Z" transform="translate(-2.59 -3.62)"/><path class="cls-1" d="M68.05,48.16c1.74,0,3-2.69,5.5-2.27-1.14-1.71-7.52-1-6.69,1.54A1.16,1.16,0,0,0,68.05,48.16Z" transform="translate(-2.59 -3.62)"/><path class="cls-1" d="M94,48.29a1.29,1.29,0,0,0,.4-1.29c-.88-3-4.41-3.86-7.31-2.33,1.41.37,2.7.22,4.09,1.31C92.14,46.72,93,49,94,48.29Z" transform="translate(-2.59 -3.62)"/><path class="cls-1" d="M72.28,49.45a6.8,6.8,0,0,1,3.57-1.81c-2-2.12-8.33,1-6.54,3.25C70.45,52.3,71.66,50.1,72.28,49.45Z" transform="translate(-2.59 -3.62)"/><path class="cls-1" d="M73.69,54.44c1.69.64,1.62-1.87,1.82-2.75a6.81,6.81,0,0,1,2.15-3.37C74.88,47.49,71,53.43,73.69,54.44Z" transform="translate(-2.59 -3.62)"/><path class="cls-1" d="M88.72,49.48c.61,1.15.76,2.74,1.89,2.48,1.69-.38.08-3.75-.77-4.54a5.18,5.18,0,0,0-4.46-1.12c-.08,0-.15.05-.11.15A7.16,7.16,0,0,1,88.72,49.48Z" transform="translate(-2.59 -3.62)"/><path class="cls-1" d="M84.64,49.52h0a25.52,25.52,0,0,0,1.17,3.75.65.65,0,0,0,1,.13c1.83-1.94-.93-6.41-3.41-5.75C83.38,47.66,84.21,48,84.64,49.52Z" transform="translate(-2.59 -3.62)"/><path class="cls-1" d="M82.66,55c2.19-.35.41-6.13-1-6.91C81.13,49.06,80.48,55.32,82.66,55Z" transform="translate(-2.59 -3.62)"/><path class="cls-1" d="M78.22,55.26c2.19.34,2.27-5.71,1.14-6.89C78.58,49.16,76,54.92,78.22,55.26Z" transform="translate(-2.59 -3.62)"/><path class="cls-1" d="M87.61,14.43a5.84,5.84,0,0,1-1.41-2.18H85.07A3.36,3.36,0,0,0,87.61,14.43Z" transform="translate(-2.59 -3.62)"/><path class="cls-1" d="M91.55,13.91a3.71,3.71,0,0,0,2.23-1.66h-2.1A3.45,3.45,0,0,0,91,13.53C91,13.64,91,14,91.55,13.91Z" transform="translate(-2.59 -3.62)"/><path class="cls-1" d="M90.49,16.7a9.12,9.12,0,0,1-1-4.45H88.09A6.5,6.5,0,0,0,90.49,16.7Z" transform="translate(-2.59 -3.62)"/><path class="cls-1" d="M103.59,15.14a4.32,4.32,0,0,0,2.69-2.89h-1.64a3,3,0,0,1-1.18,1.34c-2.23,1.26-5-.12-6.61-1.11C98.25,14.5,100.42,16.1,103.59,15.14Z" transform="translate(-2.59 -3.62)"/><path class="cls-1" d="M74.54,20.18c1.17.45,2.9.13,2.55-1.52-1.45.92-1.55-.18-1.55-.18h0c-.86-3.34,8.64-3.35,10-3.21-2.94-1.74-12.26-1.8-12,3.45A1.67,1.67,0,0,0,74.54,20.18Z" transform="translate(-2.59 -3.62)"/><path class="cls-1" d="M92.71,17.65c1.87-.49,2.94-3.22,2.49-5.4h-.32a6.26,6.26,0,0,1-.43,1.55c-.59,1.31-2,2-2.29,3.53C92.15,17.41,92.18,17.76,92.71,17.65Z" transform="translate(-2.59 -3.62)"/><path class="cls-1" d="M85.43,16.24c-1.39.17-3.22.7-3.38,2.21,0,.1.13.25.43.29.78,0,1.39-.7,2.29-.95a9.33,9.33,0,0,1,6.44.88A6.15,6.15,0,0,0,85.43,16.24Z" transform="translate(-2.59 -3.62)"/><path class="cls-1" d="M95.21,19.21c1.35-.09,1.55-2.89.65-4.08,0,1.47-.82,2.32-1.09,3.57A.48.48,0,0,0,95.21,19.21Z" transform="translate(-2.59 -3.62)"/><path class="cls-1" d="M100.19,16.76h0l-.22-.08a10,10,0,0,1-2-1l-.76-.41a.26.26,0,0,0,0,.14c1.7,4.91,12.1,4.45,11.49-1.07-.27-.58-.68-.34-.81-.25-1.06.9-1.72,2.2-3.37,2.7A7,7,0,0,1,100.19,16.76Z" transform="translate(-2.59 -3.62)"/><path class="cls-1" d="M82.31,19.52a7.1,7.1,0,0,0-5.38,6.94c.1,1.61.83,4,2.27,3.29,1.08-.51-.13-2.52-.16-4C79,23,81.14,21,82.46,19.63,82.44,19.55,82.42,19.48,82.31,19.52Z" transform="translate(-2.59 -3.62)"/><path class="cls-1" d="M84.17,29.69c3.68.49,4.09-5.07.77-4.72.29.56,1.07,1.69,0,2.11a1.26,1.26,0,0,1-1.57-.78c-1.48-3.41,2.82-6.11,5.21-7.18C82.17,18.29,78.41,28,84.17,29.69Z" transform="translate(-2.59 -3.62)"/><path class="cls-1" d="M105.6,20.83c-3.31.5-5.78-1.2-7.78-2.62a8.3,8.3,0,0,0,8.08,4.4,9.08,9.08,0,0,0,2.84-.73V19.64A10,10,0,0,1,105.6,20.83Z" transform="translate(-2.59 -3.62)"/><path class="cls-1" d="M91,19.76c-.82.2-1.76.5-1.71,1.51a1.08,1.08,0,0,0,.41.63c.62.29,1.48-.21,2.13-.32a9.21,9.21,0,0,1,8,2.57C98.76,21,94.76,18.82,91,19.76Z" transform="translate(-2.59 -3.62)"/><path class="cls-1" d="M98.77,24.6C96,22.42,89.22,22.83,88.7,26.94c0,.19.07.95,1.13.76,1.31-.33,2.21-2.05,3.8-2.49,2.89-.8,5,.51,6.87,1.85A7.51,7.51,0,0,0,98.77,24.6Z" transform="translate(-2.59 -3.62)"/><path class="cls-1" d="M103.69,23.87c-1.93,0-2.21,3.33-1.51,5.4.08-2,1.27-3.29,1.65-5.12A.22.22,0,0,0,103.69,23.87Z" transform="translate(-2.59 -3.62)"/><path class="cls-1" d="M91.6,28.7c-1.38,2.15.14,6.57,3.73,5,1.22-.53,1.73-3,0-3.14a1.24,1.24,0,0,1-2.38.66c-1-2.55,2-3.2,4.13-3.07h0a6.71,6.71,0,0,1,3.54,1.12C99,26.31,93.56,25.64,91.6,28.7Z" transform="translate(-2.59 -3.62)"/><path class="cls-1" d="M106.48,25.88c-2.56.26-3.74,3.88-3.49,6.66.71-1.14.91-2.36,1.65-3.43s1.94-1.65,2.17-2.93C106.87,25.92,106.62,25.88,106.48,25.88Z" transform="translate(-2.59 -3.62)"/><path class="cls-1" d="M97.69,31.23c-.07.11-.19.4.31.58a2.16,2.16,0,0,0,.42.1l.34,0c.83,0,2.54-.28,3.72,1.47C102.19,31.42,98.86,29.63,97.69,31.23Z" transform="translate(-2.59 -3.62)"/><path class="cls-1" d="M104.28,37.82a8.89,8.89,0,0,1,2.09-5.46c.63-.68,1.71-1.1,2.06-2a.48.48,0,0,0-.36-.71C105,29.13,102.71,34.78,104.28,37.82Z" transform="translate(-2.59 -3.62)"/><path class="cls-1" d="M103,38.19c-.31-1.87-1.72-4.94-2.91-4.78a.73.73,0,0,0-.44.41,1.33,1.33,0,0,0,0,.52c.45,1.58,2,3,2.25,5a19,19,0,0,1-.16,3.69A6,6,0,0,0,103,38.19Z" transform="translate(-2.59 -3.62)"/><path class="cls-1" d="M100.38,44.11c1.93-2.11.16-7.08-2-8.17-.6-.3-1.33-.31-1.63.11-.06.12-.13.44.3,1,.91,1.11,2.48,1.81,3,3.46A18.85,18.85,0,0,1,100.38,44.11Z" transform="translate(-2.59 -3.62)"/><path class="cls-1" d="M106,38.59c1.25-.91,2.26-.2,2.26.93,0,1.84-3.83,2.56-5,3.47a10.2,10.2,0,0,0,5.55-1.66V37C107.52,36.5,105.76,36.84,106,38.59Z" transform="translate(-2.59 -3.62)"/><path class="cls-1" d="M96.34,43.38c3-2.67,1.66,3.29.45,4.12,1.33-.77,3.52-3.07,2.68-5.53C98.85,40.2,95.33,40.79,96.34,43.38Z" transform="translate(-2.59 -3.62)"/><path class="cls-1" d="M99.88,45.91c2.48-.7,4.7-.86,6.39-.17.82.34,1.55,1.27,2.47,1.32v-2C106.82,43.06,101.68,43.88,99.88,45.91Z" transform="translate(-2.59 -3.62)"/><path class="cls-1" d="M107,50.73h0c.22,0,.62-.16.66-.8,0-1.25-1.36-2.18-2.34-2.72a7.72,7.72,0,0,0-9,1.79c2.78-1.14,5.38-1.44,7.41-.34,1.17.63,2,2.05,3.18,2.07Z" transform="translate(-2.59 -3.62)"/><path class="cls-1" d="M103.31,51.19c-.49-2.41-3.81-2.27-6.33-1.34l-.44.18h0a5.43,5.43,0,0,0-2.84,2.55,9.69,9.69,0,0,1,4.93-1.88c1.64-.07,2.88,1.11,4.32,1.17C103,51.87,103.4,51.77,103.31,51.19Z" transform="translate(-2.59 -3.62)"/><path class="cls-1" d="M96.34,54a1.36,1.36,0,0,0-.46.8.94.94,0,0,0,.39.9c1,.62,2.14,1,3.11,1.64h0a4.63,4.63,0,0,1,2.21,2.74,6.42,6.42,0,0,0-.35-3.57C100.52,55,97.87,53,96.34,54Z" transform="translate(-2.59 -3.62)"/><path class="cls-1" d="M104.51,54.07c-.75-1-1.62-1.16-2.19-.59-1.09,1.08.52,3.18.71,4.5,0,.07,0,.13,0,.2h0v.18c0,.11,0,.22,0,.33a7.61,7.61,0,0,1-.39,2.79C105.07,59.4,105.7,55.67,104.51,54.07Z" transform="translate(-2.59 -3.62)"/><path class="cls-1" d="M106.32,59.4a5.63,5.63,0,0,1-2.75,3c1.6.81,4.07-.83,5.17-2.57V57.08l-.11-.08C107.06,56.06,106.67,58.57,106.32,59.4Z" transform="translate(-2.59 -3.62)"/><path class="cls-1" d="M66.1,43.5a.71.71,0,0,0,.79.73,4,4,0,0,0,1-.13h0a9.68,9.68,0,0,1,2.36-.28h0a12.38,12.38,0,0,1,2.88.27,5.64,5.64,0,0,0-4.66-2.29C67.45,41.91,66.18,42.32,66.1,43.5Z" transform="translate(-2.59 -3.62)"/><path class="cls-1" d="M66.92,39A1,1,0,0,0,67,40a1.57,1.57,0,0,0,.78.39,36.19,36.19,0,0,1,3.75.63h0A4.29,4.29,0,0,1,74,42.75a6.32,6.32,0,0,0-1.48-3.22C71.25,38.29,67.83,37.21,66.92,39Z" transform="translate(-2.59 -3.62)"/><path class="cls-1" d="M108.39,87.76c-.35-.6-2.16-.88-2.53-.93a2.33,2.33,0,0,0-.36,0,11.54,11.54,0,0,0,.75-3.89c-1.61-.12-2.49.73-3.79,1a3.77,3.77,0,0,0-1.1-3.12c-.67.87-1.58,1.41-2.25,2.27a7.77,7.77,0,0,0-2.18-2.93c-.62.65-.75,2-1.42,2.57a14.4,14.4,0,0,0-2.42-1.22c-.58.79-.16,2-.26,2.91-.69,0-1.49-.25-2.21-.34V81.89a1.89,1.89,0,0,1,.27-.72,1.69,1.69,0,0,1,2.92,0,1.35,1.35,0,0,0,.11-1.56,2,2,0,0,0-2-.89h0a2.19,2.19,0,0,1-.9-.06,1,1,0,0,1,0-1.72c.79,2.38,4.09-.08,1.94-1.58l.77-.71a9.47,9.47,0,0,0,.71,2.55s.71.17,1.84-1.31a4.78,4.78,0,0,0,1.41,1.56,1.6,1.6,0,0,0,.21-.23l0,0a9,9,0,0,0,.88-1.65c.56.63,1.15.64,1.72.92a4.61,4.61,0,0,0,.38-2.12,8.42,8.42,0,0,0,2.88.23c.32-.46.11-.94-.13-1.43h0l-.08-.15h0c-.11-.27-.23-.54-.33-.76a13.71,13.71,0,0,1,1.28,1.86c1.05,1.86,1.15,5-.75,4.83.19-.56.68-.83.56-1.34-.66-2.74-5.23-.71-3.07,2,.57.73,1.21.67,2.15,1,.09,1.06,1,2.53,2.16,1.76-1.9-1.91.86-3.22,1.23-4.78,1.08.15,2.35-.94,1.6-2.06-1.19,1.24-1.75,0-2.3-1.37h0l-.1-.25a13.23,13.23,0,0,0-1.64-2.6l.41-.22-.07-.36a3,3,0,0,0-1.23-1.35,8.76,8.76,0,0,0,2.32-1.94l-.08-.06h0l-.17-.14-.2-.14a6.17,6.17,0,0,0-2.28-.9,2.89,2.89,0,0,0,.86-2.38c-.82.2-1.62.07-2.43.26a5.94,5.94,0,0,0,.13-2.78,5.62,5.62,0,0,0-2.08.82,4.72,4.72,0,0,0-.84-1.9,1.07,1.07,0,0,0-.24.1h0a3.35,3.35,0,0,0-1.25,1.45s0,0,0,0a3.65,3.65,0,0,0-2-1.86s-.27.5-.53,1.13a8.24,8.24,0,0,0-.47,1.51A7.16,7.16,0,0,0,92,61.8a.21.21,0,0,0-.22.11,2.24,2.24,0,0,0-.07,1A9.85,9.85,0,0,1,90.5,62a.08.08,0,0,0,0,0l-.11-.1c-1.83-1.68-3.26-4.8-.84-5.77a1.13,1.13,0,0,1,1.45.81c-2.37,2.09,1.1,3.83,2.47,2.72s1.11-3.61-.33-4.84a2,2,0,0,0-.43-.31l-.25-.13c-.58-.23-3-.93-5.26,2h0c-.15.31-.32.61-.49.89a1.81,1.81,0,0,0-2.13.14,1.13,1.13,0,0,0-.41.36l0,0a1.87,1.87,0,0,0-.34.57,3.15,3.15,0,0,0-.13.41,4.39,4.39,0,0,0-1.47-.27H65V44.81a6.53,6.53,0,0,0-6.45-6.59,6.19,6.19,0,0,0-2.33.45l-.13,0V36.84a6.42,6.42,0,1,0-12.84,0v1.57l-.13,0a6.39,6.39,0,0,0-2.27-.43,6.51,6.51,0,0,0-6.42,6.57v1.88l-.13-.05a6.23,6.23,0,0,0-2.33-.45,6.54,6.54,0,0,0-6.45,6.59v1.18h-.1a4.59,4.59,0,0,1-.6-.08,16.85,16.85,0,0,1,3.58-33.32l.52,0h0l.06,0v.06a2.65,2.65,0,0,0,5,.95l0-.07.08,0a17,17,0,0,1,10.32,10.6,4.72,4.72,0,0,1,1-.94A18,18,0,0,0,34.32,20l-.07,0v-.07a2.65,2.65,0,0,0-5.07-1l0,.06h-.81a18.08,18.08,0,0,0-3.63,35.8l.08,0,.59.08h.08v.83c-2.87-.61-4.38.4-6,1.52S15.9,58.92,14.64,60a15.2,15.2,0,0,1-1-4.53c.69,1.07,2.28,3,3.88,2.09-1.09-1-1.76-2.9-4-2.88-.73,1.68.55,3.86.48,5.16-.17-1.17-1.52-1.65-.72-3.09-.54-1.09-1.5-1.94-1.57-3.31.56.44.39,1.3.91,1.77-.08-1.63-.75-3.49-2.25-3.65-1-.11-1.85,1.27-2.78,1.87-1.36.87-2.7,1.19-3.25,1.89a8.1,8.1,0,0,0-1.21,0v5.76c2.12-2,4.69-4.26,4.71-7.45.87-.64,1.6-1.53,2.74-1.72,1.21.71.75,2.38,1.39,3.42C9.53,55,7.94,57.4,7.15,59.37a55.19,55.19,0,0,0,5-2.34c.56.88,1.39,1.61,1.4,2.82-4.27-.41-6.46,3.84-8.78,6.09A72.57,72.57,0,0,1,11.7,63a28.65,28.65,0,0,0-4.78,7.15,7.7,7.7,0,0,1,1.95-1.63c.43,1,1.56,1.77,1.61,3.17s-1,2.69-.62,4.11a7.31,7.31,0,0,1,1.63-2.16c0,1.08.9,1.65.61,2.91A1.43,1.43,0,0,0,13.94,76a7.2,7.2,0,0,1-2-3.57A8.72,8.72,0,0,0,13.22,70c.32.5.79.91.81,1.59-.15.5-.86,1.14-.59,1.67a1.64,1.64,0,0,1,1.11-.77,10.46,10.46,0,0,0,.52,2h1.18a24.47,24.47,0,0,1-1-2.71c.78-.4,1.28-1.26,2.1-1.58a9.56,9.56,0,0,1,1.1,4.29H19.7a1.06,1.06,0,0,1-.14-.65c1.24-1.25,2.37-2.71,3.63-3.93,0,0,1.37-1.87,2.28-2.91v6.37a.52.52,0,0,0,.52.52.52.52,0,0,0,.52-.52V52.46a5.41,5.41,0,1,1,10.82,0v7.66a.52.52,0,0,0,1,0V44.69A2.5,2.5,0,0,1,40.8,42a2.45,2.45,0,0,1,2.4,2.19v8.24a.36.36,0,0,0,0,.14v7.19h-.09a6.28,6.28,0,0,0-1.67.41l-.13,0V44.63a.52.52,0,1,0-1,0V60.8l0,0a6.63,6.63,0,0,0-3,5.53v7a.52.52,0,0,0,1,0v-7a5.41,5.41,0,1,1,10.82,0v7a.52.52,0,1,0,1,0V58.57a2.49,2.49,0,0,1,2.43-2.65A2.45,2.45,0,0,1,55,58.26h0v.25h0v23a.65.65,0,0,0,.28.54l.08,0,.14,0h7.11v3.09h-.1c-8.15-.48-12-3.32-12.42-3.64l0,0V75.82a.52.52,0,0,0-.53-.52H16.18a.52.52,0,0,0-.53.52v5.66l0,0c-.73.56-4.65,3.32-12.42,3.79v1.07h0c9.21-.55,13.29-4.22,13.33-4.26a.52.52,0,0,0,.17-.39V76.36H49v5.36a.52.52,0,0,0,.17.39s4.1,3.56,13.33,4.11h.09v1h-.1c-8.83-.16-13.86-3.69-14.78-4.39l0,0V78.2a.53.53,0,0,0-.53-.53H18.56a.53.53,0,0,0-.53.53v4.63l0,0c-.92.7-5.95,4.23-14.78,4.39h0v1.07h0c.93,0,1.85-.07,2.74-.16h.11v1.6l-.12,0c-1.4-.25-2.32-.45-2.74-.55v1.08c1.1.25,3.53.74,7.34,1.22h.06l.57.07v21.15l-.17-.06a1.14,1.14,0,0,1-.26-.09l-.91-.46a3.52,3.52,0,0,0-1.47-.34c.28.49.57,1,.88,1.47h0l.91.46a3.5,3.5,0,0,0,3,0l.92-.46a2.16,2.16,0,0,1,1.86,0l.91.46a3.52,3.52,0,0,0,3,0l.91-.46a2,2,0,0,1,.91-.22,2.18,2.18,0,0,1,.91.22l.91.46a3.37,3.37,0,0,0,1.5.35h0a3.37,3.37,0,0,0,1.5-.35l.91-.46a2,2,0,0,1,1.82,0l.91.46a3.5,3.5,0,0,0,3,0l.92-.46a2.16,2.16,0,0,1,1.86,0l.91.46a3.52,3.52,0,0,0,3,0l.88-.44.06,0a2.08,2.08,0,0,1,.92-.22,2,2,0,0,1,.91.22h0l.91.46a3.5,3.5,0,0,0,3,0l.92-.46a2.16,2.16,0,0,1,1.86,0l.91.46a3.5,3.5,0,0,0,3,0l.92-.46a2.16,2.16,0,0,1,1.86,0l.92.46a3.5,3.5,0,0,0,3,0l.91-.46a2.17,2.17,0,0,1,1.66-.09l.06,0v1.4l-.11,0a3.48,3.48,0,0,0-2.18.28l-.91.46a2.16,2.16,0,0,1-1.86,0l-.92-.46a3.5,3.5,0,0,0-3,0l-.91.46a2.16,2.16,0,0,1-1.86,0l-.92-.46a3.5,3.5,0,0,0-3,0l-.91.46a2.19,2.19,0,0,1-1.87,0l-.91-.46a3.45,3.45,0,0,0-1.54-.35,3.37,3.37,0,0,0-1.5.35l-.91.46a2.16,2.16,0,0,1-1.86,0l-.92-.46a3.5,3.5,0,0,0-3,0l-.91.46a2.16,2.16,0,0,1-1.86,0l-.81-.41a.18.18,0,0,0-.07,0,3.3,3.3,0,0,0-1.49-.35h-.05a3.37,3.37,0,0,0-1.5.35l-.91.46a2,2,0,0,1-1.82,0l-.92-.46a3.33,3.33,0,0,0-1.49-.35h-.06a3.36,3.36,0,0,0-1.49.35s0,0,0,0l0,0h0l-.79.4a2.16,2.16,0,0,1-1.86,0l-.92-.46a3.5,3.5,0,0,0-3,0l-.91.46a2.19,2.19,0,0,1-1.87,0l-.26-.13c.36.53.73,1.06,1.12,1.6a3.46,3.46,0,0,0,1.57-.33l.92-.46A2.16,2.16,0,0,1,16,116l.92.46a3.5,3.5,0,0,0,3,0l.91-.46a2.07,2.07,0,0,1,.91-.22,2.14,2.14,0,0,1,.91.22l.92.46a3.36,3.36,0,0,0,1.49.35h0a3.37,3.37,0,0,0,1.5-.35l.91-.46a2.07,2.07,0,0,1,.91-.22,2,2,0,0,1,.91.22l.92.46a3.5,3.5,0,0,0,3,0l.91-.46A2.16,2.16,0,0,1,36,116l.92.46a3.5,3.5,0,0,0,3,0l.89-.44.06,0a2,2,0,0,1,.91-.22,2,2,0,0,1,.91.22h0l.91.46a3.5,3.5,0,0,0,3,0l.91-.46a2.16,2.16,0,0,1,1.86,0l.92.46a3.5,3.5,0,0,0,3,0l.91-.46a2.16,2.16,0,0,1,1.86,0l.92.46a3.5,3.5,0,0,0,3,0l.91-.46a2.17,2.17,0,0,1,1.66-.09l.06,0v1.39l-.11,0a3.46,3.46,0,0,0-2.15.28l-.91.46a2.16,2.16,0,0,1-1.86,0l-.92-.46a3.5,3.5,0,0,0-3,0l-.91.46a2.19,2.19,0,0,1-1.87,0l-.91-.46a3.33,3.33,0,0,0-1.49-.35h0a3.37,3.37,0,0,0-1.5.35l-.91.46a2.16,2.16,0,0,1-1.86,0l-.92-.46a3.5,3.5,0,0,0-3,0l-.91.46a2.16,2.16,0,0,1-1.86,0l-.81-.41-.07,0a3.3,3.3,0,0,0-1.49-.35h-.06a3.33,3.33,0,0,0-1.49.35l-.91.46a2.22,2.22,0,0,1-.91.22,2.18,2.18,0,0,1-.91-.22l-.92-.46a3.33,3.33,0,0,0-1.49-.35h-.06a3.3,3.3,0,0,0-1.49.35.07.07,0,0,0,0,0v0h0L26,118a2.16,2.16,0,0,1-1.86,0l-.92-.46a3.5,3.5,0,0,0-3,0l-.91.46a2.19,2.19,0,0,1-1.87,0l-.91-.46a3.5,3.5,0,0,0-3,0,.64.64,0,0,0-.28.86.66.66,0,0,0,.85.28,2.16,2.16,0,0,1,1.86,0l.92.46a3.5,3.5,0,0,0,3,0l.91-.46a2.16,2.16,0,0,1,1.86,0l.92.46a3.5,3.5,0,0,0,3,0l.91-.46a2,2,0,0,1,1.82,0l.91.46a3.37,3.37,0,0,0,1.5.35h.05a3.37,3.37,0,0,0,1.5-.35l.91-.46a2.22,2.22,0,0,1,.91-.22,2.18,2.18,0,0,1,.91.22l.92.46a3.5,3.5,0,0,0,3,0l.91-.46a2.16,2.16,0,0,1,1.86,0l.92.46a3.5,3.5,0,0,0,3,0l.88-.44.07,0a2,2,0,0,1,1.82,0h0l.92.46a3.5,3.5,0,0,0,3,0l.92-.46a2.16,2.16,0,0,1,1.86,0l.92.46a3.5,3.5,0,0,0,3,0l.91-.46a2.1,2.1,0,0,1,1.63-.09l.06,0V120l-.11,0a3.46,3.46,0,0,0-2.15.28l-.91.46a2.19,2.19,0,0,1-1.87,0l-.91-.46a3.5,3.5,0,0,0-3,0l-.91.46a2.19,2.19,0,0,1-1.87,0l-.91-.46a3.37,3.37,0,0,0-1.5-.35h0a3.37,3.37,0,0,0-1.5.35l-.91.46a2.16,2.16,0,0,1-1.86,0l-.92-.46a3.5,3.5,0,0,0-3,0l-.91.46a2.16,2.16,0,0,1-1.86,0l-.81-.41-.07,0a3.48,3.48,0,0,0-3,0l-.91.46a2.07,2.07,0,0,1-.91.22,2,2,0,0,1-.91-.22l-.92-.46a3.33,3.33,0,0,0-1.49-.35h-.05a3.37,3.37,0,0,0-1.5.35l0,0,0,0h0l-.79.4a2.16,2.16,0,0,1-1.86,0l-.92-.46a3.5,3.5,0,0,0-3,0l-.91.46a2.19,2.19,0,0,1-1.87,0l-.91-.46a3.44,3.44,0,0,0-1.5-.34,3.35,3.35,0,0,0-.89.12l1,1.16a2.11,2.11,0,0,1,.83.2l.92.46a3.5,3.5,0,0,0,3,0l.91-.46a2.16,2.16,0,0,1,1.86,0l.92.46a3.5,3.5,0,0,0,3,0l.91-.46a2,2,0,0,1,1.82,0l.91.46a3.44,3.44,0,0,0,1.5.35h0a3.38,3.38,0,0,0,1.51-.35l.91-.46a2,2,0,0,1,1.82,0l.92.46a3.5,3.5,0,0,0,3,0l.91-.46a2.16,2.16,0,0,1,1.86,0l.92.46a3.5,3.5,0,0,0,3,0l.89-.44.06,0a2.18,2.18,0,0,1,.91-.22,2.22,2.22,0,0,1,.92.22h0l0,0,.93.47a3.48,3.48,0,0,0,3,0l.92-.46a2.16,2.16,0,0,1,1.86,0l.92.46a3.5,3.5,0,0,0,3,0l.91-.46a2.14,2.14,0,0,1,1.63-.09l.06,0v2.37H30.34a4.32,4.32,0,1,0,0,8.63h2l-.15.16a4.38,4.38,0,0,0-1,1.69l1.05.59a3.14,3.14,0,0,1,3.06-2.44H57l-.16.16a4.3,4.3,0,0,0,0,6l.16.16H40.56c1,.4,2.13.79,3.24,1.16H60.37l-.15.17a4.28,4.28,0,0,0-1.15,2.3l1.26-.28a3.12,3.12,0,0,1,2.19-2.08l.12,0v1.56l1.26-.33V127L66.65,124v16.27l1.25-.41V122.72l2.75-2.91v19.12l1.26-.48V127.59H85.36v3.76c.43-.3.85-.59,1.26-.89V119.79l2.75,2.88v5.69l1.25-1.05V124l1.73,1.8c.31-.28.61-.57.91-.86l-2.64-2.76V97.34l.13,0c.28,1-.27,2.41.44,3a11,11,0,0,1,2.17-.34v3.2h0v6.06h0v15.5q.64-.63,1.26-1.26v-.34H95q.6-.63,1.17-1.26h-1.5v-3.11h4.13l1-1.25h-5.1V104.47H102a17.41,17.41,0,0,1,.87,1.72c1,2.37.69,6.19-1.55,5.68.3-.65.93-.9.85-1.53-.42-3.38-6.15-1.56-3.95,2,.58,1,1.36,1,2.44,1.46a3.37,3.37,0,0,0,.5,1.83,59.73,59.73,0,0,0,4.29-7.31,11.74,11.74,0,0,1-.88-2.47l-.27-.76a1.74,1.74,0,0,0,1-.54,1.5,1.5,0,0,0-.24-2c-.33,1.12-.87,1.17-1.18,1.09h-.06l-.05,0-.07,0,0,0h0a6.15,6.15,0,0,1-1.37-1.53,3.92,3.92,0,0,0,.62.29c.77-.53.38-2.23.77-2.83a6.46,6.46,0,0,0,2.72.4c.17-1.19-.49-1.76-.45-2.85a5.47,5.47,0,0,0,2.51-.49c-.18-1-1-1.61-1.37-2.47a4.55,4.55,0,0,1,1.69-1.12V90.55c-.91-.43-1.64-.71-1.64-.71C108.08,89.38,108.39,87.76,108.39,87.76ZM31.6,18.41A1.62,1.62,0,1,1,30,20,1.63,1.63,0,0,1,31.6,18.41ZM13,57.4a.8.8,0,0,1-.67-.94c.17,0,.19-.23.26-.39A1.31,1.31,0,0,1,13,57.4ZM10.79,70a13.31,13.31,0,0,1-.94-2.23c.46-.87,1.31-1.07,1.85-1.81C11.75,67.05,11,68.64,10.79,70Zm3.9.26c-.41-.45-.59-1-1-1.48.93-1.57,0-3.44.55-4.43.74-1.44,2.15.18,3.07,1.11C16.46,67,15.46,68.42,14.69,70.21Zm3-5.15c-.69-.08-1.22-1.21-2.21-1.5C16,62.59,17.87,64.13,17.73,65.06Zm1.76,8.4C19,72,18.75,70.5,18.36,69a20.11,20.11,0,0,0,3.31-4.48C22.36,67.17,19.57,70.18,19.49,73.46Zm4.24-9.73c-.68-.17-.76-.69-1.46-.84a8.31,8.31,0,0,0,.24-2.08C24.81,60.46,25.64,62.69,23.73,63.73Zm1.74-2.38c-1.06-.3-1.65-.91-2.38-1-2.35-.26-3.31,2.76-5,3.88a10.21,10.21,0,0,1-1.77-1.38c1.79-1.07,1.71-5.35,4.15-5.32-.93,1.13-2.14,3.66-1.89,5.46a12,12,0,0,0,2.54-5.6,9.87,9.87,0,0,0,4.35,2.68Zm0-2.64a5.24,5.24,0,0,0-.89,0c-.12-.62-.72-.95-.81-1.59a14.24,14.24,0,0,1,1.7,0ZM10.05,90.35H9.94c-1-.13-1.88-.26-2.75-.4l-.08,0V88H7.2c.91-.12,1.83-.29,2.73-.5l.12,0ZM30.34,131.2a3.16,3.16,0,0,1,0-6.31h30l-.15.17a4.29,4.29,0,0,0,0,6l.15.17Zm32.3,7.46H60a3.15,3.15,0,0,1,0-6.3h2.66Zm0-7.54-.12,0a3.15,3.15,0,0,1,0-6.09l.12,0Zm-3-43h.11c.88.09,1.8.14,2.73.16h.1v.84l-.08,0c-.42.1-1.34.3-2.75.55l-.11,0Zm-4-.65.12,0c.9.21,1.82.38,2.73.5h.08v1.89l-.08,0c-.86.14-1.78.27-2.74.4h-.11Zm-8-3.36.15.11a20,20,0,0,0,2.73,1.51l.06,0v5.12h-.09l-2.75.23h-.1Zm-3.57-5.41h2.51v12.5h-.09l-2.32.14h-.1ZM43.6,92.47h0c1.2-.06,2.39-.13,3.52-.21h.05c1.33-.09,2.66-.2,3.94-.32h.14l0,.1v11.59h-10v-11h.09l2.27-.1Zm-3-13.74h2.51V91.44H43l-2.32.1h-.1ZM40,92.63h.13v11H39v-11l1,0Zm-3-13.9H39.5V91.58h-.09l-2.32,0H37Zm-3.57,0h2.51V91.65h-.09l-2.32,0h-.1Zm-.53,14c1.64,0,3.3,0,4.92,0h.1v11H27.83v-11h.09c1.63,0,3.28,0,4.92,0Zm-3.09-14h2.52V91.67h-.1l-2.32,0h-.1Zm-3.57,0h2.52v12.9h-.1l-2.32,0h-.1Zm-.65,13.89h.17l1,0v11H25.58ZM22.66,78.73h2.52V91.54h-.1l-2.32-.1h-.1Zm-3.57,0h2.52V91.38H21.5l-2.32-.14h-.09Zm-4,7.06.06,0a19.91,19.91,0,0,0,2.72-1.51l.15-.11v7h-.1l-2.74-.23H15.1Zm-.62,6.14h.12c1.28.12,2.61.23,3.94.32h0c1.13.08,2.32.15,3.54.21h0l2.28.1h.09v11h-10ZM11.19,90.5h-.08V87.23l.07,0c.93-.26,1.85-.57,2.73-.91l.13-.06v4.57h-.1C13,90.71,12.08,90.61,11.19,90.5Zm2.23,1.31v11.81H12.23V91.68l.1,0,1,.1Zm0,20.34-.82.41a.85.85,0,0,1-.17.06l-.2.07V107h1.19Zm11.1.55-.19-.06-.2-.08-.92-.46a3.37,3.37,0,0,0-1.5-.35h-.05a3.4,3.4,0,0,0-1.5.35l0,0,0,0h0l-.79.4a2.15,2.15,0,0,1-.94.21,2.11,2.11,0,0,1-.93-.21l-.91-.46a3.43,3.43,0,0,0-1.93-.32l-.11,0V107h10Zm2.25-.55-.83.41a.85.85,0,0,1-.17.06l-.19.07V107h1.19Zm11.14.56-.15,0a1.76,1.76,0,0,1-.3-.1l-.91-.46a3.5,3.5,0,0,0-3,0l-.92.46a2.16,2.16,0,0,1-1.86,0l-.8-.41a.18.18,0,0,0-.07-.05,3.36,3.36,0,0,0-1.49-.35h-.06l-.42,0h-.1V107H37.91Zm2.25-.57-.83.42-.16.06-.07,0-.13,0V107h1.19Zm11.1.55-.19-.06-.19-.07L50,112.1a3.5,3.5,0,0,0-3,0l-.92.46a2.16,2.16,0,0,1-1.86,0l-.91-.46a3.48,3.48,0,0,0-1.54-.35l-.41,0h-.11V107h10Zm-39-6.73v-1.28H53.51V106Zm41.28,6.22-.77.38a1.14,1.14,0,0,1-.26.09l-.16.06V107h1.19Zm0-8.56H52.32V91.81h.08l1-.1.11,0ZM51.8,90.8h-.11V86.24l.14.06a28.17,28.17,0,0,0,2.73.91l.07,0v3.26h-.08C53.66,90.61,52.74,90.71,51.8,90.8Zm10.84,21-.12,0a3.38,3.38,0,0,0-2.17.28l-.91.46a2.12,2.12,0,0,1-.94.21,2.07,2.07,0,0,1-.92-.21l-.92-.46a3.51,3.51,0,0,0-2-.31l-.11,0v-7.32h8.07Zm0-8.6H54.57v-3.11h8.07Zm0-4.37H54.57V95.76h8.07Zm0-4.36H54.57v-3l.58-.07h.05c3.79-.48,6.21-1,7.32-1.21l.12,0ZM107.25,88a5.51,5.51,0,0,1-5,2.21C103.14,88.45,104.84,87.74,107.25,88Zm-7,3.65c.33-1.1,2.76-.66,3.47,0C103.31,92.75,100.93,92.58,100.28,91.65Zm1.51,3.87a2.16,2.16,0,0,1-2.22-2.58A2.47,2.47,0,0,1,101.79,95.52Zm3.55-11.11a6.24,6.24,0,0,1-2,3.35c-.44-.09-.25-.62-.19-1.07-.56-.08-.72.38-1.41.13C102.42,85.48,103.8,84,105.34,84.41Zm-3.1,3.37a2.88,2.88,0,0,1-2.71,3.07A2.86,2.86,0,0,1,102.24,87.78Zm-1.36-4.9c.93,1.38.11,4.44-1.41,4.83A5.9,5.9,0,0,1,100.88,82.88ZM98.5,101.29c-1.09-.55-1.07-1.93-1.07-3.29.45-.35.41.34.8.47.32-.11.4-.55.63-.78C99.63,98.24,99.06,100.68,98.5,101.29ZM98.62,97c-1.23,0-1.56-2.52-.66-3.74C99.4,93.48,99.2,95.7,98.62,97Zm.15-4.49a2.55,2.55,0,0,1-1.19-.18C97.43,90.17,99.87,91,98.77,92.47ZM98.44,90c-1.38-.29-1.24-2.16-.71-3.4C98.82,87,99.15,88.73,98.44,90Zm-1.56-8.22c1.4.58,1.36,2.22,1.34,3.85-.32-.28-1-.82-.9.21C96.35,85.09,96.58,83.46,96.88,81.77ZM94.54,88.2a2.72,2.72,0,0,1,2.59,2.46A2.84,2.84,0,0,1,94.54,88.2Zm2.07,3.6c-.49,1.06-2.29,1.16-3.55.52C93.62,91.42,95.35,91.1,96.61,91.8ZM96.48,88a5,5,0,0,1-2.57-4.89C95.45,84.19,96.85,85.42,96.48,88Zm-1.84-.44c-.62-.23-.84.08-1.39,0-.06.3.16.39.07.7a4.45,4.45,0,0,1-2.68-3C92.68,85.44,94.2,86.08,94.64,87.52Zm.23,3.16c-1.53.63-5.11,0-5.51-1.51C91.07,88.69,94.35,89,94.87,90.68ZM92.62,93a11.25,11.25,0,0,1-4.33-.12c.85-1.23,2.4-1.52,4.36-1.27C92.1,92.2,92.31,92.31,92.62,93Zm-.31-18.5c-.38-.85.3-1.65,1-2.46.44,0,.09.4.25.66.24.09.5-.13.75-.15C94.45,73.19,92.93,74.37,92.31,74.45Zm0-4.74a2.61,2.61,0,0,1-2.5.49l-.06-.47a3.57,3.57,0,0,1,2.33-1C92.14,69.09,91.52,69.52,92.26,69.71Zm1.83.65A4.69,4.69,0,0,1,90.94,72C91.25,70.82,93.58,69.29,94.09,70.36Zm1.18-1.43c-.89.54-1.77.85-2.6.06C93.57,68.31,94.45,68,95.27,68.93Zm-1.83-2.41a2.18,2.18,0,0,1,2.35,1.41C95,68.32,93.87,67.51,93.44,66.52Zm1,5.44c-.73-.6.3-2.25,1.43-2.54C96.62,70.28,95.43,71.49,94.47,72ZM95,75.89a3.16,3.16,0,0,1,.84-4A3.51,3.51,0,0,1,95,75.89Zm2.4.3a4.44,4.44,0,0,1-.71-2.73c.36-.27.66.52,1-.23A3.32,3.32,0,0,1,97.43,76.19ZM97,70a1.88,1.88,0,0,1,.06,2.6A1.66,1.66,0,0,1,97,70Zm1-1.26a2.19,2.19,0,0,1,3.1-.5A2.21,2.21,0,0,1,98,68.78Zm2.11,2.52c-.8.44-2.12-.82-2.06-1.68C98.75,69.13,100,70.57,100.08,71.3Zm-.28,3.8c-1.17-1.21-2-2.39-1.41-3.51A3.11,3.11,0,0,1,99.8,75.1ZM99.86,72c.32-.17.61.19.93-.14.15-.24-.41-.51,0-.74a3.93,3.93,0,0,1,2,2.61C101.81,74,100.82,73.26,99.86,72Zm4-1.19a4.18,4.18,0,0,1-4-1.13C101.27,69.12,102.61,69.52,103.91,70.84Zm.62-3a4.81,4.81,0,0,1-2.84,1,1.14,1.14,0,0,0,.41-.73,2.42,2.42,0,0,0-.9-.6C102.28,67,103.82,66.8,104.53,67.8Zm-1.9-3.07c-.12,1.27-2.08,2.67-3.17,2.17A4.5,4.5,0,0,1,102.63,64.73Zm-1.82-2.59c.55,1-.28,2-1.08,2.92,0-.32-.16-1-.63-.31C98.88,63.84,99.81,63,100.81,62.14Zm-3.07,5.61c-.67-.84.32-1.88,1.23-2.36C99.41,66.17,98.78,67.35,97.74,67.75Zm.68-6.29c.36,1.41.6,2.82-.85,4.14A3.85,3.85,0,0,1,98.42,61.46Zm-1.68,7.91a1.93,1.93,0,0,1-.62-.68C97.06,67.37,98.12,69,96.74,69.37Zm-.1-1.86a2.17,2.17,0,0,1-.33-2.71A2.07,2.07,0,0,1,96.64,67.51Zm-1.17-6.38c1.07,1.14,1.66,2.25,1.23,3.32-.26-.44-.54-.36-.81-.69-.18.14-.09.3-.3.45A3.39,3.39,0,0,1,95.47,61.13Zm-2.69,1.73c1.24.55,3,2.33,2.52,3.56C94.09,66.06,92.26,64,92.78,62.86Zm.78,3c-.63.11-.56.28-.69.8a8.36,8.36,0,0,1-2.49-2.16C91.48,64.19,92.53,64.77,93.56,65.87Zm-.19,1.94a3.15,3.15,0,0,1-4-.65A3.39,3.39,0,0,1,93.37,67.81ZM84.55,58.9a1.93,1.93,0,0,1,1.2-.09c1.29.26,4,4.72,4.55,7.18a4.18,4.18,0,0,0-1.82,1.12l1.15,1.26-.17.2a3,3,0,0,0-.46-.82h0l0,0A4.36,4.36,0,0,0,85.52,66h-.4l.16-.16a4.31,4.31,0,0,0-.87-6.67l-.1-.06A2.21,2.21,0,0,1,84.55,58.9Zm-2.38.78a3.15,3.15,0,0,1,0,6.3H61.57l.16-.16a4.3,4.3,0,0,0,0-6l-.16-.16ZM56.07,45.05v0a2.43,2.43,0,1,1,4.85,0V58.51H59v-.26a6.59,6.59,0,0,0-2.89-5.35l0,0v-.08Zm5.7,17.78A3.16,3.16,0,0,1,58.62,66H56.15V59.67h2.46A3.15,3.15,0,0,1,61.77,62.83Zm.2,4.31a3.15,3.15,0,1,1,0,6.3H56.15v-6.3ZM58.5,39.25a5.49,5.49,0,0,1,5.41,5.55V58.51H62V45A3.47,3.47,0,1,0,55,45l0,7.29-.13,0a6,6,0,0,0-1.75-.42h-.09v-7A5.5,5.5,0,0,1,58.5,39.25Zm-12.31,21-.13,0a6.35,6.35,0,0,0-1.73-.42h-.09V44.49a3.86,3.86,0,0,0-.56-1.86,4.17,4.17,0,0,0-.27-.38l-.06-.07-.05,0,0-.05-.16-.17-.17-.14-.06,0s0,0,0,0l-.08-.06a2.55,2.55,0,0,0-.39-.24l-.05,0A3.33,3.33,0,0,0,40.8,41a3.54,3.54,0,0,0-3.46,3.69V48.9l-.17-.25A6.5,6.5,0,0,0,35.46,47l0,0V44.51A5.47,5.47,0,0,1,40.8,39a5.12,5.12,0,0,1,1.49.22h0l.13,0A5.27,5.27,0,0,1,45,41l0,0A5.54,5.54,0,0,1,46.17,44l0,8.47Zm0-23.23v3.86L46,40.64A6.46,6.46,0,0,0,44.27,39l0,0v-2.1a5.39,5.39,0,1,1,10.78,0v2.44l0,0A6.35,6.35,0,0,0,53.26,41l-.18.25V37a3.47,3.47,0,1,0-6.92,0Zm1,7v-7a2.44,2.44,0,1,1,4.86,0h0V51.85H52a6.37,6.37,0,0,0-1.69.43l-.13.06V37a.52.52,0,0,0-.52-.51.51.51,0,0,0-.52.51V52.81a0,0,0,0,1,0,0v0l0,0a6.55,6.55,0,0,0-1.66,1.66l-.17.25V44.5C47.23,44.34,47.21,44.17,47.2,44Zm8.86,14.24a3.45,3.45,0,1,0-6.9.32v4.21L49,62.53a6.7,6.7,0,0,0-1.72-1.68l0,0V58.4A5.39,5.39,0,1,1,58,58.32v.19H56.07Zm2.56,22.66H56.14v-6.3h2.47a3.15,3.15,0,1,1,0,6.3Zm8,41.31-2.75,2.91V97.05l2.75,2.87Zm0-24.11L63.9,95.23V82.07h2.75Zm4,19.87-2.75,2.91V101.24l2.75,2.87Zm0-15.68L67.9,99.42V82.07h2.75ZM61.57,80.91l.16-.17a4.29,4.29,0,0,0,0-6l-.16-.16h20.6a3.15,3.15,0,0,1,0,6.3ZM71.91,117.6V104.49H85.36V117.6Zm13.45,1.25V122H71.91v-3.11ZM71.91,103.24v-3.11H85.36v3.11Zm0-4.37V95.76H85.36v3.11Zm0,27.46v-3.11H85.36v3.11ZM85.36,94.5H71.91V82.07H82.17a4.29,4.29,0,0,0,3-1.24l.16-.17ZM64.92,73.44l.15-.16a4.29,4.29,0,0,0,0-6l-.15-.17h20.6a3.09,3.09,0,0,1,2.22.93,3.17,3.17,0,0,1,.92,2.24v0a3.17,3.17,0,0,1-3.14,3.08ZM89.37,117v3.88L86.62,118V104l2.74-2.9V117ZM88.54,97l.82.13v2.11l-2.74,2.89V74.46l.07,0a4.35,4.35,0,0,0,3-3.3l.31.23c-.11.4-.41.78-.52,1.18.65.64,1.36,0,2,.47-.31.63-.05,1.71-.66,2A1.75,1.75,0,0,0,90.6,74a1.2,1.2,0,0,0-1.87-.24l-.1.08a1.06,1.06,0,0,1,.64.27.79.79,0,0,1,.16.23h0a1.71,1.71,0,0,1-.06,1.25h0s-.11.31-.22.77h0v0A7.53,7.53,0,0,0,89,77.54c0,.15,0,.32,0,.47a2.67,2.67,0,0,0,.41,1.08v5.12a.91.91,0,0,0-.35.22,4.9,4.9,0,0,0,.35.85V88a11.09,11.09,0,0,0-1.69.7.26.26,0,0,0-.12.22c0,.08.77,1.17,1.14,1.63a4.29,4.29,0,0,0-1.4,2.64h0a10.35,10.35,0,0,1,2.15,1.16C89.19,95.33,88.53,95.73,88.54,97Zm1-.72a4.44,4.44,0,0,1,4.56-2.62A4.14,4.14,0,0,1,89.51,96.31Zm2.35,3a5.1,5.1,0,0,1,1.57-3.59c.45.33.18,1.28,1.09.86A3.33,3.33,0,0,1,91.86,99.26Zm2.47-3.8c.35-1.43,1-2.5,2.59-2.22C96.47,94.53,95.83,95.57,94.33,95.46Zm2.57.21a6.12,6.12,0,0,1-1.84,4.24C94.42,98.49,95.5,95,96.9,95.67Zm-2.28,7.59v-1.59c.84-.16,1-1.14,1.92-1.19a.78.78,0,0,0,0,.14,7.24,7.24,0,0,0,2,1.91,5.87,5.87,0,0,0,1.15-1.64c.43.6,1,1.48,1.51,2.37ZM100,95.78c1.77.87,2.5,2.48,2.43,4.71A4.16,4.16,0,0,1,100,95.78Zm2.14.84c.13-.57,1.09,0,.85-1.09,1,.85,2.1,1.67,2.13,3.27A5.84,5.84,0,0,1,102.15,96.62Zm.14-3.28a4.05,4.05,0,0,1,4.33,2.38C104.44,95.47,102.67,94.92,102.29,93.34Zm6.3-1.5c-.88,1.06-2.46,1.17-4.45.73.17-.44.77-.32.83-.92-.06-.36-.85-.17-.58-.78A5.18,5.18,0,0,1,108.59,91.84Z" transform="translate(-2.59 -3.62)"/><path class="cls-1" d="M50.14,20.11a5,5,0,0,0,2.45.49h8.6a6.8,6.8,0,0,0-.75.85l0,0h-.37a4.63,4.63,0,0,0-4.61,4.62,5,5,0,0,0,.36,1.78,4.61,4.61,0,0,0,2.1,2.36,5,5,0,0,0,2.45.5h10a3.33,3.33,0,0,0,.77-6.57h0v0A5.88,5.88,0,0,0,65.42,19a3.33,3.33,0,0,0-2.08-5h0v0a5.82,5.82,0,0,0-.5-1.71H61.42a4.65,4.65,0,0,1,.71,2.31.6.6,0,0,0,.57.58,2.12,2.12,0,0,1-.14,4.24h-7.3l.06-.09,0,0,0,0A3,3,0,0,0,55.77,17a3,3,0,0,0-3-2.39,2.79,2.79,0,0,0-.64.07.57.57,0,0,0-.38.26.58.58,0,0,0-.08.46.6.6,0,0,0,.59.47h.13a1.58,1.58,0,0,1,.38,0,1.82,1.82,0,0,1,.39,3.6h-.66A3.77,3.77,0,0,1,50.71,19a3.48,3.48,0,0,1-1.55-1.73A4,4,0,0,1,48.89,16a3.41,3.41,0,0,1,3.41-3.41,2.65,2.65,0,0,1,.56,0,.61.61,0,0,0,.62-.29l.06-.07h-4A4.59,4.59,0,0,0,47.68,16,5.13,5.13,0,0,0,48,17.75,4.61,4.61,0,0,0,50.14,20.11Zm15.1.06a4.63,4.63,0,0,1,4.65,4.49.59.59,0,0,0,.57.58,2.12,2.12,0,0,1-.13,4.24H63l.06-.09s0,0,0,0,0,0,0,0a3,3,0,0,0,.42-2.28,3.06,3.06,0,0,0-3-2.39,3.48,3.48,0,0,0-.64.07.62.62,0,0,0-.38.27.55.55,0,0,0-.08.45.62.62,0,0,0,.59.48h.13a1.65,1.65,0,0,1,.38-.05,1.84,1.84,0,0,1,1.78,1.44A1.82,1.82,0,0,1,61,29.47H60.3a3.84,3.84,0,0,1-1.82-.35,3.41,3.41,0,0,1-1.55-1.74,4,4,0,0,1-.28-1.34,3.41,3.41,0,0,1,3.41-3.41,3.66,3.66,0,0,1,.57.05.62.62,0,0,0,.62-.28A4.61,4.61,0,0,1,65.24,20.17Z" transform="translate(-2.59 -3.62)"/><path class="cls-1" d="M6.94,5.73a2.38,2.38,0,0,1-.13.76,2.14,2.14,0,0,1-.37.64,1.89,1.89,0,0,1-.57.44,1.64,1.64,0,0,1-.74.17H3.77v-4H5.13a1.61,1.61,0,0,1,.72.16,2,2,0,0,1,.58.43A2.71,2.71,0,0,1,6.81,5,2.49,2.49,0,0,1,6.94,5.73ZM4.14,4V7.42h1a1.31,1.31,0,0,0,.59-.14,1.47,1.47,0,0,0,.45-.38,2.09,2.09,0,0,0,.3-.53,2.2,2.2,0,0,0,.1-.64,2.24,2.24,0,0,0-.1-.63,2.32,2.32,0,0,0-.29-.54,1.4,1.4,0,0,0-.46-.38A1.28,1.28,0,0,0,5.13,4Z" transform="translate(-2.59 -3.62)"/><path class="cls-1" d="M9.3,3.73l.78,2,.78,2h-.39l-.24-.63L10,6.46H8.25c-.09.22-.16.43-.24.64s-.17.42-.25.63H7.37c.27-.66.53-1.33.79-2l.78-2Zm.56,2.41c-.12-.32-.25-.63-.37-.95s-.25-.63-.38-1q-.18.49-.36,1c-.12.32-.25.63-.37.95Z" transform="translate(-2.59 -3.62)"/><path class="cls-1" d="M15.1,3.73l.18,4h-.37L14.8,4.5,13.46,7.08,12.12,4.49,12,7.74h-.37l.18-4h.23l1.41,2.64,1.39-2.64Z" transform="translate(-2.59 -3.62)"/><path class="cls-1" d="M18.84,3.73c-.25.38-.48.76-.72,1.13L17.4,6V7.73H17V6l-.72-1.12L15.6,3.73H16l.59.94.6,1,.6-1c.19-.31.39-.63.6-.94Z" transform="translate(-2.59 -3.62)"/><path class="cls-1" d="M20.6,3.73c.25.67.51,1.34.77,2l.78,2h-.39l-.24-.63-.24-.64H19.54l-.24.64q-.14.31-.24.63h-.39l.78-2,.78-2Zm.55,2.41c-.12-.32-.25-.63-.37-.95s-.25-.63-.38-1q-.18.49-.36,1c-.12.32-.25.63-.37.95Z" transform="translate(-2.59 -3.62)"/><path class="cls-1" d="M25.59,7.73c-.39-.54-.77-1.09-1.15-1.64L23.3,4.44V7.73h-.36v-4h.29l1.15,1.65c.37.55.75,1.1,1.14,1.66V3.73h.36v4Z" transform="translate(-2.59 -3.62)"/><path class="cls-1" d="M30.1,7.23a1.73,1.73,0,0,1-.29.23,2.53,2.53,0,0,1-.37.18,2.62,2.62,0,0,1-.4.11,1.87,1.87,0,0,1-.4,0,1.79,1.79,0,0,1-.78-.17,1.86,1.86,0,0,1-.59-.44,1.81,1.81,0,0,1-.38-.66,2,2,0,0,1-.14-.77A2.19,2.19,0,0,1,26.88,5a1.75,1.75,0,0,1,.37-.65,1.92,1.92,0,0,1,.59-.46,1.84,1.84,0,0,1,.8-.16,1.87,1.87,0,0,1,.71.14,2.43,2.43,0,0,1,.62.4l-.24.26a2.15,2.15,0,0,0-.5-.35A1.53,1.53,0,0,0,28.64,4a1.55,1.55,0,0,0-.61.13,1.48,1.48,0,0,0-.49.37,1.74,1.74,0,0,0-.31.55,1.66,1.66,0,0,0-.12.67,1.81,1.81,0,0,0,.11.67,1.74,1.74,0,0,0,.31.55,1.45,1.45,0,0,0,.49.36,1.26,1.26,0,0,0,.62.14l.29,0a1.15,1.15,0,0,0,.29-.08,1.48,1.48,0,0,0,.29-.12,1.32,1.32,0,0,0,.25-.16V5.89h-.92V5.56h1.27Z" transform="translate(-2.59 -3.62)"/><path class="cls-1" d="M33.45,6.92a.7.7,0,0,0,0,.27.34.34,0,0,0,.11.17.38.38,0,0,0,.15.09.47.47,0,0,0,.17,0,.44.44,0,0,0,.24-.07.75.75,0,0,0,.16-.13l.1.11a.94.94,0,0,0,.1.1.57.57,0,0,1-.11.11l-.16.1a.67.67,0,0,1-.18.07.63.63,0,0,1-.19,0,.86.86,0,0,1-.38-.07.43.43,0,0,1-.24-.17.7.7,0,0,1-.13-.33,2.37,2.37,0,0,1,0-.49V5.44h-.41V5.12h.41V3.92h.36v1.2h.77v.32h-.77Z" transform="translate(-2.59 -3.62)"/><path class="cls-1" d="M37.64,7.74h-.36V6.16a.75.75,0,0,0-.23-.58.82.82,0,0,0-.57-.2.73.73,0,0,0-.3.06,1.2,1.2,0,0,0-.26.18,1,1,0,0,0-.17.25.65.65,0,0,0-.07.29V7.74h-.36V3.62h.36V5.49a.86.86,0,0,1,.18-.2,1,1,0,0,1,.22-.13l.22-.08.19,0a1.45,1.45,0,0,1,.47.08,1.09,1.09,0,0,1,.36.22,1.12,1.12,0,0,1,.23.35,1.34,1.34,0,0,1,.09.45Z" transform="translate(-2.59 -3.62)"/><path class="cls-1" d="M39.83,5.05a1.53,1.53,0,0,1,.54.1,1.14,1.14,0,0,1,.41.31,1.38,1.38,0,0,1,.26.46,2.38,2.38,0,0,1,.09.62h-2.2A.74.74,0,0,0,39,6.9a.77.77,0,0,0,.22.29.81.81,0,0,0,.31.19.94.94,0,0,0,.37.07,1.06,1.06,0,0,0,.46-.1,1,1,0,0,0,.38-.29l.23.22a1.64,1.64,0,0,1-.47.36,1.32,1.32,0,0,1-.6.13,1.29,1.29,0,0,1-.51-.1A1.33,1.33,0,0,1,38.67,7a1.15,1.15,0,0,1-.12-.56,1.45,1.45,0,0,1,.1-.55,1.32,1.32,0,0,1,.27-.42,1.3,1.3,0,0,1,.41-.28A1.35,1.35,0,0,1,39.83,5.05Zm.9,1.18a.81.81,0,0,0-.07-.35,1.09,1.09,0,0,0-.21-.26,1,1,0,0,0-.62-.25.88.88,0,0,0-.33.07,1,1,0,0,0-.29.18.86.86,0,0,0-.2.27.81.81,0,0,0-.08.34Z" transform="translate(-2.59 -3.62)"/><path class="cls-1" d="M45.1,7.79a1.24,1.24,0,0,1-.54-.11,1.3,1.3,0,0,1-.43-.29,1.28,1.28,0,0,1-.3-.43,1.17,1.17,0,0,1-.11-.53,1.39,1.39,0,0,1,.1-.53,1.45,1.45,0,0,1,.3-.43,1.71,1.71,0,0,1,.44-.3,1.33,1.33,0,0,1,.54-.1,1.39,1.39,0,0,1,.53.1,1.49,1.49,0,0,1,.44.3,1.19,1.19,0,0,1,.3.43,1.23,1.23,0,0,1,.11.53,1.13,1.13,0,0,1-.11.52,1.46,1.46,0,0,1-.29.44,1.6,1.6,0,0,1-.44.29A1.24,1.24,0,0,1,45.1,7.79Zm0-2.41a1,1,0,0,0-.4.08,1.27,1.27,0,0,0-.33.22,1.11,1.11,0,0,0-.22.34,1.15,1.15,0,0,0-.08.41,1.07,1.07,0,0,0,.08.41,1,1,0,0,0,.22.33,1.27,1.27,0,0,0,.33.22,1,1,0,0,0,.4.08,1.1,1.1,0,0,0,.4-.08,1.46,1.46,0,0,0,.33-.22,1.12,1.12,0,0,0,.22-.33,1.07,1.07,0,0,0,.08-.41A1.15,1.15,0,0,0,46.05,6a1.33,1.33,0,0,0-.22-.34,1.46,1.46,0,0,0-.33-.22A1.1,1.1,0,0,0,45.1,5.38Z" transform="translate(-2.59 -3.62)"/><path class="cls-1" d="M49.37,5.07c-.21.46-.41.91-.6,1.36l-.6,1.37c-.21-.46-.41-.92-.6-1.37L47,5.07h.38l.42.95.41,1c.13-.32.26-.64.4-1L49,5.07Z" transform="translate(-2.59 -3.62)"/><path class="cls-1" d="M51.14,5.05a1.63,1.63,0,0,1,.55.1,1.14,1.14,0,0,1,.41.31,1.58,1.58,0,0,1,.26.46,2.39,2.39,0,0,1,.08.62H50.25a.86.86,0,0,0,.08.36.89.89,0,0,0,.22.29.85.85,0,0,0,.32.19.9.9,0,0,0,.37.07,1.09,1.09,0,0,0,.46-.1,1,1,0,0,0,.38-.29l.22.22a1.47,1.47,0,0,1-.46.36,1.35,1.35,0,0,1-.6.13,1.25,1.25,0,0,1-.51-.1,1.18,1.18,0,0,1-.44-.28A1.35,1.35,0,0,1,50,7a1.27,1.27,0,0,1-.11-.56,1.45,1.45,0,0,1,.1-.55,1.17,1.17,0,0,1,.27-.42,1.2,1.2,0,0,1,.41-.28A1.3,1.3,0,0,1,51.14,5.05Zm.91,1.18A.69.69,0,0,0,52,5.88a.86.86,0,0,0-.2-.26,1,1,0,0,0-.29-.18.83.83,0,0,0-.34-.07,1,1,0,0,0-.33.07,1.12,1.12,0,0,0-.28.18.73.73,0,0,0-.2.27.81.81,0,0,0-.08.34Z" transform="translate(-2.59 -3.62)"/><path class="cls-1" d="M54.53,5.37a.83.83,0,0,0-.32.07.8.8,0,0,0-.28.2.91.91,0,0,0-.2.33,1.06,1.06,0,0,0-.08.45V7.73h-.36V5.07h.36V5.6A1,1,0,0,1,54,5.2a1,1,0,0,1,.5-.14Z" transform="translate(-2.59 -3.62)"/><path class="cls-1" d="M57.82,3.73v4h-.36V4H57V3.73Z" transform="translate(-2.59 -3.62)"/><path class="cls-1" d="M61.55,5.73a3.46,3.46,0,0,1-.09.83,2,2,0,0,1-.27.66,1.38,1.38,0,0,1-.45.42,1.21,1.21,0,0,1-.6.15,1.16,1.16,0,0,1-.6-.15,1.21,1.21,0,0,1-.45-.42,2,2,0,0,1-.28-.66,3.46,3.46,0,0,1-.09-.83,3.58,3.58,0,0,1,.09-.83,2,2,0,0,1,.28-.65,1.21,1.21,0,0,1,.45-.42,1.16,1.16,0,0,1,.6-.15,1.21,1.21,0,0,1,.6.15,1.38,1.38,0,0,1,.45.42,2,2,0,0,1,.27.65A3.58,3.58,0,0,1,61.55,5.73Zm-2.49,0a2.73,2.73,0,0,0,.09.74,1.57,1.57,0,0,0,.23.54.92.92,0,0,0,.34.34.79.79,0,0,0,.42.12.78.78,0,0,0,.41-.12A1,1,0,0,0,60.89,7a2.09,2.09,0,0,0,.24-.54,3.42,3.42,0,0,0,0-1.47,2.16,2.16,0,0,0-.24-.55,1.22,1.22,0,0,0-.34-.34.84.84,0,0,0-.83,0,1.1,1.1,0,0,0-.34.34,1.63,1.63,0,0,0-.23.55A2.7,2.7,0,0,0,59.06,5.73Z" transform="translate(-2.59 -3.62)"/><path class="cls-1" d="M65.13,5.73a3.46,3.46,0,0,1-.09.83,2.22,2.22,0,0,1-.27.66,1.49,1.49,0,0,1-.45.42,1.3,1.3,0,0,1-1.21,0,1.18,1.18,0,0,1-.44-.42,1.8,1.8,0,0,1-.28-.66,3.46,3.46,0,0,1-.09-.83,3.58,3.58,0,0,1,.09-.83,1.83,1.83,0,0,1,.28-.65,1.18,1.18,0,0,1,.44-.42,1.3,1.3,0,0,1,1.21,0,1.49,1.49,0,0,1,.45.42A2.27,2.27,0,0,1,65,4.9,3.58,3.58,0,0,1,65.13,5.73Zm-2.49,0a2.73,2.73,0,0,0,.09.74A1.57,1.57,0,0,0,63,7a.85.85,0,0,0,.34.34.75.75,0,0,0,.41.12.81.81,0,0,0,.42-.12A1,1,0,0,0,64.47,7a2.09,2.09,0,0,0,.23-.54A3.42,3.42,0,0,0,64.7,5a2.17,2.17,0,0,0-.23-.55,1.22,1.22,0,0,0-.34-.34A.91.91,0,0,0,63.71,4a.84.84,0,0,0-.41.11,1,1,0,0,0-.34.34,1.63,1.63,0,0,0-.23.55A2.7,2.7,0,0,0,62.64,5.73Z" transform="translate(-2.59 -3.62)"/><path class="cls-1" d="M68.71,5.73a3,3,0,0,1-.1.83,2,2,0,0,1-.27.66,1.35,1.35,0,0,1-.44.42,1.23,1.23,0,0,1-.61.15,1.16,1.16,0,0,1-.6-.15,1.29,1.29,0,0,1-.45-.42A2,2,0,0,1,66,6.56a3,3,0,0,1-.1-.83A3.1,3.1,0,0,1,66,4.9a2,2,0,0,1,.27-.65,1.29,1.29,0,0,1,.45-.42,1.16,1.16,0,0,1,.6-.15,1.23,1.23,0,0,1,.61.15,1.35,1.35,0,0,1,.44.42,2,2,0,0,1,.27.65A3.1,3.1,0,0,1,68.71,5.73Zm-2.49,0a2.75,2.75,0,0,0,.08.74,1.79,1.79,0,0,0,.23.54,1,1,0,0,0,.34.34.79.79,0,0,0,.42.12.84.84,0,0,0,.42-.12A1.1,1.1,0,0,0,68.05,7a2.09,2.09,0,0,0,.23-.54,3.42,3.42,0,0,0,0-1.47,2.17,2.17,0,0,0-.23-.55,1.37,1.37,0,0,0-.34-.34A.94.94,0,0,0,67.29,4a.88.88,0,0,0-.42.11,1.22,1.22,0,0,0-.34.34A1.86,1.86,0,0,0,66.3,5,2.72,2.72,0,0,0,66.22,5.73Z" transform="translate(-2.59 -3.62)"/><path class="cls-1" d="M73.76,5.07,72.31,8.81h-.38l.44-1.11-1.1-2.63h.38l.89,2.18.84-2.18Z" transform="translate(-2.59 -3.62)"/><path class="cls-1" d="M75.63,5.05a1.58,1.58,0,0,1,.55.1,1.14,1.14,0,0,1,.41.31,1.58,1.58,0,0,1,.26.46,2.39,2.39,0,0,1,.08.62H74.74a.86.86,0,0,0,.08.36,1.06,1.06,0,0,0,.22.29.85.85,0,0,0,.32.19.94.94,0,0,0,.37.07,1.06,1.06,0,0,0,.46-.1,1,1,0,0,0,.38-.29l.22.22a1.47,1.47,0,0,1-.46.36,1.35,1.35,0,0,1-.6.13,1.25,1.25,0,0,1-.51-.1,1.18,1.18,0,0,1-.44-.28A1.35,1.35,0,0,1,74.47,7a1.27,1.27,0,0,1-.11-.56,1.45,1.45,0,0,1,.1-.55,1.17,1.17,0,0,1,.27-.42,1.2,1.2,0,0,1,.41-.28A1.34,1.34,0,0,1,75.63,5.05Zm.91,1.18a.81.81,0,0,0-.07-.35,1.09,1.09,0,0,0-.21-.26A.88.88,0,0,0,76,5.44a.8.8,0,0,0-.34-.07.88.88,0,0,0-.32.07,1,1,0,0,0-.29.18.73.73,0,0,0-.2.27.81.81,0,0,0-.08.34Z" transform="translate(-2.59 -3.62)"/><path class="cls-1" d="M79.11,7.79a1.26,1.26,0,0,1-.51-.11,1.35,1.35,0,0,1-.44-.29A1.1,1.1,0,0,1,77.85,7a1.06,1.06,0,0,1-.12-.53,1.16,1.16,0,0,1,.11-.52,1.46,1.46,0,0,1,.29-.44,1.77,1.77,0,0,1,.45-.3,1.29,1.29,0,0,1,.53-.1l.28,0,.28.1.27.16a2.09,2.09,0,0,1,.2.22V5.1h.35V7.74h-.35V7.28a1,1,0,0,1-.22.23,1,1,0,0,1-.26.16,1.52,1.52,0,0,1-.28.09Zm0-2.41a1.1,1.1,0,0,0-.4.08,1.21,1.21,0,0,0-.32.22,1.13,1.13,0,0,0-.23.34,1.09,1.09,0,0,0,0,.82,1,1,0,0,0,.23.33,1.21,1.21,0,0,0,.32.22,1.1,1.1,0,0,0,.4.08,1.06,1.06,0,0,0,.4-.08,1,1,0,0,0,.55-.55,1.07,1.07,0,0,0,.08-.41A1.18,1.18,0,0,0,80.06,6a1.09,1.09,0,0,0-.23-.33.93.93,0,0,0-.33-.21A1,1,0,0,0,79.11,5.38Z" transform="translate(-2.59 -3.62)"/><path class="cls-1" d="M82.64,5.37a.83.83,0,0,0-.32.07.94.94,0,0,0-.29.2,1.32,1.32,0,0,0-.2.33,1.25,1.25,0,0,0-.07.45V7.73H81.4V5.07h.36V5.6a.92.92,0,0,1,.38-.4,1,1,0,0,1,.5-.14Z" transform="translate(-2.59 -3.62)"/><path class="cls-1" d="M84.27,5.07a1.32,1.32,0,0,1,.51.1,1.08,1.08,0,0,1,.4.3l-.11.09L85,5.67a.81.81,0,0,0-.3-.21,1.08,1.08,0,0,0-.38-.08l-.16,0-.17.07a.58.58,0,0,0-.15.11.3.3,0,0,0-.06.18A.25.25,0,0,0,83.8,6a.37.37,0,0,0,.17.12.72.72,0,0,0,.22.08l.23.06a1.92,1.92,0,0,1,.32.09,1.28,1.28,0,0,1,.28.16.91.91,0,0,1,.2.24.7.7,0,0,1,.07.33.61.61,0,0,1-.08.3.78.78,0,0,1-.24.24,1.14,1.14,0,0,1-.34.15,1.41,1.41,0,0,1-.4,0,1.27,1.27,0,0,1-.28,0l-.28-.08a.84.84,0,0,1-.26-.15.55.55,0,0,1-.2-.2l.1-.09.14-.13a.7.7,0,0,0,.35.28,1.06,1.06,0,0,0,.42.09l.22,0a.92.92,0,0,0,.23-.09.75.75,0,0,0,.17-.14.32.32,0,0,0,.07-.2.42.42,0,0,0-.11-.29,1.06,1.06,0,0,0-.3-.16l-.38-.11a2.4,2.4,0,0,1-.38-.12.74.74,0,0,1-.28-.21.49.49,0,0,1-.12-.37.51.51,0,0,1,.08-.29.64.64,0,0,1,.22-.21.92.92,0,0,1,.3-.14A1.24,1.24,0,0,1,84.27,5.07Z" transform="translate(-2.59 -3.62)"/><path class="cls-1" d="M89.2,7.79a1.24,1.24,0,0,1-.54-.11,1.3,1.3,0,0,1-.43-.29,1.28,1.28,0,0,1-.3-.43,1.18,1.18,0,0,1-.12-.53,1.4,1.4,0,0,1,.11-.53,1.28,1.28,0,0,1,.3-.43,1.55,1.55,0,0,1,.44-.3,1.33,1.33,0,0,1,.54-.1,1.39,1.39,0,0,1,.53.1,1.63,1.63,0,0,1,.44.3,1.33,1.33,0,0,1,.3.43,1.23,1.23,0,0,1,.11.53,1.13,1.13,0,0,1-.11.52,1.46,1.46,0,0,1-.29.44,1.51,1.51,0,0,1-.45.29A1.2,1.2,0,0,1,89.2,7.79Zm0-2.41a1,1,0,0,0-.4.08,1.12,1.12,0,0,0-.33.22,1.11,1.11,0,0,0-.22.34,1,1,0,0,0-.08.41.91.91,0,0,0,.08.41,1,1,0,0,0,.22.33,1.12,1.12,0,0,0,.33.22,1,1,0,0,0,.4.08,1.14,1.14,0,0,0,.4-.08,1.21,1.21,0,0,0,.32-.22,1,1,0,0,0,.23-.33,1.07,1.07,0,0,0,.08-.41A1.15,1.15,0,0,0,90.15,6a1.13,1.13,0,0,0-.23-.34,1.21,1.21,0,0,0-.32-.22A1.14,1.14,0,0,0,89.2,5.38Z" transform="translate(-2.59 -3.62)"/><path class="cls-1" d="M92.05,7.78a1.09,1.09,0,0,1-.28,0,.48.48,0,0,1-.2-.11.36.36,0,0,1-.12-.2,1.3,1.3,0,0,1,0-.31V3.62h.36V7.07a.49.49,0,0,0,.07.32.24.24,0,0,0,.2.07Z" transform="translate(-2.59 -3.62)"/><path class="cls-1" d="M94.19,7.79a1.26,1.26,0,0,1-.51-.11,1.51,1.51,0,0,1-.45-.29,1.19,1.19,0,0,1-.3-.43,1.06,1.06,0,0,1-.12-.53,1.24,1.24,0,0,1,.11-.54,1.42,1.42,0,0,1,.29-.43,1.51,1.51,0,0,1,.45-.29,1.29,1.29,0,0,1,.53-.1l.28,0,.28.1a1.64,1.64,0,0,1,.26.16,1.45,1.45,0,0,1,.21.22v-2h.35V7.74h-.35V7.28a1.21,1.21,0,0,1-.22.23,1,1,0,0,1-.26.16,1.52,1.52,0,0,1-.28.09Zm0-2.41a1.06,1.06,0,0,0-.4.08,1.07,1.07,0,0,0-.32.22,1.13,1.13,0,0,0-.23.34,1.09,1.09,0,0,0,0,.82,1,1,0,0,0,.23.33,1.07,1.07,0,0,0,.32.22,1,1,0,0,0,.8,0,1.27,1.27,0,0,0,.33-.22,1.12,1.12,0,0,0,.22-.33,1.07,1.07,0,0,0,.08-.41A1.18,1.18,0,0,0,95.14,6a1.3,1.3,0,0,0-.23-.33,1,1,0,0,0-.33-.21A1,1,0,0,0,94.19,5.38Z" transform="translate(-2.59 -3.62)"/><path class="cls-1" d="M100.58,7.38a1.23,1.23,0,0,1-.44.3,1.31,1.31,0,0,1-.54.11,1.39,1.39,0,0,1-.53-.1,1.46,1.46,0,0,1-.44-.29A1.3,1.3,0,0,1,98.34,7a1.19,1.19,0,0,1-.12-.54,1.41,1.41,0,0,1,.11-.54,1.26,1.26,0,0,1,.29-.43,1.35,1.35,0,0,1,.44-.29,1.37,1.37,0,0,1,.54-.11,1.55,1.55,0,0,1,.52.1,1.8,1.8,0,0,1,.43.29l-.24.23a.84.84,0,0,0-.31-.22.9.9,0,0,0-.4-.08,1,1,0,0,0-.39.08,1.12,1.12,0,0,0-.33.22,1.11,1.11,0,0,0-.22.34.94.94,0,0,0-.08.41.9.9,0,0,0,.08.4,1,1,0,0,0,.22.33,1,1,0,0,0,.33.23,1,1,0,0,0,.39.08.91.91,0,0,0,.41-.09,1,1,0,0,0,.33-.24Z" transform="translate(-2.59 -3.62)"/><path class="cls-1" d="M101.71,4.5a.24.24,0,0,1-.24-.24.23.23,0,0,1,.07-.17.24.24,0,0,1,.17-.07.29.29,0,0,1,.18.07.28.28,0,0,1,.07.17.24.24,0,0,1-.25.24Zm-.17.56h.36V7.74h-.36Z" transform="translate(-2.59 -3.62)"/><path class="cls-1" d="M103.47,6.92a.7.7,0,0,0,0,.27.4.4,0,0,0,.1.17.38.38,0,0,0,.15.09.5.5,0,0,0,.18,0,.41.41,0,0,0,.23-.07,1.26,1.26,0,0,0,.17-.13l.1.11a.94.94,0,0,0,.1.1l-.11.11-.16.1a.67.67,0,0,1-.18.07l-.19,0a.94.94,0,0,1-.39-.07.46.46,0,0,1-.24-.17.82.82,0,0,1-.13-.33,3.48,3.48,0,0,1,0-.49V5.44h-.41V5.12h.41V3.92h.36v1.2h.77v.32h-.77Z" transform="translate(-2.59 -3.62)"/><path class="cls-1" d="M107.75,5.07l-1.44,3.74h-.38l.43-1.11-1.1-2.63h.39l.89,2.18.84-2.18Z" transform="translate(-2.59 -3.62)"/><path class="cls-2" d="M131,106.33h51.64v5.59H160.81v10.32h-6.87V111.92H131Zm13.19,10.78v10.74h32.75v5.63H137.24V117.11ZM176,80.68v20.43H137.52V80.68Zm-6.85,15V86.11H144.31v9.55Z" transform="translate(-2.59 -3.62)"/><path class="cls-2" d="M207.13,118.5c4.73-.24,9.48-.64,13.92-1.26l.47,5.11c-12.13,2.18-25.21,2.29-34.82,2.29l-1-5.72c4.29,0,9.26,0,14.45-.15v-5.31c-6.16-1-10.18-4.88-10.16-10.2,0-6.34,5.57-10.59,13.7-10.59s13.7,4.25,13.74,10.59c0,5.32-4.15,9.19-10.3,10.23Zm13.3-33.89v5.5H186.76v-5.5h13.39V78.33h7v6.28Zm-16.74,23.82c4.22,0,7.07-1.9,7.07-5.17S207.91,98,203.69,98s-7.14,2-7.12,5.26S199.4,108.45,203.69,108.43Zm35.28-7v5.77h-7.91v27.35h-7V78.11h7v23.31Z" transform="translate(-2.59 -3.62)"/><path class="cls-2" d="M276.74,110c-11.75,2.1-25.12,2.32-35,2.35l-.62-5.57c3.31,0,7.05,0,11-.11V95.17H259v11.25c5.86-.25,11.85-.69,17.35-1.48ZM265,101.64A76.06,76.06,0,0,0,266.45,88h-22V82.29h28.76v3.36a89.29,89.29,0,0,1-1.37,16.61Zm-8.5,15v11.22h32v5.63h-39V116.63ZM286.75,95.7h7.32v5.83h-7.32v18.89h-7.07V78.11h7.07Z" transform="translate(-2.59 -3.62)"/><path class="cls-2" d="M332.08,107.65c-11.75,2-24.83,2.32-35,2.32l-.62-5.65c3.36,0,7.1,0,11-.09V93.84h6.89v10.21c5.86-.22,11.84-.59,17.35-1.28Zm-11.66-8.39A63.89,63.89,0,0,0,321.7,87H299.82V81.36h28.81v3.45a69.34,69.34,0,0,1-1.41,15Zm22.11,24.59c0,6.69-7.4,10.56-19.35,10.56s-19.38-3.87-19.38-10.56c0-6.43,7.42-10.36,19.38-10.36S342.53,117.42,342.53,123.85Zm-7.11,0c0-3.18-4.49-5-12.24-5s-12.33,1.81-12.29,5c0,3.45,4.51,5.13,12.29,5.1S335.39,127.3,335.42,123.85Zm6.67-31.31h7.36v5.79h-7.36V112.8H335V78.11h7.07Z" transform="translate(-2.59 -3.62)"/></svg>