<?xml version="1.0" encoding="utf-8"?>
<!-- Generator: Adobe Illustrator 25.2.1, SVG Export Plug-In . SVG Version: 6.00 Build 0)  -->
<svg version="1.1" id="Layer_1" xmlns="http://www.w3.org/2000/svg" xmlns:xlink="http://www.w3.org/1999/xlink" x="0px" y="0px"
	 viewBox="0 0 448.92 109.31" style="enable-background:new 0 0 448.92 109.31;" xml:space="preserve">
<style type="text/css">
	.st0{fill:url(#SVGID_1_);}
	.st1{fill:url(#SVGID_2_);}
	.st2{fill:url(#SVGID_3_);}
	.st3{fill:url(#SVGID_4_);}
	.st4{fill:url(#SVGID_5_);}
	.st5{fill:url(#SVGID_6_);}
	.st6{fill:url(#SVGID_7_);}
	.st7{fill:url(#SVGID_8_);}
	.st8{fill:url(#SVGID_9_);}
	.st9{fill:url(#SVGID_10_);}
	.st10{fill:url(#SVGID_11_);}
	.st11{fill:url(#SVGID_12_);}
	.st12{fill:url(#SVGID_13_);}
	.st13{fill:url(#SVGID_14_);}
	.st14{fill:url(#SVGID_15_);}
	.st15{fill:url(#SVGID_16_);}
	.st16{fill:url(#SVGID_17_);}
	.st17{fill:url(#SVGID_18_);}
	.st18{fill:url(#SVGID_19_);}
	.st19{fill:url(#SVGID_20_);}
	.st20{fill:url(#SVGID_21_);}
	.st21{fill-rule:evenodd;clip-rule:evenodd;}
	.st22{fill:#3C2F16;}
</style>
<g>
	<g>
		
			<radialGradient id="SVGID_1_" cx="5311.8579" cy="3366.8792" r="8.9204" gradientTransform="matrix(-0.7155 0.6986 -0.6986 -0.7155 6186.7476 -1245.2097)" gradientUnits="userSpaceOnUse">
			<stop  offset="0.1461" style="stop-color:#AB0334"/>
			<stop  offset="0.4202" style="stop-color:#BE2745"/>
			<stop  offset="0.995" style="stop-color:#F06578"/>
			<stop  offset="1" style="stop-color:#F16679"/>
		</radialGradient>
		<path class="st0" d="M33.19,55.99c0,0,3,5.85,7.21,7.24c1.03,0.34,1.98,0.12,2.17-0.42c0.2-0.56-0.4-1.46-1.18-2
			c-1.76-1.21-3.8-1.14-6.64-3.46C34.53,57.17,33.19,55.99,33.19,55.99z"/>
		
			<radialGradient id="SVGID_2_" cx="5312.5283" cy="3367.4158" r="10.5954" gradientTransform="matrix(-0.7155 0.6986 -0.6986 -0.7155 6186.7476 -1245.2097)" gradientUnits="userSpaceOnUse">
			<stop  offset="0.1461" style="stop-color:#AB0334"/>
			<stop  offset="0.4202" style="stop-color:#BE2745"/>
			<stop  offset="0.995" style="stop-color:#F06578"/>
			<stop  offset="1" style="stop-color:#F16679"/>
		</radialGradient>
		<path class="st1" d="M37.75,62.17c1.98,1.64,4.77,3.86,3.07,4.68c-1.7,0.82-5.06-2.25-6.8-5.85c-1.26-2.6-1.06-4.95-1.06-4.95
			S34.84,59.76,37.75,62.17z"/>
		
			<radialGradient id="SVGID_3_" cx="5313.2798" cy="3367.4402" r="10.9559" gradientTransform="matrix(-0.7155 0.6986 -0.6986 -0.7155 6186.7476 -1245.2097)" gradientUnits="userSpaceOnUse">
			<stop  offset="0.1461" style="stop-color:#AB0334"/>
			<stop  offset="0.4202" style="stop-color:#BE2745"/>
			<stop  offset="0.995" style="stop-color:#F06578"/>
			<stop  offset="1" style="stop-color:#F16679"/>
		</radialGradient>
		<path class="st2" d="M37.09,65.12c0.74,2.08,1.66,5.54,0.07,5.06c-1.59-0.49-6.04-8.36-4.62-14.12
			C32.54,56.05,36.34,63.03,37.09,65.12z"/>
		
			<radialGradient id="SVGID_4_" cx="5313.752" cy="3367.8262" r="12.2863" gradientTransform="matrix(-0.7155 0.6986 -0.6986 -0.7155 6186.7476 -1245.2097)" gradientUnits="userSpaceOnUse">
			<stop  offset="0.1461" style="stop-color:#AB0334"/>
			<stop  offset="0.4202" style="stop-color:#BE2745"/>
			<stop  offset="0.995" style="stop-color:#F06578"/>
			<stop  offset="1" style="stop-color:#F16679"/>
		</radialGradient>
		<path class="st3" d="M29.41,71.26c2.38,4.71,4.72-2.79,3.28-7.49c-1.26-4.13-0.43-7.79-0.43-7.79S27.04,66.55,29.41,71.26z"/>
		
			<radialGradient id="SVGID_5_" cx="5310.5283" cy="3370.8103" r="19.8007" gradientTransform="matrix(-0.7155 0.6986 -0.6986 -0.7155 6186.7476 -1245.2097)" gradientUnits="userSpaceOnUse">
			<stop  offset="0.1461" style="stop-color:#AB0334"/>
			<stop  offset="0.4202" style="stop-color:#BE2745"/>
			<stop  offset="0.995" style="stop-color:#F06578"/>
			<stop  offset="1" style="stop-color:#F16679"/>
		</radialGradient>
		<path class="st4" d="M31.94,55.57c0,0-3.89,7.25-5.25,12.38c-1.01,3.82-3.23,6.01-4.68,5.56c-1.3-0.4-1.9-3.15-1.42-4.98
			C21.62,64.66,27.38,57.52,31.94,55.57z"/>
		
			<radialGradient id="SVGID_6_" cx="5314.5352" cy="3370.7432" r="15.5899" gradientTransform="matrix(-0.7155 0.6986 -0.6986 -0.7155 6186.7476 -1245.2097)" gradientUnits="userSpaceOnUse">
			<stop  offset="0.1461" style="stop-color:#AB0334"/>
			<stop  offset="0.4202" style="stop-color:#BE2745"/>
			<stop  offset="0.995" style="stop-color:#F06578"/>
			<stop  offset="1" style="stop-color:#F16679"/>
		</radialGradient>
		<path class="st5" d="M23.36,61.65c-4.2,4.82-9.16,8.97-10.63,7c-1.46-1.97-0.53-6.23,7.52-11.21c7.56-4.67,11.45-2.31,11.45-2.31
			S27.85,56.49,23.36,61.65z"/>
		
			<radialGradient id="SVGID_7_" cx="5314.0039" cy="3373.6643" r="15.8808" gradientTransform="matrix(-0.7155 0.6986 -0.6986 -0.7155 6186.7476 -1245.2097)" gradientUnits="userSpaceOnUse">
			<stop  offset="0.1461" style="stop-color:#AB0334"/>
			<stop  offset="0.4202" style="stop-color:#BE2745"/>
			<stop  offset="0.995" style="stop-color:#F06578"/>
			<stop  offset="1" style="stop-color:#F16679"/>
		</radialGradient>
		<path class="st6" d="M20.82,56.41c4.87-2.08,10.3-2.42,10.3-2.42s-7.79-4.31-15.38-2.55c-5.53,1.28-12.39,6.11-10.96,9.16
			C6.59,64.49,14.02,59.31,20.82,56.41z"/>
		
			<radialGradient id="SVGID_8_" cx="5310.9365" cy="3373.929" r="19.7717" gradientTransform="matrix(-0.7155 0.6986 -0.6986 -0.7155 6186.7476 -1245.2097)" gradientUnits="userSpaceOnUse">
			<stop  offset="0.1461" style="stop-color:#AB0334"/>
			<stop  offset="0.4202" style="stop-color:#BE2745"/>
			<stop  offset="0.995" style="stop-color:#F06578"/>
			<stop  offset="1" style="stop-color:#F16679"/>
		</radialGradient>
		<path class="st7" d="M19.32,51.26c-6.04,0.57-16.56-0.76-16.36-7.49c0,0,8.2-5.98,17.8-0.02c7.46,4.62,10.19,9.41,10.19,9.41
			S26.29,50.61,19.32,51.26z"/>
		
			<radialGradient id="SVGID_9_" cx="5309.9185" cy="3374.9539" r="22.4671" gradientTransform="matrix(-0.7155 0.6986 -0.6986 -0.7155 6186.7476 -1245.2097)" gradientUnits="userSpaceOnUse">
			<stop  offset="0.1461" style="stop-color:#AB0334"/>
			<stop  offset="0.4202" style="stop-color:#BE2745"/>
			<stop  offset="0.995" style="stop-color:#F06578"/>
			<stop  offset="1" style="stop-color:#F16679"/>
		</radialGradient>
		<path class="st8" d="M30.58,51.31c0,0-0.83-11.09-8.02-18.34c-8.69-8.78-13.99-7.38-15.71-7.01c-3.65,0.78-2.14,9.65,3.99,12.48
			C23.08,44.09,30.58,51.31,30.58,51.31z"/>
		
			<radialGradient id="SVGID_10_" cx="5311.6309" cy="3367.75" r="8.144" gradientTransform="matrix(-0.7155 0.6986 -0.6986 -0.7155 6186.7476 -1245.2097)" gradientUnits="userSpaceOnUse">
			<stop  offset="0.1461" style="stop-color:#AB0334"/>
			<stop  offset="0.4202" style="stop-color:#BE2745"/>
			<stop  offset="0.995" style="stop-color:#F06578"/>
			<stop  offset="1" style="stop-color:#F16679"/>
		</radialGradient>
		<path class="st9" d="M33.25,55.84c0,0,4.38,4.56,8.4,3.68c3.26-0.72,0.49-2.18-0.74-2.46C39.68,56.78,33.25,55.84,33.25,55.84z"/>
		
			<radialGradient id="SVGID_11_" cx="5310.8828" cy="3368.4976" r="8.1765" gradientTransform="matrix(-0.7155 0.6986 -0.6986 -0.7155 6186.7476 -1245.2097)" gradientUnits="userSpaceOnUse">
			<stop  offset="0.1461" style="stop-color:#AB0334"/>
			<stop  offset="0.4202" style="stop-color:#BE2745"/>
			<stop  offset="0.995" style="stop-color:#F06578"/>
			<stop  offset="1" style="stop-color:#F16679"/>
		</radialGradient>
		<path class="st10" d="M33.29,55.52c0,0,6.29,4.16,9.99-0.18c-3.05-0.77-2.88-0.8-4.47-0.76C36.3,54.64,33.77,55.8,33.29,55.52z"/>
		
			<radialGradient id="SVGID_12_" cx="5310.8818" cy="3368.4973" r="8.1713" gradientTransform="matrix(-0.7155 0.6986 -0.6986 -0.7155 6186.7476 -1245.2097)" gradientUnits="userSpaceOnUse">
			<stop  offset="0.1461" style="stop-color:#AB0334"/>
			<stop  offset="0.4202" style="stop-color:#BE2745"/>
			<stop  offset="0.995" style="stop-color:#F06578"/>
			<stop  offset="1" style="stop-color:#F16679"/>
		</radialGradient>
		<path class="st11" d="M33.23,55.22c0,0,6.02,1.2,9.35-2.88c0,0-3.42-1.1-6.13,0.6C34.65,54.07,33.23,55.22,33.23,55.22z"/>
		
			<radialGradient id="SVGID_13_" cx="5310.8828" cy="3368.4966" r="8.2412" gradientTransform="matrix(-0.7155 0.6986 -0.6986 -0.7155 6186.7476 -1245.2097)" gradientUnits="userSpaceOnUse">
			<stop  offset="0.1461" style="stop-color:#AB0334"/>
			<stop  offset="0.4202" style="stop-color:#BE2745"/>
			<stop  offset="0.995" style="stop-color:#F06578"/>
			<stop  offset="1" style="stop-color:#F16679"/>
		</radialGradient>
		<path class="st12" d="M33.05,54.67c0,0,6.26-1.21,7.3-4.83c0,0-3.06-0.19-5.14,2.47C33.73,54.2,33.05,54.67,33.05,54.67z"/>
		
			<radialGradient id="SVGID_14_" cx="5310.8828" cy="3368.4966" r="8.1719" gradientTransform="matrix(-0.7155 0.6986 -0.6986 -0.7155 6186.7476 -1245.2097)" gradientUnits="userSpaceOnUse">
			<stop  offset="0.1461" style="stop-color:#AB0334"/>
			<stop  offset="0.4202" style="stop-color:#BE2745"/>
			<stop  offset="0.995" style="stop-color:#F06578"/>
			<stop  offset="1" style="stop-color:#F16679"/>
		</radialGradient>
		<path class="st13" d="M32.83,54.55c0,0,4.62-2.4,4-6.02c0,0-1.82-0.24-3.2,2.49C32.26,53.75,32.83,54.55,32.83,54.55z"/>
		
			<radialGradient id="SVGID_15_" cx="5310.8818" cy="3368.4956" r="8.1752" gradientTransform="matrix(-0.7155 0.6986 -0.6986 -0.7155 6186.7476 -1245.2097)" gradientUnits="userSpaceOnUse">
			<stop  offset="0.1461" style="stop-color:#AB0334"/>
			<stop  offset="0.4202" style="stop-color:#BE2745"/>
			<stop  offset="0.995" style="stop-color:#F06578"/>
			<stop  offset="1" style="stop-color:#F16679"/>
		</radialGradient>
		<path class="st14" d="M32.68,54.59c0,0,2.17-3.31,0.04-5.59C32.72,48.99,29.92,51.52,32.68,54.59z"/>
		
			<radialGradient id="SVGID_16_" cx="5306.9668" cy="3374.3264" r="23.0871" gradientTransform="matrix(-0.7155 0.6986 -0.6986 -0.7155 6186.7476 -1245.2097)" gradientUnits="userSpaceOnUse">
			<stop  offset="0.1461" style="stop-color:#AB0334"/>
			<stop  offset="0.4202" style="stop-color:#BE2745"/>
			<stop  offset="0.995" style="stop-color:#F06578"/>
			<stop  offset="1" style="stop-color:#F16679"/>
		</radialGradient>
		<path class="st15" d="M34.45,27.49C31.55,16.38,21.92,9.47,19.57,11.94c-2.36,2.47-3.39,11.3,3.02,20.92
			c5.91,8.86,8.79,15.88,8.79,15.88S37.36,38.6,34.45,27.49z"/>
		
			<radialGradient id="SVGID_17_" cx="5726.6123" cy="1961.1941" r="25.4978" gradientTransform="matrix(-0.8346 0.5508 -0.5508 -0.8346 5895.0469 -1471.7721)" gradientUnits="userSpaceOnUse">
			<stop  offset="0.1461" style="stop-color:#AB0334"/>
			<stop  offset="0.4202" style="stop-color:#BE2745"/>
			<stop  offset="0.995" style="stop-color:#F06578"/>
			<stop  offset="1" style="stop-color:#F16679"/>
		</radialGradient>
		<path class="st16" d="M33.8,47.22c0,0,11.24-12.03,11.27-24.92C45.1,9.41,39.33,1.25,35.24,3.32c-3.46,1.76-7.23,6.2-1.89,18.35
			C38.69,33.82,35.33,43.79,33.8,47.22z"/>
		
			<radialGradient id="SVGID_18_" cx="5779.9536" cy="1489.6847" r="32.0253" gradientTransform="matrix(-0.8649 0.5021 -0.5021 -0.8649 5784.2285 -1568.1101)" gradientUnits="userSpaceOnUse">
			<stop  offset="0.1461" style="stop-color:#AB0334"/>
			<stop  offset="0.4202" style="stop-color:#BE2745"/>
			<stop  offset="0.995" style="stop-color:#F06578"/>
			<stop  offset="1" style="stop-color:#F16679"/>
		</radialGradient>
		<path class="st17" d="M35.29,46.8c0,0,13.79-3.39,21.73-17.42c8.94-15.8,2.29-24.26,2.29-24.26S49.1,11.88,47.25,21.89
			C45.4,31.9,43.65,37.18,35.29,46.8z"/>
		
			<radialGradient id="SVGID_19_" cx="5394.9868" cy="3106.0969" r="32.1251" gradientTransform="matrix(-0.7402 0.6725 -0.6725 -0.7402 6122.3804 -1280.9324)" gradientUnits="userSpaceOnUse">
			<stop  offset="0.1461" style="stop-color:#AB0334"/>
			<stop  offset="0.4202" style="stop-color:#BE2745"/>
			<stop  offset="0.995" style="stop-color:#F06578"/>
			<stop  offset="1" style="stop-color:#F16679"/>
		</radialGradient>
		<path class="st18" d="M38.26,47.13c0,0,25.59-4.82,37.17-22.08c8.91-13.27-6.8-11.21-13.44-3.63
			C58.47,25.46,50.87,41.63,38.26,47.13z"/>
		
			<radialGradient id="SVGID_20_" cx="5448.6777" cy="2953.1858" r="34.0034" gradientTransform="matrix(-0.7536 0.6573 -0.6573 -0.7536 6087.4731 -1307.3557)" gradientUnits="userSpaceOnUse">
			<stop  offset="0.1461" style="stop-color:#AB0334"/>
			<stop  offset="0.4202" style="stop-color:#BE2745"/>
			<stop  offset="0.995" style="stop-color:#F06578"/>
			<stop  offset="1" style="stop-color:#F16679"/>
		</radialGradient>
		<path class="st19" d="M39.71,48.31c0,0,29.06,4.46,44.93-8.2c14.04-11.2,0.92-16.73-10.33-9.92
			C68.03,33.99,42.59,48.67,39.71,48.31z"/>
		
			<radialGradient id="SVGID_21_" cx="5394.2686" cy="3102.0381" r="31.9302" gradientTransform="matrix(-0.7402 0.6725 -0.6725 -0.7402 6122.3804 -1280.9324)" gradientUnits="userSpaceOnUse">
			<stop  offset="0.1461" style="stop-color:#AB0334"/>
			<stop  offset="0.4202" style="stop-color:#BE2745"/>
			<stop  offset="0.995" style="stop-color:#F06578"/>
			<stop  offset="1" style="stop-color:#F16679"/>
		</radialGradient>
		<path class="st20" d="M42.56,50.37c0,0,20.92,11.86,43.71,7.7c12.51-2.28,13.04-6.04,10.58-8.7c-2.46-2.67-7.65-6.87-20.76-4.82
			C67.37,45.91,55.41,51.02,42.56,50.37z"/>
	</g>
	<g>
		<path class="st21" d="M53.46,67.93c-0.1,0.03-0.09-0.05-0.17-0.03c-0.08-0.81-0.53-1.25-0.88-1.79c-0.2-0.25-0.78-0.41-1.02-0.74
			c-0.27,0-0.26-0.28-0.54-0.27c-0.21-0.3-0.61-0.4-0.88-0.64c-0.37-0.09-0.79-0.21-1.15-0.4c-0.8,0.23-0.86-0.36-1.29-0.68
			c0.13-0.37-0.24-0.74-0.2-1.12c0.01-0.12-0.12-0.11-0.17-0.17c0.1-0.48,0.45-0.61,0.78-0.71c0.13,0.06,0.44-0.03,0.64-0.03
			c0.44-0.02,0.89,0.05,1.25,0.1c0.02,0.12,0.13,0.08,0.2,0.07c0.13,0.1,0.2,0.25,0.44,0.24c0.28,0.34,0.89,0.42,0.91,0.91
			c0.23,0.16,0.29,0.29,0.54,0.44c0.15,0.36,0.41,0.63,0.48,1.01c0.01,0.05-0.02,0.12,0,0.17c0.11,0.36,0.32,0.68,0.41,1.01
			c0.05,0.23,0.02,0.47,0.07,0.71c0.04,0.19,0.16,0.32,0.24,0.51c0.09,0.24,0.13,0.77,0.37,1.05C53.44,67.7,53.53,67.79,53.46,67.93
			"/>
		<path class="st21" d="M92.21,67.54c0.77,0.25,1.62,0.21,1.9,0.95c0.09,0.08,0.12,0.03,0.24,0.1c-0.05,0.08-0.07,0.06-0.03,0.17
			c-0.11-0.02-0.13,0.05-0.2,0.07c0.11,0.05,0.24,0.29,0.07,0.34c0.06,0.07,0.05,0.16,0.17,0.1c-0.01,0.18,0,0.41-0.17,0.51
			c0.14,0.12,0.02,0.31,0.24,0.37c-0.03,0.11-0.05,0.22-0.1,0.3c-0.12,0.03-0.08,0.01-0.2,0.03c0.03,0.18-0.07,0.22-0.14,0.3
			c0.21,0.18,0.01,0.35-0.03,0.61c-0.84-0.23-1.39-0.62-1.83-1.32h-0.34c-0.25-0.1-0.21-0.39-0.27-0.64
			c-0.06-0.22-0.2-0.43-0.2-0.64c-0.01-0.22,0.15-0.4,0.14-0.61c0.11-0.07,0.21-0.15,0.34-0.2c-0.07-0.07-0.02-0.16,0-0.24
			C91.94,67.7,92.18,67.78,92.21,67.54"/>
		<path class="st21" d="M69.78,85.31c-0.04,0.11,0,0.1-0.07,0.2c-0.73-0.03-1.67,0.33-2.33,0.03c-0.04,0.03-0.1,0.06-0.14,0.1
			c-0.19-0.13-0.42-0.01-0.57-0.17c-0.6,0.18-1.31-0.12-1.96,0c-0.15-0.04-0.45-0.14-0.54-0.03c-0.65-0.18-1.23-0.2-1.76,0.03
			c-0.27-0.15-0.4-0.43-0.81-0.44c-0.05-0.09-0.16-0.13-0.14-0.3c-0.13-0.12-0.34-0.31-0.3-0.47c-0.52-0.45-0.28-0.86-0.03-1.49
			c0.09-0.23,0.33-0.63,0.61-0.71c0.41-0.39,0.75-0.85,1.18-1.22v-0.14c0.53-0.53,0.99-1.13,1.45-1.72
			c0.44-0.17,0.56-0.66,0.95-0.88c0.32-0.59,0.79-1.03,1.15-1.59c-0.01-0.14,0-0.25,0.07-0.3c-0.49-0.28-1.69,0.05-2.37,0.2
			c-0.19,0.04-0.34,0.06-0.47,0.17c-0.54,0.09-1.1,0.35-1.62,0.34c-0.05,0.03-0.07,0.09-0.07,0.17c-0.64,0.18-1.04-0.01-1.52-0.24
			c-0.1,0.02,0.03,0.07,0,0.14c-0.22-0.06-0.23-0.33-0.54-0.3c-0.1-0.13-0.17-0.28-0.37-0.31c-0.17-0.29-0.39-0.52-0.54-0.74
			c-0.42-0.89-0.36-2.48,0.14-3.35c0.12-0.81,0.56-1.58,0.84-2.33c0.26-0.16,0.31-0.52,0.51-0.74c0.22-0.08,0.4-0.19,0.54-0.34
			c0.7,0.07,1.61,0.12,2.03,0.74c0.09,0.05,0.15-0.02,0.24,0.07c0.09,0.8-0.4,1.52-0.68,2.1c-0.14-0.01-0.17,0.08-0.3,0.07
			c-0.08,0.16-0.32,0.29-0.44,0.51c-0.07,0.12-0.06,0.32-0.13,0.47c-0.17,0.35-0.4,0.73-0.51,1.08c-0.05,0.17-0.02,0.4-0.07,0.57
			c-0.05,0.2-0.16,0.31-0.13,0.58c0.03,0.33,0.12,0.8,0.47,0.98c0.98,0.07,1.94-0.16,2.84-0.37c0.3-0.07,0.57-0.08,0.85-0.14
			c0.1-0.02,0.18-0.11,0.27-0.14c0.17-0.04,0.33,0.01,0.47-0.03c0.28-0.08,0.74-0.36,1.25-0.2c0.32,0.21,0.68,0.43,1.01,0.54
			c0.37,0.24,0.49,0.72,0.71,1.12c-0.13,0.69-0.59,1.04-0.88,1.55c-0.1,0.01-0.14,0.06-0.24,0.07c-0.05,0.48-0.66,0.58-0.64,1.01
			c-0.21,0.03-0.38,0.29-0.57,0.44c-0.25,0.46-0.6,0.82-0.98,1.15c-0.48,0.76-1.11,1.39-1.73,2.1c-0.21,0.24-0.42,0.53-0.54,0.85
			c0.27,0.22,0.73,0.13,0.98,0.37c0.58,0.03,1.21,0.04,1.76,0c0.06-0.01,0-0.16,0.13-0.1c-0.02,0.24,0.29-0.21,0.34-0.34
			c0.13-0.02,0.15,0,0.24-0.1c0.11-0.01,0.13,0.05,0.2,0.07c0.07-0.05,0.21-0.04,0.24-0.14c0.59,0.11,1.35,0.1,1.93,0.4
			c0.26-0.11,0.37,0.11,0.57,0.07c0.11,0.31,0.71,0.42,0.68,0.74C70.39,85.23,70.06,85.22,69.78,85.31"/>
		<path class="st21" d="M140.55,80.76c0.1,0.01,0.15,0.06,0.13,0.17C140.59,80.92,140.54,80.87,140.55,80.76"/>
		<path class="st21" d="M129.21,82.96c0.06,0.06,0.15,0.07,0.2,0.14c0,0.13-0.15,0.1-0.27,0.1
			C129.14,83.05,129.29,83.09,129.21,82.96"/>
		<path class="st21" d="M128.2,83.4H128C128.01,83.29,128.18,83.27,128.2,83.4"/>
		<path class="st21" d="M56.94,84.06c0.05,0.22-0.03,0.6-0.27,0.64C56.69,84.56,56.8,84.2,56.94,84.06"/>
		<path class="st21" d="M103.88,84.45c0.06,0.03,0.12,0.06,0.1,0.17C103.85,84.67,103.88,84.54,103.88,84.45"/>
		<path class="st21" d="M103.75,84.73c-0.02,0.07-0.1,0.14-0.17,0.07C103.6,84.73,103.69,84.67,103.75,84.73"/>
		<path class="st21" d="M103.31,84.86c0.21,0.02-0.03,0.17-0.07,0.24C103.12,85.01,103.31,84.94,103.31,84.86"/>
		<path class="st21" d="M102.77,85.16c0.07-0.01,0.11,0.03,0.1,0.1c-0.06-0.06-0.13,0.01-0.13,0.1c-0.11,0.02-0.15-0.03-0.13-0.13
			C102.64,85.28,102.77,85.26,102.77,85.16"/>
		<path class="st21" d="M102.39,85.37c0.03,0.03,0.04,0.08,0.03,0.14c-0.2-0.1-0.39,0.26-0.51,0.03
			C102.11,85.49,102.2,85.46,102.39,85.37"/>
		<path class="st21" d="M101.88,85.57c-0.04,0.14-0.43,0.27-0.5,0.1C101.61,85.66,101.66,85.57,101.88,85.57"/>
		<path class="st21" d="M69,85.69h0.2C69.22,85.81,68.97,85.84,69,85.69"/>
		<path class="st21" d="M83.21,86.28c0.06,0.01,0.07-0.04,0.14-0.03c0.01,0.06-0.03,0.06-0.07,0.07c0.01,0.03,0.03,0.06,0.07,0.07
			C83.31,86.47,83.2,86.36,83.21,86.28"/>
		<path class="st21" d="M82.67,87.53h0.1c-0.03,0.12,0.06,0.18,0,0.24C82.68,87.75,82.65,87.66,82.67,87.53"/>
		<path class="st21" d="M82.37,88.92c0.04,0.01,0.05,0.06,0.1,0.07c-0.02,0.06-0.01,0.15-0.1,0.13
			C82.3,89.06,82.39,89.04,82.37,88.92"/>
		<path class="st21" d="M141.12,96.52c0.13-0.02,0.22,0.27,0.03,0.27C141.1,96.68,141.17,96.64,141.12,96.52"/>
		<path class="st21" d="M143.18,108.83c0.05,0.01,0.03,0.09,0.04,0.14h-0.1C143.08,108.86,143.17,108.89,143.18,108.83"/>
		<path class="st21" d="M82.7,91.05c0-0.23-0.14-0.39-0.17-0.68C82.48,90.61,82.62,90.85,82.7,91.05 M83.11,87.09
			c0.04,0,0.03,0.06,0.07,0.07c0.01-0.08,0.18,0,0.2-0.07c0-0.06-0.02-0.11-0.07-0.13C83.3,87.14,83.13,86.97,83.11,87.09
			 M83.01,67.92c0.12-0.28,0.24-0.89,0.17-1.25C83.05,66.98,82.92,67.58,83.01,67.92 M83.08,85.91c0.11,0.27,0.02,0.63,0.07,0.98
			c0.1,0.02,0.17-0.25,0.2-0.07c0.19-0.53,0.1-1.57,0.2-2.27c-0.01-0.1-0.09-0.14-0.14-0.2c-0.02-0.11,0.09-0.12,0.14-0.07
			c0.01-0.26,0.02-0.52-0.14-0.61c-0.01-0.09,0.05-0.11,0.14-0.1c-0.08-0.41,0.15-1.06-0.17-1.35c-0.01-0.07,0.05-0.06,0.1-0.07
			c0.05-0.19-0.11-0.18-0.17-0.27c-0.03-0.1,0.07-0.06,0.14-0.07v-0.27c-0.03-0.04-0.07,0-0.14-0.07c0.01-0.05,0.09-0.03,0.14-0.03
			c0.06-0.16-0.16-0.21,0-0.27c-0.05-0.09-0.09,0.13-0.2,0.1c0-0.13,0.14-0.13,0.17-0.24c-0.12-0.28,0-0.7-0.27-0.98
			c0.29-0.13-0.15-0.41,0.07-0.54c-0.03-0.09-0.09,0.05-0.13-0.03c0.13-0.46-0.3-0.78-0.17-1.08c-0.03-0.09-0.13-0.11-0.17-0.2
			c-0.07-0.73-0.29-1.54-0.57-2.13c-0.02-0.29,0.07-0.81-0.24-0.91c0.13-0.14,0.04-0.27-0.1-0.37c0.01-0.08,0.07-0.11,0.1-0.17
			c-0.22-0.38-0.06-0.83-0.34-1.15c0.03-0.08,0.14-0.09,0.1-0.24c-0.3-0.48-0.26-1.48-0.47-1.93c0.08,0.02,0.05-0.06,0.1-0.07
			c-0.19-0.42-0.03-0.9-0.24-1.42c0.09,0.09,0.03-0.05,0.1-0.07c-0.01-0.06-0.01-0.15-0.1-0.14c0.12-0.23,0.06-0.47-0.04-0.57
			c0.03-0.06,0.06-0.01,0.1,0c-0.24-0.68,0.03-1.91-0.07-2.5c0.01-0.08,0.09-0.08,0.13-0.03c0-0.47,0.29-1.14,0.2-1.59
			c0.17-0.12,0.37-0.5,0.24-0.71c0.12-0.05,0.08-0.26,0.24-0.27c0.12-0.48,0.27-1.06,0.58-1.42c-0.03-0.34,0.3-0.62,0.57-0.85
			c0.34,0.06,0.73,0.06,0.88,0.41c0.52-0.16,0.29,0.5,0.68,0.54c0.05,0.35-0.2,0.42-0.1,0.71c-0.26,0.13-0.2,0.5-0.37,0.64
			c0.01,0.51-0.14,1.1-0.34,1.69c0.18,1.47-0.3,2.58-0.71,3.62c-0.06,0.86-0.26,1.67,0,2.71c-0.1,0.63,0.22,1.43,0.24,2.4
			c0.21,0.1,0.09,0.6,0.1,0.74c0.01,0.13,0.14,0.21,0.17,0.34c0,0.01-0.07,0.31,0.07,0.44c0.15-0.34,0.23-0.69,0.17-1.01
			c0.32-0.79,1.43-1.07,2.2-0.71c0.03-0.04,0.12-0.01,0.1-0.1c0.12,0.17,0.4,0.22,0.54,0.47c0.18,0.33,0.06,0.73,0.34,1.08
			c-0.06,0.19-0.23,0.5-0.27,0.81c-0.12,0.06-0.23,0.13-0.34,0.2c-0.36-0.1-0.87-0.23-1.25-0.37c-0.17,0.01-0.42,0.03-0.61-0.07
			c-0.18,0.11-0.37,0.2-0.51,0.34c-0.08-0.03-0.19-0.03-0.2-0.13c-0.03,0.16-0.01,0.5,0.17,0.68c0.05,0.51,0.17,0.98,0.37,1.42
			c-0.07,0.09,0.05,0.14-0.03,0.2c0.36,0.72,0.09,1.6,0.54,2.37c-0.07-0.06-0.09-0.01-0.17,0c0.02,0.07,0.1,0.1,0.17,0.13
			c-0.09,0.16,0.15,0.33-0.03,0.44c0.1,0.22,0.15,0.47,0.07,0.61c0.18,1.21,0.03,2.59-0.07,3.76c-0.02,0.36,0.05,0.75-0.1,1.01
			c0.04,0.14-0.01,0.16,0.07,0.27c-0.16,0,0.04,0.05,0,0.14c-0.11,0.43-0.16,1.13-0.1,1.62c0,0.01,0.07,0.12,0.07,0.14
			c-0.01,0.1-0.12,0.18-0.14,0.27c-0.11,0.61,0.13,1.27,0.04,1.86c-0.21,0.42-0.4,1.01-0.98,1.05c-0.53,0.04-0.86-0.36-1.15-0.71
			c0.16-0.02-0.1-0.09-0.1-0.24c0.06,0,0.07,0.04,0.13,0.03c-0.28-0.59-0.27-1.23-0.27-1.76c0.11-0.03,0.1,0.05,0.17,0.07
			c0.02,0.1-0.18,0.26,0,0.3c-0.06-0.12,0.19-0.48,0-0.64c0.09-0.02,0.07,0.07,0.13,0.07c-0.07-0.07-0.01-0.09,0.03-0.13
			c-0.01-0.05-0.09-0.03-0.14-0.03c0.03-0.06,0.08-0.11,0.14-0.14c0-0.23-0.07-0.88,0.07-1.29c0.16,0.1,0.07,0.3,0.07,0.47
			c0.19-0.16,0.09-0.49,0.27-0.68c-0.21-0.5,0.13-0.89-0.1-1.35C83.1,86.25,82.94,85.98,83.08,85.91"/>
		<path class="st21" d="M138.42,66.45c-0.57,0.27-1.24,0.63-1.35,1.25c-0.15,0.09-0.22,0.25-0.37,0.34c-0.5,0-0.92-0.02-1.35-0.34
			c-0.66-0.05-1.24-0.65-1.59-1.19c-0.09-0.14-0.26-0.3-0.3-0.47c-0.02-0.08,0.08-0.27-0.07-0.34c0.04-0.04,0.04-0.12,0.04-0.2
			c0.3-0.4,0.96-0.45,1.35-0.68c0.34-0.29,0.78-0.43,1.08-0.68c0.19-0.03,0.72-0.36,0.95-0.44c0.31-0.11,0.7-0.33,0.91-0.51
			c0.16,0.01,0.28-0.02,0.3-0.14c0.27,0.04,0.46-0.28,0.74-0.34c0.34-0.04,0.72,0.09,1.05,0.07c0,0.03,0.04,0.02,0.07,0.03
			c0.04,0.05,0.04,0.09,0,0.14c0.63,0.05,1.31,0.41,1.52,1.08c-0.03,0.13-0.03,0.43,0.07,0.44c-0.08,0.12,0.19,0.46-0.07,0.54
			c0.05,0.03,0.05,0.11,0.13,0.1c-0.19,0.56-0.28,1.12-0.61,1.66c-0.01,0.1,0.08,0.1,0.07,0.2c-0.11,0.04-0.18,0.11-0.17,0.27
			c-0.04,0.05-0.16,0.02-0.2,0.07c0.07,0.17-0.09,0.22-0.07,0.37c-0.06,0.03-0.12,0.06-0.2,0.07c0.01,0.08,0.12,0.06,0.1,0.17
			c-0.21,0.18-0.38,0.33-0.48,0.54c0.01,0.03,0.03,0.03,0.03,0.07c0.96-0.26,2.21-0.42,3.21-0.71c-0.02,0.11,0.49-0.08,0.71-0.1
			c0.33-0.03,0.75-0.1,1.15-0.1c0.47-0.01,0.99,0.16,1.45,0.24c0.09,0.02,0.19-0.02,0.27,0c0.35,0.09,0.57,0.35,0.98,0.34
			c0.18,0.22,0.43,0.57,0.54,0.75c0.06,0.3-0.22,0.75-0.03,1.18c-0.06,0.34-0.11,0.64-0.37,0.85c-0.06-0.03-0.17-0.01-0.2-0.07
			c-0.44,0.1-0.92-0.35-1.39-0.37c-0.58-0.32-1.19-0.77-1.89-0.91c-0.2-0.24-0.49-0.28-0.81-0.34c-0.24-0.04-0.48-0.15-0.74-0.2
			c-0.12-0.02-0.26,0.03-0.37,0c-0.13-0.03-0.2-0.15-0.34-0.17c-0.21-0.03-0.45,0.05-0.64,0.03c-0.01-0.05,0.03-0.06,0.03-0.1
			c-1.16-0.36-2.09,0.14-2.6,0.91c-0.1-0.01-0.11,0.08-0.2,0.07c-0.06,0.14-0.2,0.35-0.37,0.47c-0.1,0.49-0.75,0.72-0.98,1.18
			c-0.08,0-0.15,0.16-0.2,0.07c-0.1,0.01-0.06,0.17-0.2,0.14c0,0.28-0.4,0.27-0.27,0.58c-0.17,0.03-0.46,0.23-0.64,0.37
			c0.26,0.29,0.42-0.09,0.91,0.04c0.32,0.08,0.7,0.13,0.78-0.2c0.4,0,0.72,0.24,1.08,0c0.63,0.06,1.45,0.04,2.17,0.1
			c0.02-0.07,0.2,0.02,0.17-0.1c0.22,0.04,0.48,0.17,0.54-0.03c0.25,0.03,0.42-0.2,0.68-0.17c0.03-0.04,0.04-0.09,0.03-0.17
			c0.3-0.1,0.69-0.4,1.05-0.27c0.18-0.09,0.39-0.04,0.61-0.03c-0.01,0.03-0.03,0.03-0.03,0.07c0.06-0.01,0.09-0.07,0.17-0.07
			c0,0.03-0.04,0.03-0.07,0.03c0.25,0.09,0.46,0.1,0.74,0.2c0.01,0.05-0.03,0.06-0.03,0.1c0.52,0.09,0.63,0.4,1.25,0.44
			c0.26,0.25,1.03,0.15,1.22,0.03c0.58,0.22,1.19-0.26,1.69,0.1c0.06-0.01,0.08-0.07,0.17-0.07c0.09,0.38,0.57,0.31,0.68,0.75h0.14
			c-0.08,0.15,0.11,0.21,0.13,0.34c0.03,0.12-0.04,0.3-0.03,0.51c0,0.22,0.12,0.47,0.1,0.61c-0.03,0.15-0.17,0.21-0.14,0.41
			c-0.09,0.11-0.35,0.03-0.37,0.2c-0.29-0.04-0.53-0.1-0.84,0c-0.3-0.3-0.84-0.01-1.15-0.3c-0.49,0.21-1.32-0.23-1.69,0.27
			c0.09,0.22-0.32,0.3-0.24,0.51c-0.22,0.19-0.39,0.45-0.68,0.57c-0.2-0.05-0.44,0.12-0.54,0.27c-0.05-0.1-0.16,0.07-0.2-0.03
			c-0.09,0.02-0.13,0.1-0.2,0.14c-0.18-0.08-0.51,0.04-0.47,0.17c-0.04,0.01-0.23,0.02-0.14,0.17c-0.25,0.04-0.22,0.45-0.37,0.64
			c0.01,0.07,0.09-0.05,0.14,0.03c0.01,0.09-0.07,0.09-0.14,0.1c-0.02,0.12,0.12,0.08,0.1,0.2c-0.17,0.01,0.03,0.06,0,0.14
			c-0.27-0.25-0.23,0.26-0.2,0.47c-0.24,0.34-0.13,0.77-0.17,1.18c-0.04,0.48-0.01,0.93-0.13,1.42c0.03,0.04,0.06,0.1,0.1,0.13
			c-0.14,0.8,0.09,1.55-0.03,2.54c0.1,0.23,0.15,0.45,0.03,0.64c0.09,0.15,0.11,0.93,0.07,1.29c0.03,0.05,0.03,0.13,0.1,0.14
			c-0.01,0.38-0.1,0.84,0.07,1.15c-0.05,0.38-0.07,0.64,0.07,1.01c-0.06,0-0.09,0.06,0,0.14c-0.01,0.05-0.03,0-0.07,0
			c0.06,0.66,0.05,0.99,0.1,1.52c0.03,0.3-0.07,0.81,0.07,1.08c-0.16,0.32,0.12,0.7-0.07,1.15c0.02,0.08,0.11,0.09,0.14,0.17
			c-0.17,1.58,0.15,3.7,0.03,4.97c0.14,0.41,0.09,0.76,0.17,1.22c-0.04,0.01-0.05,0.06-0.1,0.07c0.09,0.24,0.13,0.74,0.14,1.05
			c0,0.17-0.09,0.24-0.03,0.37c0.05,0.1,0,0.16,0,0.41c0,0.66,0.09,1.57,0.14,2.23c-0.21,0.53,0.11,1.11-0.17,1.66
			c0.07,0.14-0.01,0.44,0.1,0.54c-0.12,0.38,0,0.7-0.07,1.25c-0.07,0.01-0.09,0.07-0.14,0.1c0.04,0.27,0.07,0.64-0.1,0.88
			c0.06,0.12,0.17,0.17,0.27,0.17c-0.28,0.1-0.3,0.61-0.51,0.68c0.04,0.08,0.13,0.11,0.13,0.24c-0.1-0.09-0.05,0.15-0.2,0.1
			c0.13,0.11,0.07,0.41,0,0.41c0.01,0.07,0.07,0.08,0.07,0.17c-0.17-0.23-0.06,0.27-0.27,0.2c-0.03,0.11,0.06,0.14,0,0.2
			c-0.04,0-0.06,0.01-0.07,0.03c-0.28-0.04-0.24-0.73-0.51-0.37c0.01,0.06,0.13,0.03,0.1,0.14c-0.08-0.09-0.15-0.09-0.24-0.1
			c-0.03-0.08-0.07-0.13-0.07-0.24c-0.03,0.03-0.07,0.04-0.13,0.03c0.05-0.17-0.18-0.19-0.31-0.24c-0.11-0.42-0.28-0.64-0.54-0.95
			c0.07-0.55,0.54-1.63,0.34-2.27c0.17-0.37,0.13-0.87,0.17-1.25c0.07,0.02,0.09-0.02,0.13-0.03c-0.04-0.07-0.1-0.13-0.17-0.17
			c0.21-0.35-0.13-0.68,0.17-0.95c-0.22-0.16,0.05-0.34-0.1-0.58c0.28-0.15,0.05-0.56-0.07-0.75c0.03-0.03,0.08-0.04,0.13-0.04
			c0.01-0.14-0.16-0.1-0.13-0.27c0.06,0,0.07,0.04,0.13,0.03c0-0.24,0.09-0.39-0.13-0.47c0.09-0.22-0.04-0.41-0.03-0.61
			c0-0.06,0.09-0.08,0.1-0.14c0,0.02,0-0.25,0-0.24c-0.02-0.14-0.14-0.23-0.13-0.4c0.13-0.07,0.14-0.26,0.17-0.44
			c-0.17-0.04-0.02,0.19-0.1,0.1c-0.15,0,0.03-0.17,0.07-0.2c-0.06-0.06-0.16-0.08-0.2-0.17c0.01-0.09,0.06,0.04,0.13,0
			c0.03-0.16-0.09-0.19-0.13-0.27c0.06-0.07,0.04-0.21,0.17-0.2c-0.05-0.3-0.17-0.37-0.17-0.61c0.01-0.07,0.09,0.05,0.1-0.07
			c-0.14-0.12-0.12-0.23-0.17-0.41c0.06-0.06,0.1,0.02,0.17,0.03c0.01-0.29-0.15-0.33-0.17-0.64c0.07,0.02,0.09-0.02,0.14-0.03
			c-0.13-0.09,0.03-0.27-0.14-0.34c-0.01-0.09,0.05-0.11,0.14-0.1c0.01-0.14-0.2-0.05-0.17-0.2c0.21-0.01,0.17-0.21,0.1-0.34
			c-0.06,0-0.09,0.02-0.1,0.07c-0.06-0.05,0.04-0.2,0.13-0.2c-0.06-0.41,0.16-0.75-0.17-1.02c-0.03-0.06,0.1-0.11,0-0.13
			c0.01-0.05,0.09-0.03,0.14-0.03c-0.11-0.16-0.08-0.41-0.17-0.51c0.03-0.07,0.08-0.12,0.13-0.17c0.03-0.15-0.11-0.14-0.13-0.24
			c-0.03-0.13,0.13-0.07,0.13-0.17c-0.05-0.36-0.11-0.8-0.1-1.08c0.02-0.55,0.16-0.95-0.1-1.32c-0.06-0.04,0.08-0.17,0.1-0.24
			c-0.15-0.21-0.08-0.37-0.14-0.68c-0.02,0.1-0.23,0.17-0.2-0.03c0.1-0.02,0.06-0.02,0.17,0c0.04-0.1,0.06-0.23,0.13-0.3
			c-0.1-0.5,0.14-1-0.2-1.42c0.05-0.01,0.06,0.03,0.1,0.03c0.16-0.28-0.03-0.53-0.07-0.78c-0.05-0.3,0.04-0.58-0.13-0.78
			c-0.04-0.13-0.3-0.04-0.31-0.2c0.17-0.02,0.31-0.08,0.41-0.17c-0.04-0.07-0.1-0.13-0.14-0.2c0.09-0.42-0.07-0.96-0.03-1.39
			c-0.13-0.03-0.02,0.18-0.17,0.13c-0.08-0.13,0.13-0.22,0.2-0.3c-0.13-0.15-0.17-0.2-0.13-0.47c-0.28-0.17-0.12-0.45-0.1-0.68
			c0.1-0.02,0.09,0.09,0.17,0.1c0.02-0.06-0.06-0.29-0.17-0.34c-0.04-0.09,0.16-0.09,0-0.1c0-0.16,0.05,0.04,0.13,0
			c0.08-0.03-0.03-0.28,0.03-0.37c-0.07,0.01-0.07,0.08-0.07,0.17c-0.04-0.03-0.09-0.05-0.17-0.03c0.09-0.07,0.01-0.15,0-0.3
			c0.06,0.01,0.06-0.03,0.07-0.07c0.07,0.01,0.07,0.09,0.13,0.1c0.1-0.41-0.25-0.08-0.17-0.37c0.06,0,0.07,0.04,0.14,0.04
			c-0.04-0.17-0.03-0.42-0.14-0.44c-0.11-0.29,0.22-0.71,0.14-1.08c-0.09-0.09-0.24,0.07-0.24-0.14c0.11,0.11,0.12-0.06,0.24-0.03
			c0-0.05-0.02-0.13,0.03-0.14c-0.01-0.12-0.22-0.03-0.2-0.17c0.14,0.05-0.06-0.29,0-0.41c0.14-0.01,0.2,0.05,0.17,0.2
			c0.1-0.11,0.11-0.3-0.03-0.4c0.01-0.11,0.1-0.15,0.14-0.24c-0.05-0.09-0.12-0.18-0.2-0.24c0.07-0.08-0.01-0.36,0.2-0.41
			c-0.06-0.1-0.09-0.03-0.2-0.03c-0.05-0.2,0.14-0.17,0.1-0.37c0.08,0.02,0.07-0.06,0.17-0.03c-0.14-0.4,0.06-0.73,0.03-1.12
			c0.14,0.08-0.03-0.07-0.03-0.14c0.09-0.68,0.22-1.35,0.17-2.1c-0.07-0.08-0.13-0.15-0.24-0.1c-0.01-0.06,0.04-0.07,0.03-0.14
			c-0.1,0.1-0.33-0.07-0.44,0.14c-0.54-0.11-1-0.23-1.49-0.07c-0.07,0.02-0.06-0.05-0.07-0.1c-0.24,0.18-0.86-0.09-1.05,0.24
			c-0.24,0.02-0.59,0.1-0.68-0.07c-0.33,0.12-1.34-0.14-1.79,0.07c-0.04-0.03,0-0.08-0.07-0.14c-0.68,0.19-1.56,0.18-2.4,0.31
			c-0.1,0.01-0.44,0.06-0.61,0.1c-0.1,0.03-0.18,0.14-0.31,0.17c-0.27,0.07-0.62,0.01-0.88,0.03c-0.18,0.02-0.35,0.15-0.54,0.13
			c-0.33,0.27-0.85,0.37-0.91,0.81c-0.24,0.02-0.73,0.06-0.88-0.03c0.06-0.1,0.06-0.25,0.17-0.3c-0.04-0.05-0.11-0.07-0.1-0.17
			c-0.05,0-0.1,0.01-0.1-0.03c-0.22,0.11-0.42,0.09-0.61,0.14c-0.16,0.25-0.4,0.42-0.68,0.54c-0.36-0.02-0.59-0.32-1.01-0.17
			c-0.36,0.13-0.72,0.59-0.95,0.88c-0.08,0.1-0.17,0.11-0.2,0.17c-0.13,0.24-0.21,0.78-0.17,0.91c-0.04,0.05-0.04,0.14-0.1,0.17
			c0.06,0.2,0.27,0.25,0.37,0.4h0.24c1.23,0.5,2.81,0.06,3.99,0.24c0.25-0.18,0.65-0.06,1.02-0.1c0.52-0.06,1.04-0.26,1.42-0.2
			c0.05,0.16,0.37,0.04,0.34-0.1c0.24-0.01,0.52,0.03,0.64-0.1c0.04,0.07,0.01,0.07,0.07,0.17c0.2-0.06,0.57-0.06,0.98-0.07
			c0.05-0.04,0.05-0.13,0.1-0.17c0.27,0.01,0.7,0.16,1.05-0.07c0.21,0.13,0.34-0.13,0.47-0.17c0.09-0.03,0.36,0,0.51-0.03
			c0.37-0.09,0.48,0.28,0.88,0.37c0.03,0.09-0.07,0.07-0.07,0.13c0.06,0.09,0.15,0.2,0.24,0.34c0.05,0.72,0.43,1.63,0.14,2.27
			c0.07,0.05,0.12,0.13,0.1,0.27c-0.31,0.26-0.74,0.04-1.01,0.27c-0.07,0.02-0.07-0.05-0.07-0.1c-0.26,0.31-0.94,0.08-1.18,0.51
			c-0.07,0-0.01-0.12-0.03-0.17c-0.13,0.01-0.1,0.04-0.2,0c-0.02,0.11,0.06,0.1,0.03,0.2c-0.16-0.01-0.2,0.17-0.3,0.03
			c-0.01-0.15,0.17-0.13,0.17-0.27c-0.07-0.08-0.29-0.02-0.37,0c-0.05,0.05-0.04,0.17-0.1,0.2c-0.05,0-0.1-0.14-0.14-0.03
			c-0.05-0.02,0-0.03,0-0.07c-0.05-0.08-0.11,0.11-0.17,0.14c-0.18-0.09-0.53,0.02-0.57,0.17c-0.42-0.21-0.56,0.24-0.95,0.03
			c-0.1,0.01-0.04,0.18-0.13,0.2c-0.06-0.05-0.05-0.15-0.1-0.2c-0.01,0.05-0.02,0.09-0.07,0.17c-0.31-0.2-0.51,0.11-0.78,0.17
			c-0.01-0.07,0.01-0.11,0.07-0.1c-0.47-0.05-0.73,0.04-1.12,0.21c0.02-0.12-0.16-0.05-0.17-0.14c-0.14,0.12-0.26,0.06-0.4,0.17
			c-0.02-0.07,0.02-0.09,0.03-0.13c-0.15-0.03-0.26,0.21-0.3,0.07c-0.03,0.02,0.01,0.18-0.13,0.17c0.06-0.25-0.29,0.02-0.41-0.14
			c-0.07,0.06-0.13,0.12-0.17,0.2c0.01,0.09,0.06-0.04,0.14,0c0,0.05-0.01,0.1,0.03,0.1c-0.25-0.04-0.32-0.27-0.64-0.13
			c-0.09,0.03-0.16,0.11-0.2,0.17c-0.14-0.02,0.01-0.12-0.1-0.17c-0.07,0.07-0.11-0.03-0.17,0.03c0.02,0.08,0.18,0.03,0.14,0.17
			c-0.43,0.03-0.32-0.07-0.61,0.17c-0.01-0.07,0.09-0.12,0.03-0.3h-0.1c-0.09,0.03,0.1,0.08,0,0.14c-0.08,0-0.1-0.06-0.2-0.03
			c-0.12,0.04-0.01,0.11-0.07,0.2c-0.04-0.01-0.06,0.01-0.07,0.03c-0.21-0.02-0.11-0.22-0.2-0.31c-0.12-0.02-0.08,0.12-0.2,0.1
			c0-0.07-0.09-0.04-0.07-0.14c-0.19,0.11-0.33,0.08-0.54,0.2c0.01-0.11-0.13-0.07-0.13-0.17c-0.06,0.07-0.12,0.06-0.07,0.17h-0.2
			c0.12-0.34-0.31-0.13-0.51-0.14c-0.21,0-0.34-0.16-0.4-0.07c-0.03-0.12,0.15-0.03,0.13-0.14c-0.11,0.09-0.22-0.03-0.27,0.1
			c-0.39-0.04-0.76-0.38-1.15-0.41c-0.1-0.17-0.37-0.28-0.54-0.27c-0.48-0.3-1.1-0.75-1.15-1.25c-0.28-0.15-0.05-0.7-0.2-0.91
			c0.06-0.41,0.1-0.86,0.17-1.25c0.19-0.16,0.25-0.37,0.3-0.64c0.32-0.22,0.38-0.51,0.54-0.85c0.18-0.08,0.33-0.19,0.41-0.37
			c0.41-0.05,0.65-0.37,1.01-0.37c0.79-0.46,1.71-0.74,2.4-1.35c0.02-0.3-0.04-0.58-0.2-0.78c0.02-0.05,0.03,0,0.07,0
			c-0.04-0.12-0.04-0.28-0.17-0.3c0.03-0.38-0.31-0.65-0.24-1.08c-0.04-0.08-0.12-0.13-0.2-0.17c-0.37,0.33-0.74,0.38-0.98,0.81
			c-0.33,0.04-0.36,0.39-0.68,0.44c-0.58,0.81-1.37,1.47-2.13,1.99c-0.15,0.1-0.17,0.33-0.34,0.41c0.09,0.24-0.04,0.59-0.2,0.68
			c0.05,0.48-0.04,0.75-0.14,1.15c0.07,0.05,0.11,0.08,0.2,0.07c0,0.1-0.1,0.08-0.1,0.17c0.14,0.27,0.08,0.88-0.03,1.19
			c0.08,0.03,0.07,0.15,0.07,0.27c-0.11-0.01-0.05,0.15-0.2,0.1c-0.1,0.04,0.11,0.07,0.07,0.17h-0.1c-0.04,0.19,0.1,0.22,0.17,0.3
			c-0.07,0.06-0.05,0.19-0.2,0.17c0.13,0.52-0.31,0.81-0.27,1.25c0.1,0.02,0.06-0.09,0.17-0.07c-0.03,0.12,0.06,0.14,0,0.2
			c-0.11,0.06-0.24-0.01-0.37,0.03c0.01,0.07,0.15,0.01,0.17,0.07c-0.06,0.28-0.09,0.59-0.24,0.85c0.03,0.11,0.03,0.24,0.2,0.2
			c-0.11,0.15-0.22,0.09-0.24,0.3c0.03-0.02,0.06-0.03,0.1-0.03c-0.07,0.06-0.1,0.17-0.2,0.2c0.06,0.1,0.11,0.21,0.13,0.34
			c-0.08,0.02-0.12,0.08-0.17,0.14c0.1-0.03,0.04,0.16-0.07,0.2c0.29,0.36-0.33,0.71-0.24,1.08c-0.2,0.12-0.16,0.29-0.34,0.44
			c-0.17,0.05-0.43-0.05-0.57,0c0.01-0.08-0.11-0.02-0.2-0.14c-0.03,0.03-0.07,0.07-0.1,0.1c-0.09,0-0.12-0.06-0.17-0.1
			c-0.02,0.05-0.17-0.01-0.14,0.1c-0.1-0.14-0.38-0.14-0.47,0.03c-0.31-0.06-0.55,0.02-0.81,0.07c-0.3-0.13-0.52-0.34-0.71-0.58
			c0-0.4-0.16-0.8-0.07-1.22c0.01-0.07,0.11-0.34,0.1-0.51c-0.01-0.27-0.11-0.39-0.03-0.64c0.04-0.12,0.19-0.22,0.13-0.44
			c0.14-0.02,0.15-0.17,0.14-0.34c0.18-0.33,0.44-0.6,0.47-1.15c0.19-0.05,0.1-0.4,0.34-0.4c0-0.55,0.27-1.1,0.24-1.69
			c0.08-0.15,0.21-0.25,0.14-0.4c0.01-0.05,0.03,0,0.07,0c-0.16-0.28,0.14-0.45-0.07-0.68c0.13-0.06,0-0.39,0.13-0.44
			c-0.11-0.09,0.01-0.36-0.07-0.51h0.07c-0.22-0.47-0.33-1.15-0.41-1.69c-0.13-0.12-0.1-0.06-0.17-0.24
			c-0.49,0.27-1.01,0.76-1.28,1.22c-0.47,0.17-0.67,0.61-1.32,0.61c-0.12-0.12-0.24-0.23-0.44-0.27c-0.04-0.32-0.18-0.54-0.2-0.88
			c-0.34-0.48-0.52-1.35-0.03-1.79c0.76-0.38,1.39-1.14,1.79-2c0.65-0.72,1.05-1.7,1.52-2.6c-0.05-0.11-0.15-0.16-0.24-0.24
			c-0.03,0.03-0.09,0.02-0.1,0.07c0.01-0.13-0.26-0.02-0.3-0.14c-0.11,0.06-0.1,0.04-0.24,0.07c-0.41-0.24-0.87-0.23-1.15-0.68
			c-0.38-0.03-0.53-0.31-0.85-0.48c0.05-0.21-0.19-0.22-0.31-0.34c-0.05-0.06-0.07-0.2-0.13-0.27c-0.17-0.19-0.55-0.44-0.71-0.64
			c-0.08-0.11-0.1-0.29-0.17-0.41c-0.2-0.33-0.85-0.76-0.54-1.32c0.29-0.06,0.67-0.34,0.91-0.2c0.32-0.27,0.65-0.29,1.01-0.47
			c0.29,0.18,0.5,0.01,0.61-0.03c0.19-0.08,0.36-0.03,0.54-0.2c0.28,0.1,0.59-0.08,0.81,0.1c0.19-0.08,0.36-0.11,0.58-0.03
			c0.28-0.02,0.5-0.1,0.71-0.07c0.69-0.02,1.1-0.35,1.9-0.37c0.04-0.01,0.03-0.06,0.03-0.1c0.43,0.05,0.81-0.3,1.22-0.1
			c0.2-0.02,0.24,0,0.37-0.1c0.4,0.41,1.58,0.18,1.52,1.02c0.06,0.06,0.09,0.16,0.17,0.2c-0.09,0.13-0.06,0.27,0.07,0.34
			c-0.17,0.12,0,0.5-0.13,0.47c0.05,0.38-0.27,0.49-0.24,0.84c-0.07-0.01-0.09,0.02-0.13,0.03c0,0.06,0.04,0.07,0.03,0.14
			c-0.09,0-0.18,0.18-0.1,0.24c-0.12,0.29-0.37,0.44-0.61,0.61c0.03,0.19-0.17,0.4-0.41,0.44c-0.06,0.01-0.08,0.06-0.07,0.13
			c-0.18,0.02-0.31,0.23-0.44,0.31c-0.11,0.06-0.22,0.12-0.34,0.1c0,0.11-0.04,0.3-0.2,0.2c-0.06,0.09,0.03,0.13-0.07,0.2
			c-0.49,0.17-0.6,0.73-1.08,0.95c0.08,0.41-0.35,0.57-0.3,0.91c-0.26,0.18-0.37,0.49-0.54,0.74c-0.24-0.07-0.25,0.36-0.1,0.24
			c-0.01,0.06-0.1,0.06-0.07,0.17c0.75,0.28,1.54,0.56,1.83,1.39c0.36,0.08,0.75-0.15,0.98-0.4c0.3-0.04,0.44-0.13,0.51-0.34
			c0.39-0.03,0.88-0.43,1.08-0.64c0.43-0.08,0.84-0.62,1.22-0.74c0.06-0.31,0.49-0.39,0.57-0.78c0.07,0.01,0.09-0.02,0.14-0.04
			c0.14-0.31,0.12-0.59,0.17-0.84c-0.57-0.61-0.03-1.51,0.44-1.93c0.05-0.45,0.36-0.63,0.51-0.98c0.2-0.05,0.45-0.28,0.74-0.34
			c0.41-0.08,0.97-0.04,1.38,0.2c0.49,0.06,0.8,0.31,1.05,0.54c0.56,0.52,0.22,1.71,0.03,2.57c0.08,0.22,0.13,0.72,0,0.74
			c0.12,0.5-0.06,0.68-0.07,1.32c-0.04,0.21-0.04,0.56-0.07,0.88c-0.02,0.25,0.06,0.44,0,0.71c-0.01,0.07-0.09,0.11-0.1,0.17
			c-0.08,0.31,0.16,0.41,0.2,0.74c0.02,0.18-0.18,0.47-0.07,0.64c0.08-0.15,0.16-0.29,0.2-0.47c1.19-0.99,3.19-1.17,4.63-1.49
			c0.09-0.02,0.07,0.07,0.13,0.07c0.06-0.11,0.21-0.13,0.2-0.3c0.1,0.04,0.13,0.03,0.2-0.03c-0.01-0.35,0.29-0.55,0.13-0.85
			c0.26-0.07,0.18-0.5,0.44-0.57c-0.02-0.58,0.75-0.79,0.91-1.19c0.2,0.03,0.2-0.14,0.27-0.24c0.17,0.02,0.31-0.25,0.47-0.24
			c0.01-0.03-0.01-0.03-0.03-0.03c0.07,0,0.21-0.07,0.17-0.27c0.32-0.23,0.42-0.67,0.78-0.85c0.04-0.12,0.1-0.21,0.2-0.27
			C137.91,67.46,138.21,67,138.42,66.45"/>
		<path class="st21" d="M54.4,83.19c0,0.08,0.06,0.1,0.03,0.2c-0.15-0.01-0.08,0.19-0.24,0.17c-0.04,0.52-0.36,0.92-0.51,1.49
			c0.46,0.12,0.59-0.34,0.98-0.41c0.09-0.33,0.3-0.61,0.54-0.88c0.01-0.46-0.21-0.69-0.57-0.85C54.56,83,54.53,83.14,54.4,83.19
			 M57.18,82.88c-0.14-0.01,0.05-0.18-0.1-0.2C56.99,82.74,57.11,82.99,57.18,82.88 M57.11,82.61c0.02-0.11-0.15-0.21-0.17-0.17
			C57.02,82.47,57,82.61,57.11,82.61 M55.83,76.12c0.15,0.01,0.23-0.23,0.07-0.24C55.85,76,55.91,76.03,55.83,76.12 M55.89,75.85
			c0.01-0.04,0.04-0.02,0.07,0c0.05-0.12-0.09-0.3-0.04-0.21C55.93,75.71,55.78,75.78,55.89,75.85 M56.23,85.35
			c0.14-0.15,0.13-0.48,0.44-0.54c0.01,0.6-0.89,0.57-0.78,1.05c-0.66,0.41-1.3,0.39-2.33,0.37c-0.24,0.14-0.41,0.11-0.61,0.34
			c-0.12-0.05-0.2-0.18-0.14-0.31c-0.23-0.01-0.5-0.17-0.75-0.17c-0.07-0.13-0.24-0.24-0.17-0.41c-0.03-0.08-0.12-0.11-0.24-0.1
			c-0.06-0.33-0.22-0.57-0.47-0.71c-0.15-0.41-0.15-1.12,0.07-1.49c0.1-0.17,0.31-0.26,0.44-0.44c0.04-0.06,0.03-0.17,0.07-0.24
			c0.05-0.08,0.16-0.13,0.2-0.2c0.08-0.14,0.09-0.33,0.17-0.47c0.05-0.09,0.22-0.1,0.13-0.24c0.35-0.17,0.33-0.71,0.64-0.91
			c-0.12-0.03,0.02-0.11-0.07-0.17c0.1-0.15,0.24-0.26,0.27-0.47c0.23-0.02,0.18-0.26,0.27-0.41c0.08-0.13,0.32-0.24,0.4-0.41
			c0.02-0.03-0.02-0.11,0-0.13c0.17-0.23,0.37-0.42,0.51-0.64c0.02-0.03-0.03-0.08-0.03-0.07c0.11-0.18,0.17-0.34,0.27-0.48
			c0.03-0.05,0.11-0.02,0.14-0.07c0.29-0.5,0.47-1.05,0.78-1.56c0.12-0.62,0.22-0.94-0.07-1.49c-0.23-0.3-0.63-0.43-0.88-0.71
			c-0.21-0.01-0.35-0.1-0.47-0.2c-0.08,0.02-0.17-0.03-0.27,0c-0.18,0.05-0.08,0.17-0.2,0.3c-0.31,0.34-0.78,0.22-1.22,0.27
			c-0.48-0.14-0.93-0.27-1.29-0.64c-0.01-0.07,0.03-0.09,0.03-0.14c-0.46-0.12-0.48-0.7-0.78-0.98c0.14-0.45-0.08-0.76,0.07-1.22
			c0.04-0.13,0.27-0.52,0.44-0.71c0.14-0.16,0.36-0.26,0.47-0.41c0.04-0.05,0.03-0.16,0.07-0.2c0.19-0.2,0.54-0.36,0.74-0.47
			c0.25,0.12,0.64,0.02,0.81-0.2c0.08-0.02,0.05,0.06,0.1,0.07c0.13-0.11,0.21-0.29,0.3-0.44c0.17,0.15-0.15,0.44-0.24,0.64
			c0.08,0.1,0.19,0.18,0.07,0.3c0,0.09,0.13,0.05,0.17,0.1c-0.04,0.06-0.09,0.11-0.07,0.24c0.07,0.04,0.08,0.14,0.14,0.2
			c-0.09,0.21,0.13,0.47,0.03,0.67c0.27,0.57,0.78,0.86,1.08,1.29c0.2,0.28,0.43,0.59,0.78,0.78v0.1c0.62,0.57,1.5,1.33,1.49,2.64
			c-0.06,0.04-0.07,0.13-0.13,0.17c-0.11,1.17-0.73,2.39-1.29,3.48c-0.01,0.33,0.05,0.65-0.13,0.91c0.07,0.2-0.08,0.4,0.1,0.54
			c0.03,0.09-0.07,0.07-0.07,0.13c0.06-0.01,0.07,0.03,0.03,0.03c0.61,0.19,1.11,0.39,1.59,0.78c0.02-0.29-0.43-0.26-0.34-0.51
			c0.56,0.21,0.92,0.83,0.68,1.45c-0.1-0.03-0.09,0.05-0.17,0.03c-0.13,0.67-0.35,1.11-0.64,1.62
			C56.34,85.06,56.19,85.17,56.23,85.35"/>
		<path class="st21" d="M101.58,83.17c0.07,0.15-0.08,0.07-0.14,0.14c-0.16,0.2,0.01,0.58-0.3,0.68c0.07,0.12,0.07,0.18,0,0.31
			c0.04,0.01,0.05,0.04,0.07,0.07c0.51-0.15,0.96-0.22,1.32-0.51c-0.13-0.16-0.11-0.34-0.31-0.37c0.12-0.09-0.01-0.15-0.03-0.27
			C101.99,83.37,101.85,83.03,101.58,83.17 M91.6,78.53c0.02,0.14,0.16,0.18,0.24,0.27c0.53,0.06,1.37-0.03,1.89-0.37
			c0.07-0.01,0.09,0.02,0.14,0.03C93.93,78.42,94,78.4,94,78.3c0.5-0.27,0.81-0.52,1.18-0.91c0.58-0.35,0.87-1,1.42-1.39
			c0.27-0.4,0.66-0.69,0.84-1.18c0.24-0.07,0.26-0.36,0.48-0.44c0.22-0.54,0.61-0.96,0.71-1.52c-0.02-0.07-0.07-0.11-0.1-0.17
			c0.24-0.31,0.18-0.93,0.34-1.32h0.1c0.23-0.52,0.66-1.12,1.11-1.52c1.3-0.37,2.61,1.6,1.39,2.37c-0.07,0.31-0.14,0.41-0.37,0.54
			c0.01,0.08-0.03,0.39,0.04,0.3c0.01,0.34,0.15,0.73,0.47,0.95c0.21,0.01,0.25-0.01,0.37,0.1c0.23-0.02,0.37,0.07,0.54,0.04
			c0.16,0.1,1.05,0,1.55,0.13c0.05-0.03,0.12-0.03,0.17-0.07c0.39,0.07,0.85,0,1.39,0c0.95,0,2.11,0.18,2.98-0.03
			c0.46-0.11,0.86-0.39,1.22-0.07c0.56-0.09,0.95,0.63,1.39,0.98c-0.05,0.1,0.02,0.15,0,0.3c-0.06-0.01-0.07,0.03-0.03,0.03
			c-0.33,0.02-0.56,0.15-0.81,0.31c-0.47,0.3-0.99,0.52-1.52,0.84c-0.16-0.02-0.45,0.11-0.54,0.27c-0.78,0.25-1.6,0.92-2.23,1.32
			c-0.38,0.3-0.75,0.63-1.15,0.91c-1.01,0.91-1.95,1.82-2.71,2.91c0.01,0.04,0.06,0.05,0.07,0.1c0.11,0.03,0.07-0.09,0.14-0.1
			c0.2,0.08,0.21,0.14,0.47,0.17c-0.04,0.05-0.04,0.09,0,0.13c0.15,0.04,0.15,0.01,0.27-0.03c-0.16,0.19,0.12-0.01,0.17,0.17
			c0.09,0,0.07-0.11,0.17-0.1c0.02,0.08-0.06,0.05-0.07,0.1c0.16,0.06,0.31,0.11,0.47,0.24c0.08-0.1,0.12-0.03,0.27-0.03
			c-0.01,0.18,0.16,0.46,0.41,0.51c0.02,0.22-0.14,0.54,0.03,0.68c-0.16,0.24-0.24,0.49-0.51,0.67c-0.07-0.01-0.07-0.09-0.13-0.1
			c-0.64,0.43-1.34,0.83-1.83,0.95c-0.05-0.18,0.23-0.13,0.34-0.24c-0.17-0.04-0.35,0.07-0.44,0.27c-0.15-0.03-0.2-0.11-0.3-0.1
			c-0.01,0.01-0.05,0.14,0,0.17c-0.26,0.21-0.53-0.01-0.74,0.24c0.06,0.1,0.09,0.03,0.2,0.03c-0.03,0.17-0.37,0.18-0.37,0.03
			c-0.35,0.24-0.66-0.19-0.61-0.47c-0.27-0.21-0.65-0.37-0.71-0.75c-0.02-0.12,0.01-0.66,0.03-0.74c0.02-0.08,0.26-0.49,0.34-0.61
			c0.17-0.25,0.43-0.45,0.54-0.64c-0.04-0.12,0-0.13-0.03-0.24c0.23-0.18,0.37-0.46,0.64-0.61c0.23-0.68,0.65-0.99,0.98-1.56
			c0.15,0,0.1-0.11,0.2,0c0-0.05-0.01-0.09,0.03-0.1c-0.02-0.05-0.04,0.01-0.1,0c0.05-0.16,0.16-0.27,0.3-0.34
			c0.02,0.12-0.1,0.1-0.1,0.2c0.18-0.06,0.19-0.26,0.2-0.41c0.07-0.01,0.1,0.01,0.1,0.07c0.37-0.25,0.55-0.69,0.98-0.88
			c0.09-0.12,0.22-0.23,0.1-0.37c0.43,0.07,0.57-0.45,0.98-0.61c0.29-0.47,0.91-0.6,1.22-1.05c0.19,0.04,0.37-0.21,0.51-0.34
			c0.63-0.36,1.24-0.64,1.79-1.12c-0.11,0.06-0.18,0.09-0.27,0.1c-0.1-0.09,0.1-0.16,0.13-0.24c-0.54,0.04-1.1-0.02-1.59-0.07
			c-0.08-0.01-0.23,0.09-0.34,0.07c-0.13-0.02-0.29,0.02-0.47,0.03c-0.32,0.02-0.68-0.12-0.95,0.03c-0.17-0.07-0.42-0.08-0.54,0
			c-0.44-0.16-0.75,0.03-1.05-0.03c-0.05,0.01,0.01,0.04,0,0.1c-0.09,0.02-0.07-0.07-0.1-0.1c-0.15,0.1-0.32,0.24-0.51,0.07
			c-0.33,0.23-0.99-0.17-1.12,0c-0.13,0.06-0.29-0.06-0.41,0.1c-0.65-0.15-0.89-0.89-1.49-1.15c-0.39,0.33-0.75,0.85-0.95,1.25
			c-0.4,0.61-1.26,1.47-1.69,2.16c-0.15-0.07-0.25,0.17-0.24,0.37c-0.37,0.37-0.78,0.69-1.01,1.18c-0.1,0.04-0.11-0.06-0.24,0.03
			c-0.04,0.11,0,0.08,0,0.2c-0.09-0.03-0.32,0.01-0.34,0.24c-0.27-0.01-0.3-0.02-0.4,0.2c-0.05-0.01,0-0.03,0-0.07
			c-0.45,0.25-0.79,0.55-1.29,0.68c0.01-0.05-0.03-0.06-0.03-0.1c-0.03,0.06-0.14,0.11-0.07,0c-0.66,0.42-1.61,0.17-2.23,0.17
			c-0.46,0.44-0.72-0.37-1.05-0.2c-0.21-0.26-0.1-0.71-0.27-0.98c-0.02-0.04-0.08-0.01-0.07,0c-0.09-0.08-0.16-0.29-0.17-0.37
			c-0.07-0.49,0.29-1.09,0.47-1.56h0.1c0.19-0.62,0.67-1.01,0.81-1.59c0.2-0.04,0.19-0.42,0.4-0.51c0.03-0.1-0.05-0.09-0.03-0.17
			c0.17-0.04,0.14-0.27,0.27-0.34c0.03-0.06-0.1-0.11,0-0.14c-0.39-0.33-0.65-0.8-0.88-1.28c0.2-0.36-0.25-0.76,0-1.28
			c0.16,0.14,0.2,0.27,0.3,0.41c0.79,0.24,1.24,0.2,2.06,0c0.24,0.14,0.81,0.24,0.74,0.47c0.3,0.25,0.37,0.51,0.61,0.81
			c-0.19-0.02,0.12,0.12-0.07,0.1c0.16,0.24,0.2,0.39,0.41,0.58c-0.09,0.05-0.01,0.2-0.1,0.3c0.01,0.1,0.09,0.14,0.17,0.17
			c-0.09,0.28-0.55,0.2-0.54,0.57c-0.22,0.1-0.39,0.08-0.57,0.24c-0.14-0.04-0.15-0.01-0.31,0c-0.07,0.27-0.32,0.15-0.34,0.47
			c-0.04,0.01-0.06-0.01-0.07-0.03c-0.34,0.47-0.78,1.01-0.88,1.52c-0.3,0.15-0.22,0.53-0.4,0.74
			C91.77,78.26,91.65,78.63,91.6,78.53"/>
		<path class="st21" d="M75.5,77.59v0.27c-0.14,0.21-0.09,0.61-0.3,0.75c0.08,0.18,0.12,0.41,0.34,0.58
			c0.06,0.01,0.08-0.04,0.14-0.03c0.2,0.19,0.48,0.31,0.81,0.3c0.55-0.01,0.86-0.45,1.05-0.91c0.05-0.53,0.41-1.79,0.24-2.16
			C77.06,76.83,76.14,77.01,75.5,77.59 M77.22,72.52c-0.13,0-0.12,0.12-0.24,0.14c-0.01-0.19,0.11-0.34,0.07-0.51
			c-0.05-0.05-0.21,0.04-0.2-0.13c0.31-0.12,0.43-0.34,0.81-0.27c0.85,0.15,1.07,1.53,1.42,2.1c0.02,0.59,0.24,1.42,0.17,2.13
			c-0.02,0.2-0.13,0.57-0.03,0.84c0.01,0.09-0.05,0.11-0.1,0.14c0.14,0.18,0.02,0.26,0,0.41c0.01,0.05,0.04-0.01,0.1,0
			c-0.03,0.1-0.03,0.1,0,0.2c-0.06,0.01-0.06-0.03-0.07-0.07c0.01,0.08-0.1,0.22-0.03,0.34c0.07-0.03-0.07-0.21,0.1-0.2
			c0.01,0.06-0.03,0.06-0.07,0.07c0.08,0.11,0.03,0.14,0.07,0.27c-0.06,0.07-0.1,0.03-0.14,0.07c0.03,0.08,0.1,0.12,0.07,0.27
			c-0.05,0.01-0.06-0.03-0.1-0.03c0.13,0.23,0.09,0.69-0.07,0.88c0.04,0.01,0.14-0.01,0.1,0.17c-0.09,0.03-0.07-0.07-0.13-0.07
			c0.1,0.17,0.09,0.42-0.03,0.54c-0.11-0.06,0.1-0.25-0.07-0.27c-0.03,0.27-0.24,0.37-0.24,0.68c-0.26,0.05-0.38,0.22-0.34,0.41
			c-0.27,0.2-0.43,0.52-0.81,0.61c-0.3-0.05-0.74,0.18-1.01-0.07c-1.43-0.11-2.48-0.61-3.38-1.25c-0.2-0.42-0.52-0.72-0.57-1.29
			c-0.08-0.08-0.08-0.24-0.17-0.3c0.04-0.49-0.25-0.88-0.1-1.18c-0.2-0.37-0.15-0.95-0.13-1.35c0.02-0.39-0.14-0.86-0.14-1.29
			c0.02-0.76-0.05-1.71,0.1-2.43c0.04-0.16,0.15-0.28,0.07-0.47c0.08-0.1,0.16-0.14,0.1-0.3c0.22-0.27,0.34-0.86,0.71-1.08
			c0-0.08,0.06-0.1,0.04-0.2c0.84-0.41,1.57,0.37,1.69,1.12c-0.1,0.46-0.3,0.94-0.54,1.25c-0.16,1.18-0.17,3.12-0.07,4.4
			c0.43-0.12,1.02-0.76,1.49-0.64c0.01-0.11,0.23-0.02,0.24-0.14c0-0.09-0.09,0.08-0.07-0.07c0.06,0,0.09,0.03,0.1,0.07
			c0.11-0.13,0.38-0.03,0.44-0.23c0.59-0.14,1.53-0.23,1.72-0.88c0.05-0.76,0.01-1.58-0.44-2.2C77.39,72.64,77.35,72.54,77.22,72.52
			"/>
		<path class="st21" d="M83.01,85.64c0.08,0.04,0.16,0.22,0,0.24c-0.1-0.32-0.04-0.68-0.07-1.18c0.22,0.06,0.03,0.43,0.1,0.58
			C83.08,85.11,83.14,85.58,83.01,85.64"/>
		<path class="st21" d="M83.31,86.72c-0.11-0.03-0.06-0.23-0.1-0.17c-0.08-0.01,0.04-0.09,0.03-0.13
			C83.39,86.51,83.3,86.59,83.31,86.72"/>
		<path class="st21" d="M141.26,97.4c-0.01-0.04-0.04-0.07-0.1-0.07c0.03-0.12,0.08-0.03,0.14,0c0.03,0.06-0.1,0.11,0,0.13
			c-0.02,0.08-0.17,0.02-0.14-0.07H141.26z"/>
	</g>
</g>
<g>
	<path class="st22" d="M185.2,61.35c-0.26,0.1-0.5,0.06-0.72-0.1l-7.78-8.4c-1.92,2.18-3.94,4.18-6.05,6
		c-2.11,1.82-4.24,3.44-6.38,4.85c-0.48,0.32-0.94,0.52-1.39,0.6c-0.45,0.08-0.8,0.07-1.06-0.02c-0.26-0.1-0.38-0.27-0.38-0.53
		c0-0.26,0.18-0.56,0.53-0.91c1.54-1.44,3.16-3.13,4.87-5.06c1.71-1.94,3.34-3.9,4.87-5.9c1.54-2,2.87-3.91,4.01-5.74
		c1.14-1.82,1.9-3.34,2.28-4.56c-0.7,0.1-1.54,0.21-2.52,0.34c-0.98,0.13-1.91,0.27-2.81,0.43c-1.06,0.16-2.13,0.32-3.22,0.48h0.05
		c-0.58,0.16-1.16,0.34-1.75,0.55c-0.59,0.21-1.18,0.39-1.75,0.55c-0.22,0.06-0.43,0-0.62-0.19l-2.11-3.26
		c-0.16-0.29-0.18-0.57-0.05-0.84c0.13-0.27,0.48-0.38,1.06-0.31l3.6,0.43c0.13,0,0.46-0.04,1.01-0.12
		c0.54-0.08,1.22-0.17,2.04-0.26c0.82-0.1,1.72-0.2,2.71-0.31c0.99-0.11,1.98-0.23,2.95-0.36c0.98-0.13,1.9-0.24,2.78-0.34
		c0.88-0.1,1.62-0.18,2.23-0.24l3.79,1.78c0.38,0.13,0.43,0.3,0.14,0.53l-0.82,1.06l0.1-0.05c-0.86,1.6-1.81,3.14-2.83,4.63
		c-1.02,1.49-2.11,2.95-3.26,4.39l3.41,2.02l3.74,1.49c0.19,0.06,0.32,0.16,0.38,0.29l1.25,5.38c0.06,0.19-0.02,0.34-0.24,0.43
		L185.2,61.35z M194.75,74.93c-0.96,0.06-2.07,0.14-3.34,0.24c-1.26,0.1-2.53,0.2-3.79,0.31c-1.26,0.11-2.47,0.23-3.62,0.36
		c-1.15,0.13-2.11,0.24-2.88,0.34c-0.26,0.06-0.58,0.14-0.98,0.24c-0.4,0.1-0.79,0.19-1.18,0.29c-0.45,0.13-0.91,0.26-1.39,0.38
		c-0.16,0.06-0.34,0.03-0.53-0.1l-2.4-2.3l-0.19-10.32l-0.67-2.3c-0.1-0.51,0.01-0.81,0.31-0.89c0.3-0.08,0.63-0.06,0.98,0.07h-0.05
		l5.47,1.54c0.35,0.06,0.5,0.21,0.43,0.43l-0.43,2.59c-0.03,1.18-0.1,2.42-0.19,3.7c-0.1,1.28-0.14,2.51-0.14,3.7
		c1.63-0.16,3.33-0.34,5.09-0.53c1.54-0.16,3.23-0.34,5.09-0.53s3.71-0.37,5.57-0.53c0.93-0.1,1.71-0.2,2.35-0.31
		c0.64-0.11,1.17-0.22,1.58-0.31c0.48-0.13,0.88-0.26,1.2-0.38c0.06-0.03,0.17-0.05,0.31-0.05s0.25,0.03,0.31,0.1l3.31,2.5v-0.05
		c0.29,0.22,0.45,0.45,0.48,0.67c0.03,0.22-0.02,0.42-0.14,0.6c-0.13,0.18-0.32,0.33-0.58,0.46c-0.26,0.13-0.53,0.19-0.82,0.19
		c-0.74-0.06-1.51-0.11-2.33-0.14c-0.82-0.03-1.64-0.05-2.47-0.05c-0.67,0-1.37,0.01-2.09,0.02
		C196.31,74.87,195.55,74.9,194.75,74.93z M198.88,39.6c-0.03,3.9-0.07,7.82-0.12,11.76s-0.09,7.84-0.12,11.71l-3.94,4.22
		c-0.42,0.45-0.78,0.66-1.08,0.65c-0.3-0.02-0.46-0.31-0.46-0.89l-0.19-17.04l-4.32,0.62h0.05l-2.83,0.77
		c-0.22,0.06-0.42,0.02-0.58-0.14l-2.26-2.98h0.05c-0.16-0.19-0.2-0.44-0.12-0.74c0.08-0.3,0.36-0.47,0.84-0.5l3.7,0.29l5.42-0.48
		l-0.1-9.5v0.05c-0.1-0.54-0.21-1.1-0.34-1.66c-0.13-0.56-0.24-1.11-0.34-1.66c-0.06-0.48,0.06-0.76,0.36-0.84
		c0.3-0.08,0.63-0.04,0.98,0.12h-0.05l5.71,2.35c0.32,0.06,0.45,0.18,0.38,0.34L198.88,39.6z"/>
	<path class="st22" d="M254.7,55.83c0.26,0.19,0.38,0.39,0.38,0.6c0,0.21-0.06,0.39-0.17,0.55c-0.11,0.16-0.27,0.3-0.48,0.43
		c-0.21,0.13-0.39,0.19-0.55,0.19c-0.64-0.13-1.46-0.25-2.47-0.36c-1.01-0.11-2.34-0.17-4.01-0.17c-0.61,0-1.23,0.01-1.87,0.02
		c-0.64,0.02-1.36,0.04-2.16,0.07c-1.54,0.1-3.15,0.22-4.85,0.36c-1.7,0.14-3.41,0.3-5.14,0.46l2.69,1.1
		c0.32,0.06,0.45,0.21,0.38,0.43l-0.62,3.02c-0.03,1.73-0.07,3.45-0.12,5.16c-0.05,1.71-0.09,3.43-0.12,5.16l-3.94,4.75
		c-0.42,0.48-0.78,0.71-1.1,0.7c-0.32-0.02-0.48-0.33-0.48-0.94l-0.29-16.66v0.05c-0.06-0.38-0.14-0.77-0.24-1.15
		c-0.1-0.38-0.19-0.78-0.29-1.2c-1.79,0.22-3.46,0.42-5.02,0.6c-1.55,0.18-2.92,0.34-4.1,0.5c-1.38,0.16-2.66,0.34-3.84,0.53h0.05
		l-3.98,1.06c-0.1,0.03-0.21,0.02-0.34-0.02c-0.13-0.05-0.22-0.1-0.29-0.17l-2.06-3.26c-0.19-0.32-0.22-0.62-0.07-0.91
		c0.14-0.29,0.52-0.37,1.13-0.24l3.46,0.48c0.13-0.03,0.9-0.14,2.33-0.34c1.42-0.19,3.29-0.42,5.59-0.67
		c2.3-0.26,4.95-0.54,7.94-0.86c2.99-0.32,6.12-0.61,9.38-0.86c1.54-0.13,3.01-0.25,4.42-0.36c1.41-0.11,2.67-0.23,3.79-0.36
		c1.28-0.13,2.5-0.26,3.65-0.38c0.16,0,0.3,0.03,0.43,0.1L254.7,55.83z M249.04,49.01c-0.06,0.06-0.15,0.11-0.26,0.14
		c-0.11,0.03-0.22,0.03-0.31,0l-16.03-3.89c-1.41,0.86-2.89,1.7-4.44,2.52c-1.55,0.82-3.12,1.58-4.7,2.3
		c-1.58,0.72-3.17,1.38-4.75,1.97c-1.58,0.59-3.11,1.1-4.58,1.51c-0.51,0.16-1,0.23-1.46,0.22c-0.46-0.02-0.82-0.09-1.08-0.22
		c-0.26-0.13-0.34-0.31-0.26-0.55c0.08-0.24,0.41-0.5,0.98-0.79c2.11-0.96,4.29-2.06,6.53-3.29c2.24-1.23,4.37-2.51,6.38-3.84
		c2.02-1.33,3.82-2.64,5.42-3.94c1.6-1.3,2.82-2.47,3.65-3.53c-1.44,0.19-2.87,0.37-4.3,0.53c-1.42,0.16-2.7,0.32-3.82,0.48
		c-1.31,0.16-2.58,0.3-3.79,0.43l-3.5,1.06c-0.1,0.03-0.21,0.03-0.34,0c-0.13-0.03-0.22-0.08-0.29-0.14l-2.11-3.26
		c-0.16-0.29-0.18-0.58-0.07-0.86c0.11-0.29,0.47-0.38,1.08-0.29h-0.05l3.7,0.43l16.66-2.02l4.37,1.15c0.06,0,0.14,0.02,0.22,0.07
		c0.08,0.05,0.14,0.09,0.17,0.12l0.38,0.91c0.16,0.16,0.13,0.3-0.1,0.43l-1.06,1.25h0.05c-0.64,0.83-1.42,1.67-2.35,2.52
		c-0.93,0.85-1.98,1.7-3.17,2.57l4.27,0.1c0.83,0,1.67-0.02,2.52-0.05c0.85-0.03,1.67-0.05,2.47-0.05l5.52,3.36
		c0.35,0.19,0.4,0.38,0.14,0.58L249.04,49.01z"/>
	<path class="st22" d="M260.17,46.13c-0.26,0-0.45-0.06-0.58-0.19l-2.02-3.17c-0.16-0.32-0.16-0.58,0-0.79
		c0.16-0.21,0.42-0.33,0.77-0.36l4.99,0.53c0.83-0.03,1.65-0.06,2.45-0.1c0.8-0.03,1.62-0.08,2.45-0.14l-0.14-3.65v0.05
		c-0.1-0.54-0.21-1.07-0.34-1.58c-0.13-0.51-0.22-1.04-0.29-1.58c-0.06-0.45,0.05-0.73,0.34-0.84c0.29-0.11,0.59-0.1,0.91,0.02
		l5.71,2.02c0.32,0.06,0.45,0.22,0.38,0.48l-0.67,2.5c-0.03,0.35-0.06,0.72-0.07,1.1c-0.02,0.38-0.06,0.75-0.12,1.1l2.5-0.14
		c0.83-0.1,1.54-0.22,2.11-0.36c0.58-0.14,1.04-0.3,1.39-0.46c0.42-0.16,0.77-0.35,1.06-0.58c0.19-0.16,0.43-0.18,0.72-0.05
		l3.31,2.26c0.29,0.19,0.46,0.41,0.5,0.65c0.05,0.24,0.02,0.46-0.1,0.65c-0.11,0.19-0.3,0.36-0.55,0.5s-0.54,0.22-0.86,0.22
		c-0.99,0.03-2.03,0.08-3.12,0.14c-0.93,0.06-2,0.14-3.22,0.22c-1.22,0.08-2.45,0.15-3.7,0.22l-0.67,0.58
		c0.96,0.35,1.9,0.77,2.83,1.25c0.93,0.48,1.78,1.02,2.57,1.61c0.78,0.59,1.48,1.22,2.09,1.87c0.61,0.66,1.07,1.32,1.39,1.99
		c0.32,0.54,0.48,1.22,0.48,2.02c0,0.8-0.21,1.61-0.62,2.42s-1.07,1.54-1.97,2.18c-0.74,0.54-1.58,0.98-2.54,1.32
		c-0.96,0.34-1.98,0.61-3.05,0.82c-1.07,0.21-2.18,0.34-3.31,0.41c-1.14,0.06-2.25,0.1-3.34,0.1c-1.18-0.03-2.23-0.13-3.14-0.29
		c-0.91-0.16-1.69-0.45-2.33-0.86c-0.9-0.54-1.51-1.21-1.85-1.99s-0.5-1.54-0.5-2.28c0-0.58,0.09-1.15,0.26-1.73
		c0.18-0.58,0.39-1.06,0.65-1.44c0.8-1.34,1.86-2.69,3.17-4.03c1.31-1.34,2.78-2.54,4.42-3.6c-0.93,0.06-1.77,0.12-2.52,0.17
		c-0.75,0.05-1.34,0.1-1.75,0.17L260.17,46.13z M276.49,55.2c0.42-0.86,0.18-2.03-0.7-3.5c-0.88-1.47-2.39-2.96-4.54-4.46
		c-1.47,1.44-2.55,2.77-3.24,3.98c-0.69,1.22-1.19,2.22-1.51,3.02c-0.19,0.48-0.29,0.94-0.29,1.39c0,0.74,0.14,1.12,0.43,1.15
		c0.99,0.19,2.05,0.29,3.17,0.29c0.74,0,1.46-0.05,2.18-0.14c0.72-0.1,1.38-0.22,1.97-0.38c0.59-0.16,1.11-0.35,1.56-0.58
		C275.98,55.75,276.3,55.49,276.49,55.2z M288.88,74.93c-0.96,0.06-2.07,0.14-3.34,0.24c-1.26,0.1-2.53,0.2-3.79,0.31
		c-1.26,0.11-2.47,0.23-3.62,0.36c-1.15,0.13-2.11,0.24-2.88,0.34c-0.26,0.06-0.58,0.14-0.98,0.24c-0.4,0.1-0.79,0.19-1.18,0.29
		c-0.45,0.13-0.91,0.26-1.39,0.38c-0.16,0.06-0.34,0.03-0.53-0.1l-2.4-2.3l-0.19-8.93l-0.67-2.3c-0.1-0.48,0.01-0.76,0.31-0.84
		c0.3-0.08,0.63-0.07,0.98,0.02h-0.05l5.47,1.58c0.35,0.06,0.5,0.21,0.43,0.43l-0.43,2.54c-0.03,0.93-0.1,1.92-0.19,2.98
		c-0.1,1.06-0.14,2.06-0.14,3.02c1.63-0.16,3.33-0.34,5.09-0.53c1.54-0.16,3.23-0.34,5.09-0.53c1.86-0.19,3.73-0.37,5.62-0.53
		c0.9-0.1,1.66-0.2,2.3-0.31c0.64-0.11,1.17-0.22,1.58-0.31c0.48-0.13,0.88-0.26,1.2-0.38c0.06-0.03,0.17-0.05,0.31-0.05
		c0.14,0,0.25,0.03,0.31,0.1l3.31,2.5v-0.05c0.29,0.22,0.45,0.45,0.48,0.67c0.03,0.22-0.02,0.42-0.14,0.6
		c-0.13,0.18-0.32,0.33-0.58,0.46c-0.26,0.13-0.53,0.19-0.82,0.19c-0.74-0.06-1.51-0.11-2.33-0.14c-0.82-0.03-1.64-0.05-2.47-0.05
		c-0.67,0-1.37,0.01-2.09,0.02C290.44,74.87,289.68,74.9,288.88,74.93z M292.57,39.6l-0.1,10.08l7.58-1.39
		c0.26,0,0.43,0.05,0.53,0.14l2.3,3.02c0.26,0.35,0.33,0.74,0.22,1.15c-0.11,0.42-0.6,0.61-1.46,0.58l-9.22-0.48
		c-0.03,1.73-0.06,3.46-0.07,5.18c-0.02,1.73-0.02,3.46-0.02,5.18l-3.94,4.22c-0.38,0.45-0.74,0.66-1.06,0.65
		c-0.32-0.02-0.48-0.31-0.48-0.89l-0.34-29.71v0.05c-0.1-0.54-0.21-1.1-0.34-1.66c-0.13-0.56-0.22-1.11-0.29-1.66
		c-0.06-0.48,0.05-0.76,0.34-0.84c0.29-0.08,0.61-0.04,0.96,0.12h-0.05l5.71,2.35c0.32,0.06,0.45,0.18,0.38,0.34L292.57,39.6z"/>
	<path class="st22" d="M340.43,42.48c0.42,0.74,0.62,1.49,0.62,2.26c0,0.7-0.19,1.39-0.58,2.06c-0.38,0.67-1.02,1.33-1.92,1.97
		c-0.99,0.67-2.07,1.22-3.24,1.63c-1.17,0.42-2.41,0.74-3.72,0.96l-0.34,1.3l-0.24,2.16l4.42-0.38c1.54-0.13,3.01-0.25,4.42-0.36
		c1.41-0.11,2.67-0.23,3.79-0.36c1.28-0.13,2.5-0.26,3.65-0.38c0.16,0,0.3,0.03,0.43,0.1l2.97,2.59c0.26,0.19,0.38,0.39,0.38,0.6
		c0,0.21-0.06,0.39-0.17,0.55c-0.11,0.16-0.27,0.3-0.48,0.43c-0.21,0.13-0.39,0.19-0.55,0.19c-0.64-0.13-1.46-0.25-2.47-0.36
		c-1.01-0.11-2.35-0.17-4.01-0.17c-0.61,0-1.23,0.01-1.87,0.02c-0.64,0.02-1.36,0.04-2.16,0.07c-1.34,0.06-2.77,0.16-4.27,0.29
		c-1.5,0.13-3.01,0.27-4.51,0.43c-1.5,0.16-3.01,0.32-4.51,0.48c-1.5,0.16-2.93,0.32-4.27,0.48c-3.17,0.38-6.34,0.78-9.5,1.2h0.05
		l-3.98,1.06c-0.1,0.03-0.21,0.02-0.34-0.02c-0.13-0.05-0.22-0.1-0.29-0.17l-2.06-3.26c-0.19-0.32-0.22-0.62-0.07-0.91
		c0.14-0.29,0.52-0.37,1.13-0.24l3.46,0.48c0.1,0,0.55-0.06,1.37-0.17c0.82-0.11,1.9-0.26,3.24-0.43c1.34-0.18,2.93-0.37,4.75-0.58
		c1.82-0.21,3.79-0.42,5.9-0.65l-0.14-3.07l-0.1-0.43c-0.32,0-0.64,0-0.96,0c-0.32,0-0.62-0.02-0.91-0.05
		c-1.12-0.06-2.15-0.19-3.1-0.38c-0.94-0.19-1.72-0.46-2.33-0.82c-0.83-0.54-1.42-1.18-1.78-1.92c-0.35-0.74-0.53-1.5-0.53-2.3
		c0-0.54,0.06-1.08,0.19-1.61c0.13-0.53,0.32-1,0.58-1.42c0.45-0.86,1.06-1.68,1.85-2.45s1.63-1.47,2.54-2.11
		c0.91-0.64,1.85-1.22,2.81-1.75c0.96-0.53,1.86-0.98,2.69-1.37c-0.06-0.19-0.14-0.42-0.24-0.67c-0.1-0.26-0.18-0.5-0.24-0.72
		l0.05,0.05c-0.13-0.35-0.09-0.61,0.12-0.77c0.21-0.16,0.52-0.19,0.94-0.1l4.8,1.34c0.29,0.06,0.43,0.19,0.43,0.38l0.05,0.72
		c0,0.16-0.11,0.27-0.34,0.34l-1.15,0.62c2.21,0.64,4.21,1.42,6,2.33S339.72,41.2,340.43,42.48z M316.14,68.11
		c-0.26,0.06-0.45,0-0.58-0.19l-2.11-3.26c-0.16-0.26-0.17-0.53-0.02-0.82c0.14-0.29,0.47-0.4,0.98-0.34l3.55,0.43
		c0.13-0.03,0.83-0.14,2.11-0.34c1.28-0.19,2.85-0.42,4.7-0.7c1.86-0.27,3.88-0.55,6.07-0.84c2.19-0.29,4.28-0.56,6.26-0.82
		l4.66,1.58c0.35,0.1,0.46,0.27,0.34,0.53l-0.72,1.58l-0.72,7.92l-3.79,4.75c-0.42,0.48-0.78,0.71-1.08,0.7
		c-0.3-0.02-0.46-0.33-0.46-0.94l-0.05-12.58c-1.89,0.19-3.75,0.41-5.59,0.65c-1.84,0.24-3.51,0.49-5.02,0.74
		c-1.76,0.29-3.44,0.56-5.04,0.82h0.05L316.14,68.11z M335.05,45.36c0.13-0.35,0.06-0.81-0.22-1.37c-0.27-0.56-0.72-1.15-1.34-1.78
		s-1.4-1.26-2.33-1.92c-0.93-0.66-1.97-1.27-3.12-1.85c-1.28,0.83-2.48,1.78-3.6,2.83c-1.12,1.06-1.94,2.14-2.45,3.26
		c-0.06,0.26-0.13,0.5-0.19,0.74c-0.06,0.24-0.1,0.49-0.1,0.74c0,0.64,0.16,1.04,0.48,1.2c1.25,0.29,2.58,0.43,3.98,0.43
		c0.96,0,1.93-0.06,2.9-0.17c0.98-0.11,1.87-0.27,2.69-0.48c0.82-0.21,1.51-0.46,2.09-0.74C334.43,45.99,334.83,45.68,335.05,45.36z
		"/>
	<path class="st22" d="M359.05,63.17c-0.35,0.13-0.64,0.16-0.86,0.1c-0.22-0.06-0.37-0.34-0.43-0.82l-0.91-18.29l-0.82-3.41
		c-0.03-0.16,0.01-0.29,0.12-0.38c0.11-0.1,0.28-0.13,0.5-0.1l5.62,0.67c0.03,0,0.06,0.01,0.1,0.02c0.03,0.02,0.08,0.02,0.14,0.02
		l11.18-1.34l4.03,1.63c0.35,0.13,0.45,0.29,0.29,0.48l-0.72,1.58l-0.96,14.74l0.24,1.2c0.1,0.26-0.05,0.42-0.43,0.48l-13.44,2.02
		L359.05,63.17z M362.84,44.11l0.38,14.4c1.34-0.19,2.6-0.39,3.77-0.6c1.17-0.21,2.42-0.41,3.77-0.6l0.19-14.11L362.84,44.11z
		 M388.62,39.6l-0.1,11.95l7.54-1.34c0.26,0,0.45,0.03,0.58,0.1l2.3,3.02c0.26,0.35,0.32,0.74,0.19,1.15
		c-0.13,0.42-0.62,0.61-1.49,0.58l-9.12-0.48c-0.03,3.01-0.06,6-0.1,8.98c-0.03,2.98-0.05,5.95-0.05,8.93l-3.94,5.14
		c-0.42,0.48-0.78,0.71-1.1,0.7c-0.32-0.02-0.48-0.33-0.48-0.94l-0.29-40.03v0.05c-0.1-0.54-0.21-1.1-0.34-1.66
		c-0.13-0.56-0.24-1.11-0.34-1.66c-0.06-0.48,0.06-0.76,0.36-0.84c0.3-0.08,0.62-0.04,0.94,0.12h-0.05l5.71,2.35
		c0.32,0.06,0.45,0.18,0.38,0.34L388.62,39.6z"/>
	<path class="st22" d="M446.7,54.15c0.26,0.19,0.38,0.39,0.38,0.6c0,0.21-0.06,0.39-0.17,0.55c-0.11,0.16-0.27,0.3-0.48,0.43
		c-0.21,0.13-0.39,0.19-0.55,0.19c-0.64-0.13-1.46-0.25-2.47-0.36c-1.01-0.11-2.34-0.17-4.01-0.17c-0.61,0-1.23,0.01-1.87,0.02
		c-0.64,0.02-1.36,0.04-2.16,0.07c-1.34,0.06-2.77,0.16-4.27,0.29c-1.5,0.13-3.01,0.27-4.51,0.43c-1.5,0.16-3.01,0.32-4.51,0.48
		c-1.5,0.16-2.93,0.32-4.27,0.48c-3.17,0.38-6.34,0.78-9.5,1.2h0.05c-0.64,0.16-1.3,0.34-1.99,0.53c-0.69,0.19-1.35,0.37-1.99,0.53
		c-0.1,0.03-0.21,0.02-0.34-0.02s-0.22-0.1-0.29-0.17l-2.06-3.26c-0.19-0.32-0.22-0.63-0.07-0.94c0.14-0.3,0.52-0.38,1.13-0.22
		l3.46,0.48c0.13-0.03,0.9-0.14,2.33-0.34c1.42-0.19,3.29-0.42,5.59-0.7c2.3-0.27,4.95-0.56,7.94-0.86c2.99-0.3,6.12-0.6,9.38-0.89
		c1.54-0.1,3.01-0.21,4.42-0.34c1.41-0.13,2.67-0.24,3.79-0.34c1.28-0.13,2.5-0.26,3.65-0.38c0.16,0,0.3,0.03,0.43,0.1L446.7,54.15z
		 M431.96,75.65c-1.28,0.06-2.65,0.15-4.1,0.26c-1.46,0.11-2.94,0.23-4.46,0.36c-1.52,0.13-3.04,0.27-4.56,0.43
		c-1.52,0.16-2.95,0.32-4.3,0.48c-0.16,0-0.3-0.03-0.43-0.1l-2.16-1.78c-0.16-0.06-0.24-0.16-0.24-0.29l-0.14-5.81v0.14
		c-0.06-0.29-0.16-0.58-0.29-0.86c-0.13-0.29-0.24-0.58-0.34-0.86c-0.13-0.35-0.04-0.6,0.26-0.74c0.3-0.14,0.62-0.18,0.94-0.12
		c0.86,0,1.74,0.01,2.64,0.02c0.9,0.02,1.79,0.02,2.69,0.02c0.13,0,0.21,0.02,0.24,0.05l12.82-1.68c0.03-0.54,0.06-1.04,0.1-1.49
		c0.03-0.45,0.06-0.96,0.1-1.54c-1.86,0.19-3.66,0.38-5.4,0.55c-1.75,0.18-3.29,0.34-4.63,0.5c-1.6,0.16-3.1,0.32-4.51,0.48
		l-3.46,0.72c-0.1,0-0.2-0.01-0.31-0.02c-0.11-0.02-0.2-0.06-0.26-0.12l-2.11-2.88h0.05c-0.26-0.29-0.32-0.58-0.19-0.89
		c0.13-0.3,0.51-0.41,1.15-0.31h-0.05l3.7,0.38c2.05-0.19,4.13-0.4,6.24-0.62c1.82-0.19,3.82-0.41,5.98-0.65
		c2.16-0.24,4.26-0.49,6.31-0.74l4.03,1.68c0.35,0.13,0.45,0.27,0.29,0.43l-0.77,1.73l0.05-0.05l-0.91,3.89l0.24,1.15
		c0.06,0.26-0.11,0.42-0.53,0.48l-18,2.11v3.46l15.5-1.39c0.7-0.06,1.37-0.16,1.99-0.29s1.18-0.26,1.66-0.38
		c0.58-0.13,1.1-0.26,1.58-0.38c0.06-0.03,0.14-0.03,0.24,0c0.1,0.03,0.18,0.06,0.24,0.1l3.36,2.54v-0.05
		c0.32,0.22,0.5,0.46,0.55,0.7c0.05,0.24,0,0.46-0.14,0.65c-0.14,0.19-0.35,0.34-0.62,0.46c-0.27,0.11-0.57,0.15-0.89,0.12
		c-0.38-0.03-0.78-0.05-1.18-0.05c-0.4,0-0.84,0-1.32,0c-0.96,0-2,0.02-3.12,0.05C434.35,75.54,433.18,75.59,431.96,75.65z
		 M436.43,41.23c0.45,0.7,0.67,1.42,0.67,2.16c0,0.67-0.18,1.34-0.53,2.02c-0.35,0.67-0.94,1.3-1.78,1.87
		c-0.99,0.67-2.08,1.22-3.26,1.66c-1.18,0.43-2.42,0.78-3.72,1.03c-1.3,0.26-2.63,0.43-4.01,0.53c-1.38,0.1-2.75,0.14-4.13,0.14
		c-1.15,0-2.19-0.08-3.12-0.24c-0.93-0.16-1.71-0.42-2.35-0.77h0.05c-0.9-0.45-1.54-1.05-1.92-1.8c-0.38-0.75-0.58-1.53-0.58-2.33
		c0-0.48,0.06-0.96,0.17-1.44s0.28-0.9,0.5-1.25c0.42-0.8,1-1.56,1.75-2.28c0.75-0.72,1.58-1.4,2.47-2.04
		c0.9-0.64,1.82-1.22,2.76-1.73c0.94-0.51,1.82-0.94,2.62-1.3c-0.1-0.19-0.19-0.4-0.29-0.62c-0.1-0.22-0.18-0.43-0.24-0.62
		c-0.1-0.35-0.03-0.62,0.19-0.79c0.22-0.18,0.54-0.2,0.96-0.07h-0.05l4.85,1.01c0.32,0.06,0.48,0.19,0.48,0.38l0.05,0.77
		c0,0.13-0.11,0.22-0.34,0.29l-0.96,0.53c2.18,0.54,4.16,1.22,5.95,2.02C434.43,39.15,435.69,40.11,436.43,41.23z M431.2,44.02
		c0.19-0.32,0.14-0.73-0.14-1.22c-0.29-0.5-0.75-1.02-1.39-1.58c-0.64-0.56-1.45-1.13-2.42-1.7c-0.98-0.58-2.07-1.1-3.29-1.58
		c-1.25,0.83-2.42,1.74-3.5,2.74c-1.09,0.99-1.87,2.05-2.35,3.17c-0.16,0.38-0.24,0.8-0.24,1.25c0,0.29,0.04,0.54,0.12,0.74
		c0.08,0.21,0.2,0.34,0.36,0.41c0.48,0.1,0.99,0.17,1.54,0.22s1.09,0.07,1.63,0.07c1.06,0,2.11-0.07,3.17-0.22
		c1.06-0.14,2.04-0.33,2.95-0.55c0.91-0.22,1.69-0.49,2.33-0.79C430.59,44.65,431,44.34,431.2,44.02z"/>
</g>
<text transform="matrix(1 0 0 1 177.5687 213.461)" class="st22" style="font-family:'TSTJJWanSunB'; font-size:48px;"></text>
</svg>
