<?xml version="1.0" encoding="utf-8"?>
<!-- Generator: Adobe Illustrator 24.1.2, SVG Export Plug-In . SVG Version: 6.00 Build 0)  -->
<svg version="1.1" id="레이어_1" xmlns="http://www.w3.org/2000/svg" xmlns:xlink="http://www.w3.org/1999/xlink" x="0px"
	 y="0px" viewBox="0 0 612 614" style="enable-background:new 0 0 612 614;" xml:space="preserve">
<style type="text/css">
	.st0{fill:#D7E7AA;}
	.st1{fill:#00A090;}
</style>
<g>
	<g>
		<g>
			<g>
				<path class="st0" d="M497,370.68c-39.56,35.71-134.79,27.28-143.84,24.83C357.01,386.39,417.88,352.39,497,370.68"/>
				<path class="st1" d="M436.4,445.29c-50.52-9.45-81.85-43.08-81.85-50.36C367.01,395.75,404.75,409.83,436.4,445.29"/>
			</g>
			<path class="st1" d="M354.4,228.23c19.45-34.89,78.01-47.99,91.21-49.31C430.8,201.01,384.77,223.55,354.4,228.23"/>
			<rect x="321.04" y="234.99" class="st1" width="29.48" height="131.23"/>
			<path class="st0" d="M355.26,234.99c0,2.76-2.46,5.01-5.5,5.01h-27.97c-3.03,0-5.49-2.25-5.49-5.01c0-2.77,2.46-5.01,5.49-5.01
				h27.97C352.8,229.98,355.26,232.22,355.26,234.99"/>
			<rect x="321.04" y="366.21" class="st1" width="29.48" height="118.61"/>
			<path class="st0" d="M355.26,366.21c0,2.76-2.46,5.01-5.5,5.01h-27.97c-3.03,0-5.49-2.25-5.49-5.01c0-2.77,2.46-5.01,5.49-5.01
				h27.97C352.8,361.2,355.26,363.45,355.26,366.21"/>
			<path class="st1" d="M321.04,537.3v-52.47h29.48v50.48C350.52,535.31,334.69,537.56,321.04,537.3z"/>
			<path class="st0" d="M355.65,484.83c0,2.51-2.61,4.55-5.84,4.55h-28.06c-3.22,0-5.84-2.04-5.84-4.55c0-2.52,2.62-4.56,5.84-4.56
				h28.06C353.04,480.27,355.65,482.31,355.65,484.83"/>
			<path class="st0" d="M353.78,227.63c0.24-12.27,6.66-50.19,33.71-72.31C390.22,175.45,365.81,214.8,353.78,227.63"/>
		</g>
		<g>
			<path class="st1" d="M115,108.39c48.3-6.88,120.19,13.27,142.19,42.31C199.04,160.72,128.62,123.28,115,108.39"/>
			<path class="st0" d="M140.25,197.69c13.63-13.66,62.19-50.06,116.94-47.44C238.36,175.84,167.86,195.45,140.25,197.69"/>
			<path class="st1" d="M222.64,62.92c13.29,13.84,43.03,42.28,34.46,88.24C225.16,125.36,220.95,85.93,222.64,62.92"/>
			<path class="st1" d="M179.25,361.97c22.13-18.74,65.27-31.25,86.14-23.5C239.34,361.9,191.14,365.2,179.25,361.97"/>
			<path class="st1" d="M202.21,290.95c15.22,3.75,48.14,10.44,63,45.19C231.99,332.17,211.41,307.25,202.21,290.95"/>
			<rect x="263.84" y="150.12" class="st1" width="23.45" height="145.45"/>
			<path class="st0" d="M292.52,150.12c0,2.88-2.06,5.21-4.6,5.21h-23.44c-2.55,0-4.61-2.33-4.61-5.21c0-2.88,2.06-5.22,4.61-5.22
				h23.44C290.46,144.9,292.52,147.23,292.52,150.12"/>
			<rect x="263.84" y="297.57" class="st1" width="23.45" height="144.53"/>
			<path class="st0" d="M292.52,297.57c0,2.88-2.06,5.21-4.6,5.21h-23.44c-2.55,0-4.61-2.33-4.61-5.21c0-2.88,2.06-5.21,4.61-5.21
				h23.44C290.46,292.36,292.52,294.69,292.52,297.57"/>
			<path class="st1" d="M263.84,532.48v-88.86h23.45v92.96C287.29,536.58,272.22,534.52,263.84,532.48z"/>
			<path class="st0" d="M292.66,442.1c0,2.61-2.19,4.74-4.88,4.74h-23.45c-2.7,0-4.89-2.12-4.89-4.74c0-2.62,2.19-4.74,4.89-4.74
				h23.45C290.47,437.35,292.66,439.48,292.66,442.1"/>
		</g>
	</g>
</g>
</svg>
