<?xml version="1.0" encoding="utf-8"?>
<!-- Generator: Adobe Illustrator 24.1.2, SVG Export Plug-In . SVG Version: 6.00 Build 0)  -->
<svg version="1.1" id="레이어_1" xmlns="http://www.w3.org/2000/svg" xmlns:xlink="http://www.w3.org/1999/xlink" x="0px"
	 y="0px" viewBox="0 0 612 614" style="enable-background:new 0 0 612 614;" xml:space="preserve">
<style type="text/css">
	.st0{fill:#EAEAEA;}
	.st1{fill:#A9CB73;}
	.st2{fill:#F4CD57;}
	.st3{fill:#2D2D2D;}
</style>
<g>
	<path class="st0" d="M518.3,412.1L462,387.8v-41.7v-73.2v-29.3v-90.2L314.2,89.8l56.3,24.2v129.6v29.3v73.2v2.3l-56.3-24.2V89.8
		L103,163l7,224.9l-7,2.2v131.8h422.3V412.1l-7-2.9V412.1z M124.2,192.3l126.7-43.9v87.9l-126.7,43.9V192.3z M110.1,316.8L272,265.6
		v73.2l-54,17.1l-9.4,3l-28.2,8.9l-24.1,7.6l-46.3,14.6V316.8z M419.8,405.4v43.3L272,514.6l-73.4-36.5l73.4,36.5v-43.9l-46.2-23
		l143.6-65.4l50.5,22.5l-0.7,0.3L419.8,405.4z"/>
	<g>
		<polygon class="st1" points="138.2,381.2 138.2,346.1 180.5,331.5 180.5,367.8 208.6,358.9 208.6,324.2 250.9,309.5 250.9,345.5 
			218,355.9 272,338.8 272,265.6 110.1,316.8 110.1,390.1 156.3,375.4 		"/>
		<polygon class="st1" points="369.3,382.2 225.7,447.6 272,470.7 272,514.6 419.8,448.7 419.8,405.4 419.1,405.1 419.8,404.7 		"/>
	</g>
	<polygon class="st2" points="250.9,148.4 124.2,192.3 124.2,280.2 250.9,236.3 	"/>
	<g>
		<polygon class="st1" points="370.5,348.4 370.5,346.1 370.5,272.9 370.5,243.6 370.5,114 314.2,89.8 314.2,324.2 		"/>
		<polygon class="st1" points="462,272.9 462,346.1 462,387.8 518.3,412.1 518.3,409.1 518.3,302.2 518.3,177.7 462,153.4 
			462,243.6 		"/>
	</g>
	<g>
		<polygon class="st2" points="180.5,331.5 138.2,346.1 138.2,381.2 156.3,375.4 180.5,367.8 		"/>
		<polygon class="st2" points="250.9,309.5 208.6,324.2 208.6,358.9 218,355.9 250.9,345.5 		"/>
	</g>
	<g>
		<path class="st3" d="M526.9,449.4l-101.9-49.5c-0.1-0.2-0.3-0.3-0.5-0.5c-0.2-0.2-0.4-0.3-0.5-0.5c-0.1-0.1-0.2-0.2-0.4-0.3
			c-0.2-0.2-0.5-0.2-0.7-0.4c-0.1-0.1-0.2-0.2-0.4-0.2l-50.5-22.5l-80.3-35.8l22.2-7.7l53.9,23.2h0l147.8,63.6
			c0.9,0.4,1.8,0.6,2.7,0.6c1.4,0,2.7-0.4,3.9-1.2c1.9-1.4,3.1-3.6,3.1-6.1V177.7c0-3-1.7-5.6-4.3-6.8l-56.3-24.3h0L316.9,83
			c-0.5-0.2-1.1-0.4-1.6-0.5c0,0,0,0,0,0c-1.1-0.2-2.1-0.1-3.1,0.3c0,0-0.1,0-0.1,0l-211.2,73.2l4.5,13.9l201.9-70v218.9l-28.2,9.8
			v-63.1c0-2.3-1.1-4.5-2.8-5.9c-1.8-1.4-4.1-1.8-6.2-1.1L108,309.8c-3,0.9-5,3.8-5,7v73.2V434c0,2.8,1.6,5.4,4,6.6l74.9,37.3
			l-32.5,15.4c-2.5,1.2-4.1,3.8-4.1,6.6s1.5,5.5,4,6.7l42.3,20.8l6-13.2L169,500.1l29.5-13.9l70.4,35.1c0.2,0.1,0.4,0.1,0.6,0.2
			c0.2,0.1,0.5,0.2,0.7,0.2c0.4,0.1,0.8,0.2,1.2,0.2c0.2,0,0.3,0.1,0.5,0.1c0.1,0,0.1,0,0.2,0c0.4,0,0.9-0.1,1.3-0.2
			c0.2,0,0.4-0.1,0.6-0.1c0.2-0.1,0.4-0.2,0.5-0.2c0.1,0,0.1,0,0.2,0l147.8-65.9c2.6-1.1,4.3-3.8,4.3-6.7v-31.8l80.3,39l-125.5,59.3
			l5.8,13.3l139.4-65.9c2.5-1.2,4.1-3.8,4.1-6.6C531,453.2,529.4,450.6,526.9,449.4z M173.4,362.4l-28.2,8.9v-19.9l28.2-9.8V362.4z
			 M243.8,340.1l-11.7,3.7l-16.4,5.2v-19.5l28.2-9.8V340.1z M140.3,388.2C140.3,388.2,140.3,388.2,140.3,388.2l42.2-13.4l0,0l18-5.7
			l10.2-3.2h0l42.2-13.4l0,0l18.7-5.9l80,35.7l-125.7,57.3l-96.4-48L140.3,388.2z M272.1,462.6l-29.5-14.7l126.7-57.7l32.6,14.5
			L272.1,462.6z M511.3,182.6v218.5l-42.2-18.2v-36.8v-73.2v-29.3v-79.2L511.3,182.6z M419.8,325.8l-14.1,3.7v-58.1l14.1-3.7V325.8z
			 M377.6,278.6l14.1-3.7v58.1l-14.1,3.7V278.6z M433.9,269.1l10.6,4.4l10.6,4.4v57.5l-21.1-8.8V269.1z M455,262.1l-10.6-4.4
			l-10.6-4.4v-13.5l21.1,8.8V262.1z M419.8,252.5l-42.2,11v-14.2l42.2-11V252.5z M426.3,339.2l28.7,11.9v25.8l-65.3-28.1
			L426.3,339.2z M455,232.8l-21.1-8.8v-24.3h-14.1v23.6l-42.2,11V125l77.4,33.3V232.8z M363.5,118.9v124.7v29.3v64.6l-42.2-18.2
			V100.8L363.5,118.9z M117.1,322.3l147.8-46.8v57.9l-7,2.2v-26.1c0-2.4-1.1-4.6-2.9-5.9c-1.9-1.4-4.2-1.8-6.3-1l-42.2,14.6
			c-2.9,1-4.8,3.8-4.8,7v29.3l-14.1,4.5v-26.4c0-2.4-1.1-4.6-2.9-5.9c-1.8-1.4-4.2-1.8-6.3-1L136,339.2c-2.9,1-4.8,3.8-4.8,7v29.6
			l-14.1,4.5V322.3z M117.1,401.7l147.8,73.6V503l-63.3-31.5h0l-84.5-42C117.1,429.4,117.1,401.7,117.1,401.7z M412.7,443.9
			L279,503.5v-28l133.7-59.6V443.9z"/>
		<path class="st3" d="M124.2,287.5c0.7,0,1.5-0.1,2.2-0.4l126.7-43.9c2.9-1,4.8-3.8,4.8-7v-87.9c0-2.4-1.1-4.6-2.9-5.9
			c-1.9-1.4-4.2-1.8-6.3-1l-126.7,43.9c-2.9,1-4.8,3.8-4.8,7v87.9c0,2.4,1.1,4.6,2.9,5.9C121.3,287.1,122.7,287.5,124.2,287.5z
			 M131.2,197.6l112.6-39.1V231l-112.6,39.1V197.6z"/>
		<path class="st3" d="M192.6,213.3l-17-5.9c-2.1-0.7-4.3-0.4-6.1,0.9l-21.1,14.6l7.8,12.2l18.3-12.7l17.9,6.2
			c2.5,0.9,5.3,0.2,7.2-1.8l28.2-29.3l-10-10.4L192.6,213.3z"/>
	</g>
</g>
</svg>
